SplineFontDB: 3.2
FontName: AcariSans-Italic
FullName: Acari Sans Italic
FamilyName: Acari Sans
Weight: Book
Copyright: Copyright (c)2015, HK Grotesk Latin by Alfredo Marco Pradil (ammpradil@gmail.com) and HK Grotesk Cyrillic by Stefan Peev (http://www.contextbg.net/). HK Grotesk is a trademark of Alfredo Marco Pradil. Copyright (c) 2018-2023 The Acari Sans Project Authors (https://github.com/cssobral2013/acari-sans)
Version: 1.063; ttfautohint (v1.8.3)
ItalicAngle: -13
UnderlinePosition: -250
UnderlineWidth: 100
Ascent: 1600
Descent: 400
InvalidEm: 0
sfntRevision: 0x00011020
LayerCount: 2
Layer: 0 1 "Back" 1
Layer: 1 1 "Fore" 0
XUID: [1021 467 -1401554168 13215500]
StyleMap: 0x0001
FSType: 0
OS2Version: 4
OS2_WeightWidthSlopeOnly: 0
OS2_UseTypoMetrics: 1
CreationTime: 1480856841
ModificationTime: 1686782246
PfmFamily: 81
TTFWeight: 400
TTFWidth: 5
LineGap: 26
VLineGap: 0
Panose: 0 0 0 0 0 0 0 0 0 0
OS2TypoAscent: 1900
OS2TypoAOffset: 0
OS2TypoDescent: -487
OS2TypoDOffset: 0
OS2TypoLinegap: 26
OS2WinAscent: 1913
OS2WinAOffset: 0
OS2WinDescent: 500
OS2WinDOffset: 0
HheadAscent: 1900
HheadAOffset: 0
HheadDescent: -487
HheadDOffset: 0
OS2SubXSize: 1331
OS2SubYSize: 1228
OS2SubXOff: 0
OS2SubYOff: 153
OS2SupXSize: 1331
OS2SupYSize: 1228
OS2SupXOff: 0
OS2SupYOff: 716
OS2StrikeYSize: 82
OS2StrikeYPos: 599
OS2CapHeight: 1413
OS2XHeight: 1039
OS2Vendor: 'AMSP'
OS2CodePages: 20000197.00000000
OS2UnicodeRanges: 2000020f.00000001.00000000.00000000
Lookup: 1 0 0 "'aalt' Access All Alternates lookup 0" { "'aalt' Access All Alternates lookup 0 subtable"  } ['aalt' ('DFLT' <'dflt' > 'cyrl' <'BGR ' 'RUS ' 'SRB ' 'dflt' > 'latn' <'AZE ' 'CRT ' 'KAZ ' 'MOL ' 'ROM ' 'TAT ' 'TRK ' 'dflt' > ) ]
Lookup: 3 0 0 "'aalt' Access All Alternates lookup 1" { "'aalt' Access All Alternates lookup 1 subtable"  } ['aalt' ('DFLT' <'dflt' > 'cyrl' <'BGR ' 'RUS ' 'SRB ' 'dflt' > 'latn' <'AZE ' 'CRT ' 'KAZ ' 'MOL ' 'ROM ' 'TAT ' 'TRK ' 'dflt' > ) ]

StartChar: .notdef
Encoding: 65536 -1 0
Width: 728
GlyphClass: 1
Flags: W
LayerCount: 2
Fore
SplineSet
596 0 m 1,0,-1
 66 0 l 1,1,-1
 66 1333 l 1,2,-1
 596 1333 l 1,3,-1
 596 0 l 1,0,-1
530 66 m 1,4,-1
 530 1267 l 1,5,-1
 132 1267 l 1,6,-1
 132 66 l 1,7,-1
 530 66 l 1,4,-1
EndSplineSet
EndChar

StartChar: exclam
Encoding: 33 33 4
Width: 637
GlyphClass: 1
Flags: W
LayerCount: 2
Fore
SplineSet
347 381 m 1,0,-1
 233 381 l 1,1,-1
 449 1435 l 1,2,-1
 621 1435 l 1,3,-1
 347 381 l 1,0,-1
301 0 m 1,4,-1
 106 0 l 1,5,-1
 150 194 l 1,6,-1
 346 194 l 1,7,-1
 301 0 l 1,4,-1
EndSplineSet
EndChar

StartChar: quotedbl
Encoding: 34 34 5
Width: 914
GlyphClass: 1
Flags: W
LayerCount: 2
Fore
SplineSet
485 984 m 1,0,-1
 351 984 l 1,1,-1
 450 1413 l 1,2,-1
 584 1413 l 1,3,-1
 485 984 l 1,0,-1
787 984 m 1,4,-1
 651 984 l 1,5,-1
 750 1413 l 1,6,-1
 886 1413 l 1,7,-1
 787 984 l 1,4,-1
EndSplineSet
EndChar

StartChar: numbersign
Encoding: 35 35 6
Width: 1376
GlyphClass: 1
Flags: W
LayerCount: 2
Fore
SplineSet
704 0 m 1,0,-1
 582 0 l 1,1,-1
 775 436 l 1,2,-1
 456 436 l 1,3,-1
 266 0 l 1,4,-1
 144 0 l 1,5,-1
 335 438 l 1,6,-1
 97 438 l 1,7,-1
 123 551 l 1,8,-1
 385 551 l 1,9,-1
 529 884 l 1,10,-1
 281 884 l 1,11,-1
 307 994 l 1,12,-1
 577 994 l 1,13,-1
 774 1434 l 1,14,-1
 896 1434 l 1,15,-1
 701 997 l 1,16,-1
 1019 997 l 1,17,-1
 1212 1434 l 1,18,-1
 1334 1434 l 1,19,-1
 1141 995 l 1,20,-1
 1379 995 l 1,21,-1
 1353 884 l 1,22,-1
 1093 884 l 1,23,-1
 947 551 l 1,24,-1
 1195 551 l 1,25,-1
 1169 442 l 1,26,-1
 899 442 l 1,27,-1
 704 0 l 1,0,-1
825 551 m 1,28,-1
 969 884 l 1,29,-1
 652 884 l 1,30,-1
 507 551 l 1,31,-1
 825 551 l 1,28,-1
EndSplineSet
EndChar

StartChar: dollar
Encoding: 36 36 7
Width: 1114
GlyphClass: 1
Flags: W
LayerCount: 2
Fore
SplineSet
441 -246 m 1,0,-1
 333 -246 l 1,1,-1
 393 -12 l 1,2,3
 297 -1 297 -1 221 43 c 128,-1,4
 145 87 145 87 100.5 161.5 c 128,-1,5
 56 236 56 236 56 340 c 2,6,-1
 57 374 l 1,7,-1
 215 402 l 1,8,9
 212 380 212 380 212 359 c 0,10,11
 212 246 212 246 286.5 189 c 128,-1,12
 361 132 361 132 480 132 c 0,13,14
 608 132 608 132 705 196.5 c 128,-1,15
 802 261 802 261 837 396 c 0,16,17
 843 425 843 425 843 448 c 0,18,19
 843 557 843 557 728 626 c 0,20,21
 674 658 674 658 595 697 c 0,22,23
 507 740 507 740 442 780 c 0,24,25
 305 866 305 866 305 1007 c 0,26,27
 305 1133 305 1133 395 1254 c 0,28,29
 456 1330 456 1330 539 1374 c 128,-1,30
 622 1418 622 1418 714 1430 c 1,31,-1
 774 1659 l 1,32,-1
 881 1659 l 1,33,-1
 822 1431 l 1,34,35
 929 1422 929 1422 1006 1366.5 c 128,-1,36
 1083 1311 1083 1311 1118 1203 c 1,37,-1
 983 1135 l 1,38,39
 957 1218 957 1218 896.5 1255.5 c 128,-1,40
 836 1293 836 1293 759 1293 c 0,41,42
 663 1293 663 1293 580 1233.5 c 128,-1,43
 497 1174 497 1174 471 1074 c 0,44,45
 465 1049 465 1049 465 1026 c 0,46,47
 465 925 465 925 575 861 c 0,48,49
 621 835 621 835 694 798 c 0,50,51
 789 751 789 751 860 709 c 0,52,53
 1001 620 1001 620 1001 468 c 0,54,55
 1001 390 1001 390 970.5 312.5 c 128,-1,56
 940 235 940 235 893 178 c 0,57,58
 817 87 817 87 715.5 38.5 c 128,-1,59
 614 -10 614 -10 500 -15 c 1,60,-1
 441 -246 l 1,0,-1
EndSplineSet
EndChar

StartChar: percent
Encoding: 37 37 8
Width: 1586
GlyphClass: 1
Flags: W
LayerCount: 2
Fore
SplineSet
466 804 m 0,0,1
 362 804 362 804 315.5 868 c 128,-1,2
 269 932 269 932 269 1029 c 0,3,4
 269 1095 269 1095 286.5 1155.5 c 128,-1,5
 304 1216 304 1216 336 1273 c 0,6,7
 374 1342 374 1342 436.5 1389 c 128,-1,8
 499 1436 499 1436 582 1436 c 0,9,10
 650 1436 650 1436 693 1405.5 c 128,-1,11
 736 1375 736 1375 756.5 1323 c 128,-1,12
 777 1271 777 1271 777 1206 c 0,13,14
 777 1101 777 1101 730.5 1003 c 128,-1,15
 684 905 684 905 603 847 c 0,16,17
 541 804 541 804 466 804 c 0,0,1
365 2 m 1,18,-1
 228 2 l 1,19,-1
 1304 1407 l 1,20,-1
 1441 1407 l 1,21,-1
 365 2 l 1,18,-1
462 904 m 0,22,23
 510 904 510 904 548.5 935.5 c 128,-1,24
 587 967 587 967 614.5 1015 c 128,-1,25
 642 1063 642 1063 656.5 1116.5 c 128,-1,26
 671 1170 671 1170 671 1213 c 0,27,28
 671 1265 671 1265 650 1299.5 c 128,-1,29
 629 1334 629 1334 580 1334 c 0,30,31
 532 1334 532 1334 493 1302.5 c 128,-1,32
 454 1271 454 1271 426.5 1223 c 128,-1,33
 399 1175 399 1175 384.5 1122 c 128,-1,34
 370 1069 370 1069 370 1025 c 0,35,36
 370 973 370 973 391 938.5 c 128,-1,37
 412 904 412 904 462 904 c 0,22,23
1108 3 m 0,38,39
 1004 3 1004 3 957 67.5 c 128,-1,40
 910 132 910 132 910 229 c 0,41,42
 910 288 910 288 929.5 357.5 c 128,-1,43
 949 427 949 427 988.5 489.5 c 128,-1,44
 1028 552 1028 552 1086.5 592 c 128,-1,45
 1145 632 1145 632 1223 632 c 0,46,47
 1321 632 1321 632 1369.5 567.5 c 128,-1,48
 1418 503 1418 503 1418 403 c 0,49,50
 1418 304 1418 304 1378.5 212.5 c 128,-1,51
 1339 121 1339 121 1269 62 c 128,-1,52
 1199 3 1199 3 1108 3 c 0,38,39
1106 103 m 0,53,54
 1155 103 1155 103 1195.5 137.5 c 128,-1,55
 1236 172 1236 172 1263.5 224 c 128,-1,56
 1291 276 1291 276 1303 331 c 0,57,58
 1313 376 1313 376 1313 411 c 0,59,60
 1313 462 1313 462 1292.5 496 c 128,-1,61
 1272 530 1272 530 1223 530 c 256,62,63
 1174 530 1174 530 1135 499 c 128,-1,64
 1096 468 1096 468 1069 420 c 128,-1,65
 1042 372 1042 372 1027.5 319 c 128,-1,66
 1013 266 1013 266 1013 223 c 0,67,68
 1013 103 1013 103 1106 103 c 0,53,54
EndSplineSet
EndChar

StartChar: ampersand
Encoding: 38 38 9
Width: 1368
GlyphClass: 1
Flags: W
LayerCount: 2
Fore
SplineSet
1050 -54 m 1,0,-1
 908 175 l 1,1,2
 695 -21 695 -21 426 -21 c 0,3,4
 328 -21 328 -21 249 7.5 c 128,-1,5
 170 36 170 36 124 93 c 128,-1,6
 78 150 78 150 78 238 c 0,7,8
 78 300 78 300 103 369 c 128,-1,9
 128 438 128 438 178 500 c 0,10,11
 240 576 240 576 327 639.5 c 128,-1,12
 414 703 414 703 542 773 c 1,13,14
 492 855 492 855 461.5 929 c 128,-1,15
 431 1003 431 1003 431 1077 c 0,16,17
 431 1149 431 1149 462.5 1211.5 c 128,-1,18
 494 1274 494 1274 546 1321 c 128,-1,19
 598 1368 598 1368 663 1395 c 0,20,21
 746 1430 746 1430 834 1430 c 0,22,23
 957 1430 957 1430 1027.5 1359.5 c 128,-1,24
 1098 1289 1098 1289 1098 1184 c 0,25,26
 1098 1131 1098 1131 1079 1073 c 0,27,28
 1020 896 1020 896 724 732 c 1,29,-1
 935 396 l 1,30,31
 1022 522 1022 522 1081 698 c 1,32,-1
 1208 670 l 1,33,34
 1137 445 1137 445 1007 282 c 1,35,-1
 1164 32 l 1,36,-1
 1050 -54 l 1,0,-1
649 832 m 1,37,38
 793 911 793 911 873.5 981 c 128,-1,39
 954 1051 954 1051 974 1136 c 0,40,41
 979 1158 979 1158 979 1174 c 0,42,43
 979 1235 979 1235 936.5 1270.5 c 128,-1,44
 894 1306 894 1306 831 1306 c 0,45,46
 747 1306 747 1306 667 1254.5 c 128,-1,47
 587 1203 587 1203 560 1106 c 0,48,49
 557 1090 557 1090 557 1072 c 0,50,51
 557 981 557 981 649 832 c 1,37,38
435 112 m 0,52,53
 668 112 668 112 841 282 c 1,54,-1
 603 664 l 1,55,56
 379 544 379 544 286 433 c 0,57,58
 248 386 248 386 228 336.5 c 128,-1,59
 208 287 208 287 208 251 c 0,60,61
 208 179 208 179 272 145.5 c 128,-1,62
 336 112 336 112 435 112 c 0,52,53
EndSplineSet
EndChar

StartChar: quotesingle
Encoding: 39 39 10
Width: 612
GlyphClass: 1
Flags: W
LayerCount: 2
Fore
SplineSet
492 1013 m 1,0,-1
 357 1013 l 1,1,-1
 456 1442 l 1,2,-1
 590 1442 l 1,3,-1
 492 1013 l 1,0,-1
EndSplineSet
EndChar

StartChar: parenleft
Encoding: 40 40 11
Width: 567
GlyphClass: 1
Flags: W
LayerCount: 2
Fore
SplineSet
369 -26 m 1,0,-1
 253 -27 l 1,1,2
 200 55 200 55 175 176 c 128,-1,3
 150 297 150 297 150 428 c 0,4,5
 150 584 150 584 181 719 c 0,6,7
 225 911 225 911 326 1104.5 c 128,-1,8
 427 1298 427 1298 582 1447 c 1,9,-1
 718 1447 l 1,10,11
 494 1219 494 1219 379 942.5 c 128,-1,12
 264 666 264 666 264 408 c 0,13,14
 264 168 264 168 369 -26 c 1,0,-1
EndSplineSet
EndChar

StartChar: parenright
Encoding: 41 41 12
Width: 569
GlyphClass: 1
Flags: W
LayerCount: 2
Fore
SplineSet
78 -36 m 1,0,-1
 -51 -36 l 1,1,2
 99 118 99 118 215 332 c 0,3,4
 396 663 396 663 396 989 c 0,5,6
 396 1229 396 1229 294 1437 c 1,7,-1
 411 1437 l 1,8,9
 518 1264 518 1264 518 1001 c 0,10,11
 518 867 518 867 490 729.5 c 128,-1,12
 462 592 462 592 394 435 c 0,13,14
 335 298 335 298 253.5 172.5 c 128,-1,15
 172 47 172 47 78 -36 c 1,0,-1
EndSplineSet
EndChar

StartChar: asterisk
Encoding: 42 42 13
Width: 878
GlyphClass: 1
Flags: W
LayerCount: 2
Fore
SplineSet
646 850 m 1,0,-1
 576 1082 l 1,1,-1
 401 850 l 1,2,-1
 319 918 l 1,3,-1
 536 1115 l 1,4,-1
 297 1156 l 1,5,-1
 358 1268 l 1,6,-1
 566 1168 l 1,7,-1
 593 1413 l 1,8,-1
 706 1413 l 1,9,-1
 618 1168 l 1,10,-1
 870 1268 l 1,11,-1
 881 1156 l 1,12,-1
 621 1115 l 1,13,-1
 750 918 l 1,14,-1
 646 850 l 1,0,-1
EndSplineSet
EndChar

StartChar: plus
Encoding: 43 43 14
Width: 1275
GlyphClass: 1
Flags: W
LayerCount: 2
Fore
SplineSet
694 106 m 1,0,-1
 580 106 l 1,1,-1
 580 569 l 1,2,-1
 124 569 l 1,3,-1
 124 682 l 1,4,-1
 580 682 l 1,5,-1
 580 1143 l 1,6,-1
 694 1143 l 1,7,-1
 694 682 l 1,8,-1
 1151 682 l 1,9,-1
 1151 569 l 1,10,-1
 694 569 l 1,11,-1
 694 106 l 1,0,-1
EndSplineSet
EndChar

StartChar: comma
Encoding: 44 44 15
Width: 600
GlyphClass: 1
Flags: W
LayerCount: 2
Fore
SplineSet
53 -225 m 1,0,-1
 -42 -225 l 1,1,-1
 173 264 l 1,2,-1
 369 264 l 1,3,-1
 53 -225 l 1,0,-1
EndSplineSet
EndChar

StartChar: hyphen
Encoding: 45 45 16
Width: 838
GlyphClass: 1
Flags: W
LayerCount: 2
Fore
SplineSet
704 621 m 1,0,-1
 190 621 l 1,1,-1
 217 735 l 1,2,-1
 730 735 l 1,3,-1
 704 621 l 1,0,-1
EndSplineSet
EndChar

StartChar: period
Encoding: 46 46 17
Width: 600
GlyphClass: 1
Flags: W
LayerCount: 2
Fore
SplineSet
289 0 m 1,0,-1
 90 0 l 1,1,-1
 135 194 l 1,2,-1
 333 194 l 1,3,-1
 289 0 l 1,0,-1
EndSplineSet
EndChar

StartChar: slash
Encoding: 47 47 18
Width: 937
GlyphClass: 1
Flags: W
LayerCount: 2
Fore
SplineSet
-44 -430 m 1,0,-1
 -202 -430 l 1,1,-1
 1003 1516 l 1,2,-1
 1158 1516 l 1,3,-1
 -44 -430 l 1,0,-1
EndSplineSet
EndChar

StartChar: zero
Encoding: 48 48 19
Width: 1200
GlyphClass: 1
Flags: W
LayerCount: 2
Fore
SplineSet
456 -20 m 0,0,1
 345 -20 345 -20 272 21.5 c 128,-1,2
 199 63 199 63 155.5 132 c 128,-1,3
 112 201 112 201 94 291 c 128,-1,4
 76 381 76 381 76 479 c 0,5,6
 76 591 76 591 104 712.5 c 128,-1,7
 132 834 132 834 181.5 947.5 c 128,-1,8
 231 1061 231 1061 299.5 1158.5 c 128,-1,9
 368 1256 368 1256 450 1320 c 0,10,11
 517 1373 517 1373 597 1404.5 c 128,-1,12
 677 1436 677 1436 768 1436 c 0,13,14
 904 1436 904 1436 989 1361.5 c 128,-1,15
 1074 1287 1074 1287 1116 1154 c 0,16,17
 1132 1105 1132 1105 1136.5 1058 c 128,-1,18
 1141 1011 1141 1011 1143 954 c 2,19,-1
 1142 903 l 2,20,21
 1138 801 1138 801 1113 693.5 c 128,-1,22
 1088 586 1088 586 1044.5 483.5 c 128,-1,23
 1001 381 1001 381 940.5 289.5 c 128,-1,24
 880 198 880 198 805 129 c 128,-1,25
 730 60 730 60 642 20 c 128,-1,26
 554 -20 554 -20 456 -20 c 0,0,1
480 121 m 0,27,28
 563 121 563 121 631.5 164 c 128,-1,29
 700 207 700 207 754 272.5 c 128,-1,30
 808 338 808 338 847 415 c 128,-1,31
 886 492 886 492 910 561 c 0,32,33
 945 659 945 659 963.5 759 c 128,-1,34
 982 859 982 859 982 944 c 0,35,36
 982 1001 982 1001 972.5 1062.5 c 128,-1,37
 963 1124 963 1124 936 1174 c 128,-1,38
 909 1224 909 1224 861.5 1256.5 c 128,-1,39
 814 1289 814 1289 738 1289 c 0,40,41
 659 1289 659 1289 593.5 1255 c 128,-1,42
 528 1221 528 1221 475.5 1165 c 128,-1,43
 423 1109 423 1109 382.5 1038.5 c 128,-1,44
 342 968 342 968 313 895.5 c 128,-1,45
 284 823 284 823 265.5 754 c 128,-1,46
 247 685 247 685 239 634 c 0,47,48
 224 545 224 545 224 474 c 0,49,50
 224 411 224 411 234.5 348 c 128,-1,51
 245 285 245 285 273 234.5 c 128,-1,52
 301 184 301 184 351 152.5 c 128,-1,53
 401 121 401 121 480 121 c 0,27,28
EndSplineSet
Substitution2: "'subs' Subscript lookup 20 subtable" uni2080
Substitution2: "'sinf' Scientific Inferiors lookup 19 subtable" uni2080
Substitution2: "'sups' Superscript lookup 17 subtable" uni2070
AlternateSubs2: "'aalt' Access All Alternates lookup 1 subtable" uni2070 uni2080
EndChar

StartChar: one
Encoding: 49 49 20
Width: 1200
GlyphClass: 1
Flags: W
LayerCount: 2
Fore
SplineSet
644 0 m 1,0,-1
 486 0 l 1,1,-1
 734 1081 l 1,2,-1
 402 1081 l 1,3,-1
 432 1211 l 1,4,-1
 596 1211 l 2,5,6
 684 1211 684 1211 743 1264 c 128,-1,7
 802 1317 802 1317 820 1393 c 2,8,-1
 824 1413 l 1,9,-1
 968 1413 l 1,10,-1
 644 0 l 1,0,-1
EndSplineSet
Substitution2: "'subs' Subscript lookup 20 subtable" uni2081
Substitution2: "'sinf' Scientific Inferiors lookup 19 subtable" uni2081
Substitution2: "'sups' Superscript lookup 17 subtable" onesuperior
AlternateSubs2: "'aalt' Access All Alternates lookup 1 subtable" onesuperior uni2081
EndChar

StartChar: two
Encoding: 50 50 21
Width: 1200
GlyphClass: 1
Flags: W
LayerCount: 2
Fore
SplineSet
971 0 m 1,0,-1
 -5 0 l 1,1,-1
 23 146 l 1,2,3
 365 336 365 336 583 532 c 1,4,5
 758 674 758 674 853 794.5 c 128,-1,6
 948 915 948 915 975 1038 c 0,7,8
 985 1081 985 1081 985 1120 c 0,9,10
 985 1208 985 1208 934 1249.5 c 128,-1,11
 883 1291 883 1291 801 1291 c 0,12,13
 707 1291 707 1291 632.5 1246 c 128,-1,14
 558 1201 558 1201 505.5 1122.5 c 128,-1,15
 453 1044 453 1044 425 943 c 1,16,-1
 273 972 l 1,17,18
 328 1196 328 1196 470 1314 c 128,-1,19
 612 1432 612 1432 805 1432 c 0,20,21
 973 1432 973 1432 1061 1348 c 128,-1,22
 1149 1264 1149 1264 1149 1127 c 0,23,24
 1149 1040 1149 1040 1110.5 936 c 128,-1,25
 1072 832 1072 832 988 726 c 0,26,27
 875 586 875 586 669 413 c 1,28,29
 534 306 534 306 439.5 244 c 128,-1,30
 345 182 345 182 247 130 c 1,31,-1
 1001 134 l 1,32,-1
 971 0 l 1,0,-1
EndSplineSet
Substitution2: "'subs' Subscript lookup 20 subtable" uni2082
Substitution2: "'sinf' Scientific Inferiors lookup 19 subtable" uni2082
Substitution2: "'sups' Superscript lookup 17 subtable" twosuperior
AlternateSubs2: "'aalt' Access All Alternates lookup 1 subtable" twosuperior uni2082
EndChar

StartChar: three
Encoding: 51 51 22
Width: 1200
GlyphClass: 1
Flags: W
LayerCount: 2
Fore
SplineSet
480 -20 m 0,0,1
 366 -20 366 -20 274.5 15.5 c 128,-1,2
 183 51 183 51 129.5 122 c 128,-1,3
 76 193 76 193 76 300 c 0,4,5
 76 351 76 351 90 406 c 1,6,-1
 234 406 l 1,7,8
 226 373 226 373 226 336 c 0,9,10
 226 265 226 265 261 216.5 c 128,-1,11
 296 168 296 168 355 143 c 128,-1,12
 414 118 414 118 488 118 c 0,13,14
 575 118 575 118 661 152 c 128,-1,15
 747 186 747 186 811 253 c 128,-1,16
 875 320 875 320 900 419 c 0,17,18
 908 451 908 451 908 486 c 0,19,20
 908 553 908 553 874.5 596 c 128,-1,21
 841 639 841 639 783.5 659.5 c 128,-1,22
 726 680 726 680 654 680 c 2,23,-1
 552 680 l 1,24,-1
 584 820 l 1,25,-1
 674 820 l 2,26,27
 777 820 777 820 858.5 883 c 128,-1,28
 940 946 940 946 970 1065 c 0,29,30
 978 1093 978 1093 978 1122 c 0,31,32
 978 1207 978 1207 920.5 1250 c 128,-1,33
 863 1293 863 1293 780 1293 c 0,34,35
 659 1293 659 1293 567 1221.5 c 128,-1,36
 475 1150 475 1150 446 1040 c 1,37,-1
 312 1070 l 1,38,39
 357 1248 357 1248 490 1341 c 128,-1,40
 623 1434 623 1434 788 1434 c 0,41,42
 886 1434 886 1434 962.5 1399.5 c 128,-1,43
 1039 1365 1039 1365 1082.5 1300.5 c 128,-1,44
 1126 1236 1126 1236 1126 1146 c 0,45,46
 1126 1098 1126 1098 1114 1053 c 0,47,48
 1095 963 1095 963 1037.5 885.5 c 128,-1,49
 980 808 980 808 880 756 c 1,50,51
 969 723 969 723 1008.5 653 c 128,-1,52
 1048 583 1048 583 1048 492 c 0,53,54
 1048 445 1048 445 1038 388 c 0,55,56
 1006 252 1006 252 923 161.5 c 128,-1,57
 840 71 840 71 724 25.5 c 128,-1,58
 608 -20 608 -20 480 -20 c 0,0,1
EndSplineSet
Substitution2: "'subs' Subscript lookup 20 subtable" uni2083
Substitution2: "'sinf' Scientific Inferiors lookup 19 subtable" uni2083
Substitution2: "'sups' Superscript lookup 17 subtable" threesuperior
AlternateSubs2: "'aalt' Access All Alternates lookup 1 subtable" threesuperior uni2083
EndChar

StartChar: four
Encoding: 52 52 23
Width: 1200
GlyphClass: 1
Flags: W
LayerCount: 2
Fore
SplineSet
722 0 m 1,0,-1
 569 0 l 1,1,-1
 656 381 l 1,2,-1
 10 381 l 1,3,-1
 28 469 l 1,4,-1
 903 1413 l 1,5,-1
 1044 1413 l 1,6,-1
 839 514 l 1,7,-1
 1061 514 l 1,8,-1
 1031 381 l 1,9,-1
 809 381 l 1,10,-1
 722 0 l 1,0,-1
686 514 m 1,11,-1
 837 1173 l 1,12,-1
 222 514 l 1,13,-1
 686 514 l 1,11,-1
EndSplineSet
Substitution2: "'subs' Subscript lookup 20 subtable" uni2084
Substitution2: "'sinf' Scientific Inferiors lookup 19 subtable" uni2084
Substitution2: "'sups' Superscript lookup 17 subtable" uni2074
AlternateSubs2: "'aalt' Access All Alternates lookup 1 subtable" uni2074 uni2084
EndChar

StartChar: five
Encoding: 53 53 24
Width: 1200
GlyphClass: 1
Flags: W
LayerCount: 2
Fore
SplineSet
484 -20 m 0,0,1
 363 -20 363 -20 277 33 c 128,-1,2
 191 86 191 86 147.5 176.5 c 128,-1,3
 104 267 104 267 104 379 c 1,4,-1
 250 412 l 1,5,-1
 250 392 l 2,6,7
 250 114 250 114 488 114 c 0,8,9
 590 114 590 114 676 166.5 c 128,-1,10
 762 219 762 219 818 301.5 c 128,-1,11
 874 384 874 384 896 476 c 0,12,13
 908 523 908 523 908 566 c 0,14,15
 908 667 908 667 851 730 c 128,-1,16
 794 793 794 793 680 793 c 0,17,18
 589 793 589 793 500.5 749 c 128,-1,19
 412 705 412 705 350 630 c 1,20,-1
 226 701 l 1,21,-1
 512 1413 l 1,22,-1
 1212 1413 l 1,23,-1
 1180 1275 l 1,24,-1
 602 1275 l 1,25,-1
 418 823 l 1,26,27
 540 923 540 923 708 923 c 0,28,29
 821 923 821 923 901.5 877 c 128,-1,30
 982 831 982 831 1024 748.5 c 128,-1,31
 1066 666 1066 666 1066 564 c 0,32,33
 1066 509 1066 509 1052 447 c 0,34,35
 1022 321 1022 321 938 214 c 128,-1,36
 854 107 854 107 734.5 43.5 c 128,-1,37
 615 -20 615 -20 484 -20 c 0,0,1
EndSplineSet
Substitution2: "'subs' Subscript lookup 20 subtable" uni2085
Substitution2: "'sinf' Scientific Inferiors lookup 19 subtable" uni2085
Substitution2: "'sups' Superscript lookup 17 subtable" uni2075
AlternateSubs2: "'aalt' Access All Alternates lookup 1 subtable" uni2075 uni2085
EndChar

StartChar: six
Encoding: 54 54 25
Width: 1200
GlyphClass: 1
Flags: W
LayerCount: 2
Fore
SplineSet
494 -20 m 0,0,1
 375 -20 375 -20 290 30 c 128,-1,2
 205 80 205 80 159.5 165 c 128,-1,3
 114 250 114 250 114 354 c 0,4,5
 114 536 114 536 246 701 c 2,6,-1
 824 1413 l 1,7,-1
 1002 1413 l 1,8,-1
 562 889 l 1,9,10
 624 901 624 901 682 901 c 0,11,12
 800 901 800 901 886.5 854.5 c 128,-1,13
 973 808 973 808 1020.5 727 c 128,-1,14
 1068 646 1068 646 1068 543 c 0,15,16
 1068 404 1068 404 981.5 266 c 128,-1,17
 895 128 895 128 742 43 c 0,18,19
 624 -20 624 -20 494 -20 c 0,0,1
504 122 m 0,20,21
 599 122 599 122 684 170.5 c 128,-1,22
 769 219 769 219 828.5 296.5 c 128,-1,23
 888 374 888 374 910 464 c 0,24,25
 918 503 918 503 918 538 c 0,26,27
 918 645 918 645 851 711.5 c 128,-1,28
 784 778 784 778 678 778 c 0,29,30
 583 778 583 778 498 729.5 c 128,-1,31
 413 681 413 681 353.5 604 c 128,-1,32
 294 527 294 527 272 436 c 0,33,34
 264 403 264 403 264 364 c 0,35,36
 264 258 264 258 330.5 190 c 128,-1,37
 397 122 397 122 504 122 c 0,20,21
EndSplineSet
Substitution2: "'subs' Subscript lookup 20 subtable" uni2086
Substitution2: "'sinf' Scientific Inferiors lookup 19 subtable" uni2086
Substitution2: "'sups' Superscript lookup 17 subtable" uni2076
AlternateSubs2: "'aalt' Access All Alternates lookup 1 subtable" uni2076 uni2086
EndChar

StartChar: seven
Encoding: 55 55 26
Width: 1200
GlyphClass: 1
Flags: W
LayerCount: 2
Fore
SplineSet
346 0 m 1,0,-1
 168 0 l 1,1,-1
 1062 1275 l 1,2,-1
 308 1275 l 1,3,-1
 340 1413 l 1,4,-1
 1278 1413 l 1,5,-1
 1262 1335 l 1,6,-1
 346 0 l 1,0,-1
EndSplineSet
Substitution2: "'subs' Subscript lookup 20 subtable" uni2087
Substitution2: "'sinf' Scientific Inferiors lookup 19 subtable" uni2087
Substitution2: "'sups' Superscript lookup 17 subtable" uni2077
AlternateSubs2: "'aalt' Access All Alternates lookup 1 subtable" uni2077 uni2087
EndChar

StartChar: eight
Encoding: 56 56 27
Width: 1200
GlyphClass: 1
Flags: W
LayerCount: 2
Fore
SplineSet
492 -20 m 0,0,1
 381 -20 381 -20 290 14.5 c 128,-1,2
 199 49 199 49 144.5 119.5 c 128,-1,3
 90 190 90 190 90 299 c 0,4,5
 90 384 90 384 121.5 467 c 128,-1,6
 153 550 153 550 217 621 c 0,7,8
 302 714 302 714 436 768 c 1,9,10
 383 804 383 804 352.5 862.5 c 128,-1,11
 322 921 322 921 322 996 c 0,12,13
 322 1132 322 1132 399.5 1236.5 c 128,-1,14
 477 1341 477 1341 599 1393 c 0,15,16
 698 1434 698 1434 806 1434 c 0,17,18
 900 1434 900 1434 976 1401.5 c 128,-1,19
 1052 1369 1052 1369 1097 1305.5 c 128,-1,20
 1142 1242 1142 1242 1142 1149 c 0,21,22
 1142 1101 1142 1101 1130 1056 c 0,23,24
 1111 965 1111 965 1050.5 887.5 c 128,-1,25
 990 810 990 810 888 757 c 1,26,27
 1058 673 1058 673 1058 480 c 0,28,29
 1058 397 1058 397 1026.5 311 c 128,-1,30
 995 225 995 225 934 157 c 0,31,32
 846 64 846 64 730 22 c 128,-1,33
 614 -20 614 -20 492 -20 c 0,0,1
666 811 m 0,34,35
 772 811 772 811 863.5 878 c 128,-1,36
 955 945 955 945 986 1065 c 0,37,38
 994 1100 994 1100 994 1127 c 0,39,40
 994 1212 994 1212 938 1254.5 c 128,-1,41
 882 1297 882 1297 800 1297 c 0,42,43
 703 1297 703 1297 607 1234 c 128,-1,44
 511 1171 511 1171 478 1051 c 0,45,46
 470 1014 470 1014 470 985 c 0,47,48
 470 905 470 905 521.5 858 c 128,-1,49
 573 811 573 811 666 811 c 0,34,35
498 112 m 0,50,51
 629 112 629 112 743.5 188.5 c 128,-1,52
 858 265 858 265 900 417 c 0,53,54
 908 449 908 449 908 486 c 0,55,56
 908 554 908 554 875 600 c 128,-1,57
 842 646 842 646 785 669 c 128,-1,58
 728 692 728 692 656 692 c 0,59,60
 521 692 521 692 405.5 614 c 128,-1,61
 290 536 290 536 252 389 c 0,62,63
 244 352 244 352 244 320 c 0,64,65
 244 250 244 250 279 204 c 128,-1,66
 314 158 314 158 371.5 135 c 128,-1,67
 429 112 429 112 498 112 c 0,50,51
EndSplineSet
Substitution2: "'subs' Subscript lookup 20 subtable" uni2088
Substitution2: "'sinf' Scientific Inferiors lookup 19 subtable" uni2088
Substitution2: "'sups' Superscript lookup 17 subtable" uni2078
AlternateSubs2: "'aalt' Access All Alternates lookup 1 subtable" uni2078 uni2088
EndChar

StartChar: nine
Encoding: 57 57 28
Width: 1200
GlyphClass: 1
Flags: W
LayerCount: 2
Fore
SplineSet
472 0 m 1,0,-1
 298 0 l 1,1,-1
 734 524 l 1,2,3
 674 512 674 512 612 512 c 0,4,5
 492 512 492 512 406 559 c 128,-1,6
 320 606 320 606 274 686.5 c 128,-1,7
 228 767 228 767 228 868 c 0,8,9
 228 922 228 922 242 975 c 0,10,11
 270 1096 270 1096 351 1200 c 128,-1,12
 432 1304 432 1304 555 1371 c 0,13,14
 674 1434 674 1434 804 1434 c 0,15,16
 921 1434 921 1434 1006 1384 c 128,-1,17
 1091 1334 1091 1334 1136.5 1250 c 128,-1,18
 1182 1166 1182 1166 1182 1062 c 0,19,20
 1182 974 1182 974 1148 881 c 128,-1,21
 1114 788 1114 788 1054 712 c 2,22,-1
 472 0 l 1,0,-1
618 635 m 0,23,24
 713 635 713 635 798 683.5 c 128,-1,25
 883 732 883 732 942.5 809 c 128,-1,26
 1002 886 1002 886 1024 977 c 0,27,28
 1032 1016 1032 1016 1032 1052 c 0,29,30
 1032 1158 1032 1158 965 1224.5 c 128,-1,31
 898 1291 898 1291 792 1291 c 0,32,33
 697 1291 697 1291 611.5 1242 c 128,-1,34
 526 1193 526 1193 466 1115.5 c 128,-1,35
 406 1038 406 1038 386 949 c 0,36,37
 378 916 378 916 378 876 c 0,38,39
 378 768 378 768 445 701.5 c 128,-1,40
 512 635 512 635 618 635 c 0,23,24
EndSplineSet
Substitution2: "'subs' Subscript lookup 20 subtable" uni2089
Substitution2: "'sinf' Scientific Inferiors lookup 19 subtable" uni2089
Substitution2: "'sups' Superscript lookup 17 subtable" uni2079
AlternateSubs2: "'aalt' Access All Alternates lookup 1 subtable" uni2079 uni2089
EndChar

StartChar: colon
Encoding: 58 58 29
Width: 600
GlyphClass: 1
Flags: W
LayerCount: 2
Fore
SplineSet
463 761 m 1,0,-1
 267 761 l 1,1,-1
 312 954 l 1,2,-1
 508 954 l 1,3,-1
 463 761 l 1,0,-1
289 0 m 1,4,-1
 93 0 l 1,5,-1
 138 194 l 1,6,-1
 334 194 l 1,7,-1
 289 0 l 1,4,-1
EndSplineSet
EndChar

StartChar: semicolon
Encoding: 59 59 30
Width: 600
GlyphClass: 1
Flags: W
LayerCount: 2
Fore
SplineSet
458 761 m 1,0,-1
 262 761 l 1,1,-1
 307 954 l 1,2,-1
 503 954 l 1,3,-1
 458 761 l 1,0,-1
52 -225 m 1,4,-1
 -43 -225 l 1,5,-1
 171 264 l 1,6,-1
 368 264 l 1,7,-1
 52 -225 l 1,4,-1
EndSplineSet
EndChar

StartChar: less
Encoding: 60 60 31
Width: 1222
GlyphClass: 1
Flags: W
LayerCount: 2
Fore
SplineSet
1007 170 m 1,0,-1
 109 674 l 1,1,-1
 1007 1178 l 1,2,-1
 1075 1060 l 1,3,-1
 358 674 l 1,4,-1
 1075 287 l 1,5,-1
 1007 170 l 1,0,-1
EndSplineSet
EndChar

StartChar: equal
Encoding: 61 61 32
Width: 1269
GlyphClass: 1
Flags: W
LayerCount: 2
Fore
SplineSet
1014 775 m 1,0,-1
 255 775 l 1,1,-1
 255 911 l 1,2,-1
 1014 911 l 1,3,-1
 1014 775 l 1,0,-1
1014 433 m 1,4,-1
 255 433 l 1,5,-1
 255 569 l 1,6,-1
 1014 569 l 1,7,-1
 1014 433 l 1,4,-1
EndSplineSet
EndChar

StartChar: greater
Encoding: 62 62 33
Width: 1221
GlyphClass: 1
Flags: W
LayerCount: 2
Fore
SplineSet
215 170 m 1,0,-1
 147 287 l 1,1,-1
 864 674 l 1,2,-1
 147 1060 l 1,3,-1
 215 1178 l 1,4,-1
 1113 674 l 1,5,-1
 215 170 l 1,0,-1
EndSplineSet
EndChar

StartChar: question
Encoding: 63 63 34
Width: 1030
GlyphClass: 1
Flags: W
LayerCount: 2
Fore
SplineSet
548 376 m 1,0,-1
 411 376 l 1,1,-1
 466 612 l 2,2,3
 495 737 495 737 586 795 c 0,4,5
 631 823 631 823 693 854 c 0,6,7
 750 884 750 884 790 908 c 0,8,9
 880 965 880 965 909 1087 c 0,10,11
 916 1116 916 1116 916 1145 c 0,12,13
 916 1227 916 1227 856.5 1264 c 128,-1,14
 797 1301 797 1301 705 1301 c 0,15,16
 593 1301 593 1301 497 1236.5 c 128,-1,17
 401 1172 401 1172 371 1055 c 1,18,-1
 229 1069 l 1,19,20
 276 1246 276 1246 411.5 1340 c 128,-1,21
 547 1434 547 1434 704 1434 c 0,22,23
 801 1434 801 1434 880.5 1402.5 c 128,-1,24
 960 1371 960 1371 1007.5 1308 c 128,-1,25
 1055 1245 1055 1245 1055 1149 c 0,26,27
 1055 1081 1055 1081 1034 1017.5 c 128,-1,28
 1013 954 1013 954 982 912 c 0,29,30
 942 858 942 858 892.5 823.5 c 128,-1,31
 843 789 843 789 770 755 c 0,32,33
 693 717 693 717 651.5 683.5 c 128,-1,34
 610 650 610 650 598 596 c 2,35,-1
 548 376 l 1,0,-1
494 0 m 1,36,-1
 298 0 l 1,37,-1
 343 194 l 1,38,-1
 539 194 l 1,39,-1
 494 0 l 1,36,-1
EndSplineSet
EndChar

StartChar: at
Encoding: 64 64 35
Width: 2058
GlyphClass: 1
Flags: W
LayerCount: 2
Fore
SplineSet
836 -348 m 0,0,1
 638 -348 638 -348 474.5 -274 c 128,-1,2
 311 -200 311 -200 214 -46 c 0,3,4
 123 101 123 101 123 302 c 0,5,6
 123 471 123 471 186.5 652 c 128,-1,7
 250 833 250 833 368 989 c 0,8,9
 469 1121 469 1121 603 1220 c 128,-1,10
 737 1319 737 1319 899 1375.5 c 128,-1,11
 1061 1432 1061 1432 1244 1432 c 0,12,13
 1470 1432 1470 1432 1628 1346 c 128,-1,14
 1786 1260 1786 1260 1869 1109.5 c 128,-1,15
 1952 959 1952 959 1952 767 c 0,16,17
 1952 655 1952 655 1925.5 539.5 c 128,-1,18
 1899 424 1899 424 1848 318 c 128,-1,19
 1797 212 1797 212 1723.5 128.5 c 128,-1,20
 1650 45 1650 45 1556.5 -4 c 128,-1,21
 1463 -53 1463 -53 1352 -53 c 0,22,23
 1237 -53 1237 -53 1179 -3.5 c 128,-1,24
 1121 46 1121 46 1121 125 c 0,25,26
 1121 172 1121 172 1140 223 c 1,27,28
 1062 144 1062 144 971.5 105 c 128,-1,29
 881 66 881 66 796 66 c 0,30,31
 709 66 709 66 654 100.5 c 128,-1,32
 599 135 599 135 573 195.5 c 128,-1,33
 547 256 547 256 547 332 c 0,34,35
 547 484 547 484 640.5 658.5 c 128,-1,36
 734 833 734 833 890 949 c 0,37,38
 1013 1038 1013 1038 1148 1038 c 0,39,40
 1258 1038 1258 1038 1319 981.5 c 128,-1,41
 1380 925 1380 925 1380 842 c 1,42,-1
 1443 989 l 1,43,-1
 1592 982 l 1,44,45
 1557 903 1557 903 1488 755 c 0,46,47
 1403 577 1403 577 1343 438 c 0,48,49
 1291 318 1291 318 1271 229 c 0,50,51
 1262 193 1262 193 1262 168 c 0,52,53
 1262 100 1262 100 1349 100 c 2,54,-1
 1357 100 l 2,55,56
 1473 100 1473 100 1562 171.5 c 128,-1,57
 1651 243 1651 243 1707 351 c 0,58,59
 1759 453 1759 453 1785.5 559 c 128,-1,60
 1812 665 1812 665 1812 758 c 0,61,62
 1812 908 1812 908 1747 1030.5 c 128,-1,63
 1682 1153 1682 1153 1546 1226 c 0,64,65
 1415 1293 1415 1293 1234 1293 c 0,66,67
 1056 1293 1056 1293 900.5 1231.5 c 128,-1,68
 745 1170 745 1170 621 1061.5 c 128,-1,69
 497 953 497 953 411.5 810.5 c 128,-1,70
 326 668 326 668 288 505 c 0,71,72
 265 409 265 409 265 318 c 0,73,74
 265 149 265 149 341.5 34 c 128,-1,75
 418 -81 418 -81 549.5 -140 c 128,-1,76
 681 -199 681 -199 848 -199 c 0,77,78
 982 -199 982 -199 1111 -158 c 1,79,-1
 1145 -299 l 1,80,81
 992 -348 992 -348 836 -348 c 0,0,1
826 215 m 0,82,83
 938 215 938 215 1037 288 c 0,84,85
 1140 366 1140 366 1205.5 473 c 128,-1,86
 1271 580 1271 580 1294 683 c 0,87,88
 1304 730 1304 730 1304 759 c 0,89,90
 1304 889 1304 889 1161 889 c 0,91,92
 1049 889 1049 889 950 817 c 0,93,94
 846 739 846 739 780 633 c 128,-1,95
 714 527 714 527 691 424 c 0,96,97
 681 377 681 377 681 347 c 0,98,99
 681 215 681 215 826 215 c 0,82,83
EndSplineSet
EndChar

StartChar: A
Encoding: 65 65 36
Width: 1306
GlyphClass: 1
Flags: W
LayerCount: 2
Fore
SplineSet
1126 0 m 1,0,-1
 959 0 l 1,1,-1
 922 307 l 1,2,-1
 301 307 l 1,3,-1
 122 0 l 1,4,-1
 -54 0 l 1,5,-1
 803 1413 l 1,6,-1
 924 1413 l 1,7,-1
 1126 0 l 1,0,-1
902 452 m 1,8,-1
 816 1180 l 1,9,-1
 387 452 l 1,10,-1
 902 452 l 1,8,-1
EndSplineSet
Substitution2: "Single Substitution lookup 3 subtable" ordfeminine
Substitution2: "Single Substitution lookup 2 subtable" ordfeminine
Position2: "'cpsp' Capital Spacing lookup 0 per glyph data 0" dx=5 dy=0 dh=10 dv=0
EndChar

StartChar: B
Encoding: 66 66 37
Width: 1249
GlyphClass: 1
Flags: W
LayerCount: 2
Fore
SplineSet
569 0 m 2,0,-1
 100 0 l 1,1,-1
 426 1413 l 1,2,-1
 811 1413 l 2,3,4
 913 1413 913 1413 1001 1384.5 c 128,-1,5
 1089 1356 1089 1356 1143 1295.5 c 128,-1,6
 1197 1235 1197 1235 1197 1137 c 0,7,8
 1197 1075 1197 1075 1172 1001 c 0,9,10
 1115 834 1115 834 932 741 c 1,11,12
 1110 655 1110 655 1110 469 c 0,13,14
 1110 386 1110 386 1078.5 300 c 128,-1,15
 1047 214 1047 214 986 151 c 0,16,17
 832 0 832 0 569 0 c 2,0,-1
668 791 m 2,18,19
 747 791 747 791 820 818.5 c 128,-1,20
 893 846 893 846 946.5 905 c 128,-1,21
 1000 964 1000 964 1022 1057 c 0,22,23
 1030 1089 1030 1089 1030 1121 c 0,24,25
 1030 1205 1030 1205 967 1238 c 128,-1,26
 904 1271 904 1271 792 1271 c 2,27,-1
 548 1271 l 1,28,-1
 437 791 l 1,29,-1
 668 791 l 2,18,19
596 147 m 2,30,31
 725 147 725 147 821.5 205.5 c 128,-1,32
 918 264 918 264 949 400 c 0,33,34
 959 441 959 441 959 477 c 0,35,36
 959 649 959 649 726 649 c 2,37,-1
 406 649 l 1,38,-1
 290 147 l 1,39,-1
 596 147 l 2,30,31
EndSplineSet
Position2: "'cpsp' Capital Spacing lookup 0 per glyph data 0" dx=5 dy=0 dh=10 dv=0
EndChar

StartChar: C
Encoding: 67 67 38
Width: 1430
GlyphClass: 1
Flags: W
LayerCount: 2
Fore
SplineSet
656 -20 m 0,0,1
 483 -20 483 -20 371.5 45 c 128,-1,2
 260 110 260 110 206 224 c 128,-1,3
 152 338 152 338 152 486 c 0,4,5
 152 626 152 626 197.5 785 c 128,-1,6
 243 944 243 944 332 1083 c 0,7,8
 437 1245 437 1245 598.5 1340.5 c 128,-1,9
 760 1436 760 1436 967 1436 c 0,10,11
 1095 1436 1095 1436 1202.5 1395.5 c 128,-1,12
 1310 1355 1310 1355 1379 1270 c 128,-1,13
 1448 1185 1448 1185 1464 1053 c 1,14,-1
 1312 1007 l 1,15,16
 1285 1293 1285 1293 954 1293 c 0,17,18
 790 1293 790 1293 663 1213 c 0,19,20
 531 1126 531 1126 450 992.5 c 128,-1,21
 369 859 369 859 333 702 c 0,22,23
 308 591 308 591 308 499 c 0,24,25
 308 328 308 328 395.5 227 c 128,-1,26
 483 126 483 126 667 126 c 0,27,28
 993 126 993 126 1174 428 c 1,29,-1
 1307 351 l 1,30,31
 1179 163 1179 163 1010.5 71.5 c 128,-1,32
 842 -20 842 -20 656 -20 c 0,0,1
EndSplineSet
Position2: "'cpsp' Capital Spacing lookup 0 per glyph data 0" dx=5 dy=0 dh=10 dv=0
EndChar

StartChar: D
Encoding: 68 68 39
Width: 1412
GlyphClass: 1
Flags: W
LayerCount: 2
Fore
SplineSet
463 0 m 2,0,-1
 100 0 l 1,1,-1
 426 1413 l 1,2,-1
 780 1413 l 2,3,4
 1070 1413 1070 1413 1214.5 1282 c 128,-1,5
 1359 1151 1359 1151 1359 914 c 0,6,7
 1359 804 1359 804 1330 682 c 0,8,9
 1249 347 1249 347 1024.5 173.5 c 128,-1,10
 800 0 800 0 463 0 c 2,0,-1
462 145 m 2,11,12
 623 145 623 145 770 205.5 c 128,-1,13
 917 266 917 266 1030 400 c 0,14,15
 1135 529 1135 529 1180 721 c 0,16,17
 1203 824 1203 824 1203 905 c 0,18,19
 1203 1271 1203 1271 755 1271 c 2,20,-1
 553 1271 l 1,21,-1
 293 145 l 1,22,-1
 462 145 l 2,11,12
EndSplineSet
Position2: "'cpsp' Capital Spacing lookup 0 per glyph data 0" dx=5 dy=0 dh=10 dv=0
EndChar

StartChar: E
Encoding: 69 69 40
Width: 1245
GlyphClass: 1
Flags: W
LayerCount: 2
Fore
SplineSet
1016 0 m 1,0,-1
 100 0 l 1,1,-1
 426 1413 l 1,2,-1
 1341 1413 l 1,3,-1
 1309 1276 l 1,4,-1
 553 1276 l 1,5,-1
 438 774 l 1,6,-1
 1095 774 l 1,7,-1
 1063 641 l 1,8,-1
 406 641 l 1,9,-1
 292 145 l 1,10,-1
 1048 145 l 1,11,-1
 1016 0 l 1,0,-1
EndSplineSet
Position2: "'cpsp' Capital Spacing lookup 0 per glyph data 0" dx=5 dy=0 dh=10 dv=0
EndChar

StartChar: F
Encoding: 70 70 41
Width: 1202
GlyphClass: 1
Flags: W
LayerCount: 2
Fore
SplineSet
259 0 m 1,0,-1
 100 0 l 1,1,-1
 426 1413 l 1,2,-1
 1332 1413 l 1,3,-1
 1300 1276 l 1,4,-1
 553 1276 l 1,5,-1
 438 774 l 1,6,-1
 1097 774 l 1,7,-1
 1065 641 l 1,8,-1
 406 641 l 1,9,-1
 259 0 l 1,0,-1
EndSplineSet
Position2: "'cpsp' Capital Spacing lookup 0 per glyph data 0" dx=5 dy=0 dh=10 dv=0
EndChar

StartChar: G
Encoding: 71 71 42
Width: 1509
GlyphClass: 1
Flags: W
LayerCount: 2
Fore
SplineSet
651 -20 m 0,0,1
 478 -20 478 -20 366.5 45 c 128,-1,2
 255 110 255 110 201 224 c 128,-1,3
 147 338 147 338 147 486 c 0,4,5
 147 624 147 624 192.5 782.5 c 128,-1,6
 238 941 238 941 328 1082 c 0,7,8
 434 1244 434 1244 596 1340 c 128,-1,9
 758 1436 758 1436 962 1436 c 0,10,11
 1103 1436 1103 1436 1204.5 1389 c 128,-1,12
 1306 1342 1306 1342 1369.5 1256 c 128,-1,13
 1433 1170 1433 1170 1458 1053 c 1,14,-1
 1305 1004 l 1,15,16
 1272 1147 1272 1147 1180.5 1217 c 128,-1,17
 1089 1287 1089 1287 948 1287 c 0,18,19
 823 1287 823 1287 721 1241 c 128,-1,20
 619 1195 619 1195 541 1114.5 c 128,-1,21
 463 1034 463 1034 409.5 928.5 c 128,-1,22
 356 823 356 823 328 702 c 0,23,24
 303 593 303 593 303 500 c 0,25,26
 303 329 303 329 390.5 228.5 c 128,-1,27
 478 128 478 128 662 128 c 0,28,29
 781 128 781 128 897 181.5 c 128,-1,30
 1013 235 1013 235 1100.5 339.5 c 128,-1,31
 1188 444 1188 444 1228 597 c 1,32,-1
 903 590 l 1,33,-1
 932 715 l 1,34,-1
 1405 715 l 1,35,-1
 1240 0 l 1,36,-1
 1108 0 l 1,37,-1
 1167 251 l 1,38,39
 1122 179 1122 179 1046.5 117.5 c 128,-1,40
 971 56 971 56 870.5 18 c 128,-1,41
 770 -20 770 -20 651 -20 c 0,0,1
EndSplineSet
Position2: "'cpsp' Capital Spacing lookup 0 per glyph data 0" dx=5 dy=0 dh=10 dv=0
EndChar

StartChar: H
Encoding: 72 72 43
Width: 1461
GlyphClass: 1
Flags: W
LayerCount: 2
Fore
SplineSet
1132 0 m 1,0,-1
 973 0 l 1,1,-1
 1119 641 l 1,2,-1
 406 641 l 1,3,-1
 259 0 l 1,4,-1
 100 0 l 1,5,-1
 426 1413 l 1,6,-1
 585 1413 l 1,7,-1
 438 774 l 1,8,-1
 1151 774 l 1,9,-1
 1298 1413 l 1,10,-1
 1457 1413 l 1,11,-1
 1132 0 l 1,0,-1
EndSplineSet
Position2: "'cpsp' Capital Spacing lookup 0 per glyph data 0" dx=5 dy=0 dh=10 dv=0
EndChar

StartChar: I
Encoding: 73 73 44
Width: 589
GlyphClass: 1
Flags: W
LayerCount: 2
Fore
SplineSet
259 0 m 1,0,-1
 100 0 l 1,1,-1
 426 1413 l 1,2,-1
 585 1413 l 1,3,-1
 259 0 l 1,0,-1
EndSplineSet
Position2: "'cpsp' Capital Spacing lookup 0 per glyph data 0" dx=5 dy=0 dh=10 dv=0
EndChar

StartChar: J
Encoding: 74 74 45
Width: 1127
GlyphClass: 1
Flags: W
LayerCount: 2
Fore
SplineSet
395 -20 m 0,0,1
 280 -20 280 -20 203 24.5 c 128,-1,2
 126 69 126 69 87 146 c 128,-1,3
 48 223 48 223 48 320 c 0,4,5
 48 354 48 354 55 403 c 1,6,-1
 210 410 l 1,7,8
 204 373 204 373 204 335 c 0,9,10
 204 239 204 239 252 179.5 c 128,-1,11
 300 120 300 120 404 120 c 0,12,13
 566 120 566 120 650.5 219.5 c 128,-1,14
 735 319 735 319 775 492 c 2,15,-1
 987 1413 l 1,16,-1
 1147 1413 l 1,17,-1
 934 495 l 2,18,19
 876 246 876 246 746 113 c 128,-1,20
 616 -20 616 -20 395 -20 c 0,0,1
EndSplineSet
Position2: "'cpsp' Capital Spacing lookup 0 per glyph data 0" dx=5 dy=0 dh=10 dv=0
EndChar

StartChar: K
Encoding: 75 75 46
Width: 1460
GlyphClass: 1
Flags: W
LayerCount: 2
Fore
SplineSet
1275 0 m 1,0,-1
 1096 0 l 1,1,-1
 789 757 l 1,2,-1
 350 390 l 1,3,-1
 259 0 l 1,4,-1
 100 0 l 1,5,-1
 426 1413 l 1,6,-1
 585 1413 l 1,7,-1
 392 584 l 1,8,-1
 1364 1413 l 1,9,-1
 1572 1413 l 1,10,-1
 908 856 l 1,11,-1
 1275 0 l 1,0,-1
EndSplineSet
Position2: "'cpsp' Capital Spacing lookup 0 per glyph data 0" dx=5 dy=0 dh=10 dv=0
EndChar

StartChar: L
Encoding: 76 76 47
Width: 1043
GlyphClass: 1
Flags: W
LayerCount: 2
Fore
SplineSet
863 0 m 1,0,-1
 100 0 l 1,1,-1
 426 1413 l 1,2,-1
 585 1413 l 1,3,-1
 292 145 l 1,4,-1
 896 145 l 1,5,-1
 863 0 l 1,0,-1
EndSplineSet
Position2: "'cpsp' Capital Spacing lookup 0 per glyph data 0" dx=5 dy=0 dh=10 dv=0
EndChar

StartChar: M
Encoding: 77 77 48
Width: 1769
GlyphClass: 1
Flags: W
LayerCount: 2
Fore
SplineSet
1439 0 m 1,0,-1
 1282 0 l 1,1,-1
 1579 1276 l 1,2,-1
 885 123 l 1,3,-1
 711 123 l 1,4,-1
 555 1276 l 1,5,-1
 259 0 l 1,6,-1
 100 0 l 1,7,-1
 426 1413 l 1,8,-1
 682 1413 l 1,9,-1
 827 278 l 1,10,-1
 1504 1413 l 1,11,-1
 1765 1413 l 1,12,-1
 1439 0 l 1,0,-1
EndSplineSet
Position2: "'cpsp' Capital Spacing lookup 0 per glyph data 0" dx=5 dy=0 dh=10 dv=0
EndChar

StartChar: N
Encoding: 78 78 49
Width: 1425
GlyphClass: 1
Flags: W
LayerCount: 2
Fore
SplineSet
1095 0 m 1,0,-1
 871 0 l 1,1,-1
 544 1230 l 1,2,-1
 259 0 l 1,3,-1
 100 0 l 1,4,-1
 426 1413 l 1,5,-1
 646 1413 l 1,6,-1
 978 185 l 1,7,-1
 1264 1413 l 1,8,-1
 1420 1413 l 1,9,-1
 1095 0 l 1,0,-1
EndSplineSet
Position2: "'cpsp' Capital Spacing lookup 0 per glyph data 0" dx=5 dy=0 dh=10 dv=0
EndChar

StartChar: O
Encoding: 79 79 50
Width: 1525
GlyphClass: 1
Flags: W
LayerCount: 2
Fore
SplineSet
652 -20 m 0,0,1
 481 -20 481 -20 370 45.5 c 128,-1,2
 259 111 259 111 205 226.5 c 128,-1,3
 151 342 151 342 151 491 c 0,4,5
 151 634 151 634 197 790 c 128,-1,6
 243 946 243 946 331 1081 c 0,7,8
 437 1243 437 1243 599 1338.5 c 128,-1,9
 761 1434 761 1434 965 1434 c 0,10,11
 1137 1434 1137 1434 1249 1368.5 c 128,-1,12
 1361 1303 1361 1303 1415 1187.5 c 128,-1,13
 1469 1072 1469 1072 1469 922 c 0,14,15
 1469 780 1469 780 1423 624 c 128,-1,16
 1377 468 1377 468 1289 333 c 0,17,18
 1183 171 1183 171 1020 75.5 c 128,-1,19
 857 -20 857 -20 652 -20 c 0,0,1
662 126 m 0,20,21
 830 126 830 126 960 208 c 0,22,23
 1095 294 1095 294 1177 428.5 c 128,-1,24
 1259 563 1259 563 1295 721 c 0,25,26
 1318 821 1318 821 1318 911 c 0,27,28
 1318 1082 1318 1082 1229.5 1184.5 c 128,-1,29
 1141 1287 1141 1287 953 1287 c 0,30,31
 789 1287 789 1287 661 1206 c 0,32,33
 526 1118 526 1118 444.5 983 c 128,-1,34
 363 848 363 848 328 692 c 0,35,36
 304 586 304 586 304 500 c 0,37,38
 304 330 304 330 391 228 c 128,-1,39
 478 126 478 126 662 126 c 0,20,21
EndSplineSet
Substitution2: "Single Substitution lookup 3 subtable" ordmasculine
Substitution2: "Single Substitution lookup 2 subtable" ordmasculine
Position2: "'cpsp' Capital Spacing lookup 0 per glyph data 0" dx=5 dy=0 dh=10 dv=0
EndChar

StartChar: P
Encoding: 80 80 51
Width: 1156
GlyphClass: 1
Flags: W
LayerCount: 2
Fore
SplineSet
259 0 m 1,0,-1
 100 0 l 1,1,-1
 426 1413 l 1,2,-1
 816 1413 l 2,3,4
 996 1413 996 1413 1094.5 1331.5 c 128,-1,5
 1193 1250 1193 1250 1193 1113 c 0,6,7
 1193 1062 1193 1062 1180 1009 c 0,8,9
 1134 821 1134 821 991.5 729.5 c 128,-1,10
 849 638 849 638 650 638 c 2,11,-1
 406 638 l 1,12,-1
 259 0 l 1,0,-1
671 779 m 2,13,14
 808 779 808 779 903.5 842 c 128,-1,15
 999 905 999 905 1031 1038 c 0,16,17
 1039 1073 1039 1073 1039 1101 c 0,18,19
 1039 1181 1039 1181 980 1226.5 c 128,-1,20
 921 1272 921 1272 796 1272 c 2,21,-1
 552 1272 l 1,22,-1
 437 779 l 1,23,-1
 671 779 l 2,13,14
EndSplineSet
Position2: "'cpsp' Capital Spacing lookup 0 per glyph data 0" dx=5 dy=0 dh=10 dv=0
EndChar

StartChar: Q
Encoding: 81 81 52
Width: 1555
GlyphClass: 1
Flags: W
LayerCount: 2
Fore
SplineSet
1206 -97 m 1,0,-1
 1059 97 l 1,1,2
 889 -20 889 -20 652 -20 c 0,3,4
 481 -20 481 -20 370 45.5 c 128,-1,5
 259 111 259 111 205 226.5 c 128,-1,6
 151 342 151 342 151 491 c 0,7,8
 151 634 151 634 197 790 c 128,-1,9
 243 946 243 946 331 1081 c 0,10,11
 437 1243 437 1243 599 1338.5 c 128,-1,12
 761 1434 761 1434 965 1434 c 0,13,14
 1138 1434 1138 1434 1249.5 1368.5 c 128,-1,15
 1361 1303 1361 1303 1415 1187.5 c 128,-1,16
 1469 1072 1469 1072 1469 923 c 0,17,18
 1469 741 1469 741 1394 539 c 128,-1,19
 1319 337 1319 337 1171 191 c 1,20,-1
 1321 -1 l 1,21,-1
 1206 -97 l 1,0,-1
663 124 m 0,22,23
 832 124 832 124 969 210 c 1,24,-1
 818 410 l 1,25,-1
 929 507 l 1,26,-1
 1085 309 l 1,27,28
 1191 428 1191 428 1252 595.5 c 128,-1,29
 1313 763 1313 763 1313 917 c 0,30,31
 1313 1086 1313 1086 1226 1187.5 c 128,-1,32
 1139 1289 1139 1289 954 1289 c 0,33,34
 789 1289 789 1289 662 1207 c 0,35,36
 529 1119 529 1119 448 984.5 c 128,-1,37
 367 850 367 850 331 692 c 0,38,39
 307 585 307 585 307 497 c 0,40,41
 307 327 307 327 393 225.5 c 128,-1,42
 479 124 479 124 663 124 c 0,22,23
EndSplineSet
Position2: "'cpsp' Capital Spacing lookup 0 per glyph data 0" dx=5 dy=0 dh=10 dv=0
EndChar

StartChar: R
Encoding: 82 82 53
Width: 1227
GlyphClass: 1
Flags: W
LayerCount: 2
Fore
SplineSet
1026 -2 m 1,0,-1
 855 -2 l 1,1,-1
 650 632 l 1,2,-1
 405 632 l 1,3,-1
 257 -2 l 1,4,-1
 98 -2 l 1,5,-1
 426 1411 l 1,6,-1
 824 1411 l 2,7,8
 927 1411 927 1411 1010 1375.5 c 128,-1,9
 1093 1340 1093 1340 1142 1270.5 c 128,-1,10
 1191 1201 1191 1201 1191 1101 c 0,11,12
 1191 910 1191 910 1047 774 c 0,13,14
 945 679 945 679 801 651 c 1,15,-1
 1026 -2 l 1,0,-1
704 778 m 1,16,17
 822 784 822 784 912 849 c 128,-1,18
 1002 914 1002 914 1031 1034 c 0,19,20
 1038 1063 1038 1063 1038 1094 c 0,21,22
 1038 1183 1038 1183 973.5 1227 c 128,-1,23
 909 1271 909 1271 805 1271 c 2,24,-1
 553 1271 l 1,25,-1
 440 778 l 1,26,-1
 704 778 l 1,16,17
EndSplineSet
Position2: "'cpsp' Capital Spacing lookup 0 per glyph data 0" dx=5 dy=0 dh=10 dv=0
EndChar

StartChar: S
Encoding: 83 83 54
Width: 1117
GlyphClass: 1
Flags: W
LayerCount: 2
Fore
SplineSet
488 -16 m 0,0,1
 400 -16 400 -16 321.5 9 c 128,-1,2
 243 34 243 34 184 82.5 c 128,-1,3
 125 131 125 131 90.5 203 c 128,-1,4
 56 275 56 275 56 369 c 1,5,-1
 211 399 l 1,6,7
 211 262 211 262 287.5 194.5 c 128,-1,8
 364 127 364 127 497 127 c 0,9,10
 561 127 561 127 622 144.5 c 128,-1,11
 683 162 683 162 731 197.5 c 128,-1,12
 779 233 779 233 808.5 286 c 128,-1,13
 838 339 838 339 838 410 c 0,14,15
 838 466 838 466 817.5 505 c 128,-1,16
 797 544 797 544 763.5 574 c 128,-1,17
 730 604 730 604 686 627.5 c 128,-1,18
 642 651 642 651 595 675 c 0,19,20
 543 701 543 701 491 731 c 128,-1,21
 439 761 439 761 398 800.5 c 128,-1,22
 357 840 357 840 331.5 893.5 c 128,-1,23
 306 947 306 947 306 1020 c 0,24,25
 306 1112 306 1112 344.5 1188.5 c 128,-1,26
 383 1265 383 1265 446.5 1319.5 c 128,-1,27
 510 1374 510 1374 592 1404 c 128,-1,28
 674 1434 674 1434 762 1434 c 0,29,30
 822 1434 822 1434 877 1420.5 c 128,-1,31
 932 1407 932 1407 978.5 1379 c 128,-1,32
 1025 1351 1025 1351 1060.5 1308 c 128,-1,33
 1096 1265 1096 1265 1117 1207 c 1,34,-1
 990 1142 l 1,35,36
 965 1220 965 1220 902 1259.5 c 128,-1,37
 839 1299 839 1299 759 1299 c 0,38,39
 705 1299 705 1299 651.5 1280.5 c 128,-1,40
 598 1262 598 1262 556 1228 c 128,-1,41
 514 1194 514 1194 488 1146.5 c 128,-1,42
 462 1099 462 1099 462 1040 c 0,43,44
 462 989 462 989 482.5 953 c 128,-1,45
 503 917 503 917 536.5 889 c 128,-1,46
 570 861 570 861 614 838.5 c 128,-1,47
 658 816 658 816 705 792 c 0,48,49
 758 766 758 766 810 735 c 128,-1,50
 862 704 862 704 903 662.5 c 128,-1,51
 944 621 944 621 969.5 565.5 c 128,-1,52
 995 510 995 510 995 434 c 0,53,54
 995 331 995 331 952 247.5 c 128,-1,55
 909 164 909 164 838.5 105.5 c 128,-1,56
 768 47 768 47 676.5 15.5 c 128,-1,57
 585 -16 585 -16 488 -16 c 0,0,1
EndSplineSet
Position2: "'cpsp' Capital Spacing lookup 0 per glyph data 0" dx=5 dy=0 dh=10 dv=0
EndChar

StartChar: T
Encoding: 84 84 55
Width: 1247
GlyphClass: 1
Flags: W
LayerCount: 2
Fore
SplineSet
589 0 m 1,0,-1
 428 0 l 1,1,-1
 724 1282 l 1,2,-1
 247 1282 l 1,3,-1
 277 1413 l 1,4,-1
 1391 1413 l 1,5,-1
 1361 1282 l 1,6,-1
 884 1282 l 1,7,-1
 589 0 l 1,0,-1
EndSplineSet
Position2: "'cpsp' Capital Spacing lookup 0 per glyph data 0" dx=5 dy=0 dh=10 dv=0
EndChar

StartChar: U
Encoding: 85 85 56
Width: 1356
GlyphClass: 1
Flags: W
LayerCount: 2
Fore
SplineSet
569 -20 m 0,0,1
 366 -20 366 -20 269 84 c 128,-1,2
 172 188 172 188 172 359 c 0,3,4
 172 437 172 437 192 525 c 2,5,-1
 396 1413 l 1,6,-1
 555 1413 l 1,7,-1
 358 556 l 2,8,9
 333 451 333 451 333 372 c 0,10,11
 333 254 333 254 392 192 c 128,-1,12
 451 130 451 130 580 130 c 0,13,14
 765 130 765 130 873.5 249.5 c 128,-1,15
 982 369 982 369 1029 570 c 2,16,-1
 1224 1413 l 1,17,-1
 1383 1413 l 1,18,-1
 1178 521 l 2,19,20
 1142 364 1142 364 1062 242.5 c 128,-1,21
 982 121 982 121 858.5 50.5 c 128,-1,22
 735 -20 735 -20 569 -20 c 0,0,1
EndSplineSet
Position2: "'cpsp' Capital Spacing lookup 0 per glyph data 0" dx=5 dy=0 dh=10 dv=0
EndChar

StartChar: V
Encoding: 86 86 57
Width: 1334
GlyphClass: 1
Flags: W
LayerCount: 2
Fore
SplineSet
623 0 m 1,0,-1
 486 0 l 1,1,-1
 281 1413 l 1,2,-1
 443 1413 l 1,3,-1
 598 210 l 1,4,-1
 1312 1413 l 1,5,-1
 1479 1413 l 1,6,-1
 623 0 l 1,0,-1
EndSplineSet
Position2: "'cpsp' Capital Spacing lookup 0 per glyph data 0" dx=5 dy=0 dh=10 dv=0
EndChar

StartChar: W
Encoding: 87 87 58
Width: 1973
GlyphClass: 1
Flags: W
LayerCount: 2
Fore
SplineSet
1339 0 m 1,0,-1
 1165 0 l 1,1,-1
 1094 1158 l 1,2,-1
 482 0 l 1,3,-1
 308 0 l 1,4,-1
 237 1413 l 1,5,-1
 399 1413 l 1,6,-1
 454 194 l 1,7,-1
 1086 1413 l 1,8,-1
 1214 1413 l 1,9,-1
 1285 194 l 1,10,-1
 1900 1413 l 1,11,-1
 2063 1413 l 1,12,-1
 1339 0 l 1,0,-1
EndSplineSet
Position2: "'cpsp' Capital Spacing lookup 0 per glyph data 1" dx=5 dy=1 dh=10 dv=2
EndChar

StartChar: X
Encoding: 88 88 59
Width: 1270
GlyphClass: 1
Flags: W
LayerCount: 2
Fore
SplineSet
1076 0 m 1,0,-1
 895 0 l 1,1,-1
 656 576 l 1,2,-1
 153 0 l 1,3,-1
 -40 0 l 1,4,-1
 592 707 l 1,5,-1
 292 1413 l 1,6,-1
 476 1413 l 1,7,-1
 707 827 l 1,8,-1
 1214 1413 l 1,9,-1
 1404 1413 l 1,10,-1
 775 707 l 1,11,-1
 1076 0 l 1,0,-1
EndSplineSet
Position2: "'cpsp' Capital Spacing lookup 0 per glyph data 0" dx=5 dy=0 dh=10 dv=0
EndChar

StartChar: Y
Encoding: 89 89 60
Width: 1341
GlyphClass: 1
Flags: W
LayerCount: 2
Fore
SplineSet
634 0 m 1,0,-1
 480 0 l 1,1,-1
 609 553 l 1,2,-1
 270 1413 l 1,3,-1
 450 1413 l 1,4,-1
 715 711 l 1,5,-1
 1310 1413 l 1,6,-1
 1497 1413 l 1,7,-1
 763 553 l 1,8,-1
 634 0 l 1,0,-1
EndSplineSet
Position2: "'cpsp' Capital Spacing lookup 0 per glyph data 0" dx=5 dy=0 dh=10 dv=0
EndChar

StartChar: Z
Encoding: 90 90 61
Width: 1283
GlyphClass: 1
Flags: W
LayerCount: 2
Fore
SplineSet
1065 0 m 1,0,-1
 -23 0 l 1,1,-1
 3 124 l 1,2,-1
 1155 1276 l 1,3,-1
 316 1276 l 1,4,-1
 348 1413 l 1,5,-1
 1391 1413 l 1,6,-1
 1363 1283 l 1,7,-1
 217 144 l 1,8,-1
 1099 144 l 1,9,-1
 1065 0 l 1,0,-1
EndSplineSet
Position2: "'cpsp' Capital Spacing lookup 0 per glyph data 0" dx=5 dy=0 dh=10 dv=0
EndChar

StartChar: bracketleft
Encoding: 91 91 62
Width: 641
GlyphClass: 1
Flags: W
LayerCount: 2
Fore
SplineSet
432 -93 m 1,0,-1
 70 -93 l 1,1,-1
 439 1504 l 1,2,-1
 800 1504 l 1,3,-1
 780 1413 l 1,4,-1
 544 1413 l 1,5,-1
 219 0 l 1,6,-1
 454 0 l 1,7,-1
 432 -93 l 1,0,-1
EndSplineSet
EndChar

StartChar: backslash
Encoding: 92 92 63
Width: 937
GlyphClass: 1
Flags: W
LayerCount: 2
Fore
SplineSet
705 -430 m 1,0,-1
 557 -430 l 1,1,-1
 251 1516 l 1,2,-1
 402 1516 l 1,3,-1
 705 -430 l 1,0,-1
EndSplineSet
EndChar

StartChar: bracketright
Encoding: 93 93 64
Width: 641
GlyphClass: 1
Flags: W
LayerCount: 2
Fore
SplineSet
297 -93 m 1,0,-1
 -65 -93 l 1,1,-1
 -43 0 l 1,2,-1
 193 0 l 1,3,-1
 519 1413 l 1,4,-1
 283 1413 l 1,5,-1
 304 1504 l 1,6,-1
 665 1504 l 1,7,-1
 297 -93 l 1,0,-1
EndSplineSet
EndChar

StartChar: asciicircum
Encoding: 94 94 65
Width: 984
GlyphClass: 1
Flags: W
LayerCount: 2
Fore
SplineSet
933 839 m 1,0,-1
 779 839 l 1,1,-1
 651 1173 l 1,2,-1
 367 839 l 1,3,-1
 205 839 l 1,4,-1
 702 1428 l 1,5,-1
 933 839 l 1,0,-1
EndSplineSet
EndChar

StartChar: underscore
Encoding: 95 95 66
Width: 1242
GlyphClass: 1
Flags: W
LayerCount: 2
Fore
SplineSet
870 -114 m 1,0,-1
 90 -114 l 1,1,-1
 117 0 l 1,2,-1
 896 0 l 1,3,-1
 870 -114 l 1,0,-1
EndSplineSet
EndChar

StartChar: grave
Encoding: 96 96 67
Width: 539
GlyphClass: 1
Flags: W
LayerCount: 2
Fore
SplineSet
611 1122 m 1,0,-1
 463 1122 l 1,1,-1
 272 1413 l 1,2,-1
 461 1413 l 1,3,-1
 611 1122 l 1,0,-1
EndSplineSet
EndChar

StartChar: a
Encoding: 97 97 68
Width: 1167
GlyphClass: 1
Flags: W
LayerCount: 2
Fore
SplineSet
405 -20 m 0,0,1
 298 -20 298 -20 226.5 28.5 c 128,-1,2
 155 77 155 77 119.5 161.5 c 128,-1,3
 84 246 84 246 84 355 c 256,4,5
 84 464 84 464 117.5 581.5 c 128,-1,6
 151 699 151 699 215 801 c 0,7,8
 286 916 286 916 391.5 988 c 128,-1,9
 497 1060 497 1060 628 1060 c 0,10,11
 844 1060 844 1060 922 897 c 1,12,-1
 958 1039 l 1,13,-1
 1113 1039 l 1,14,-1
 875 0 l 1,15,-1
 724 0 l 1,16,-1
 750 128 l 1,17,18
 606 -20 606 -20 405 -20 c 0,0,1
451 116 m 0,19,20
 558 116 558 116 639 172.5 c 128,-1,21
 720 229 720 229 774 323.5 c 128,-1,22
 828 418 828 418 854 535 c 0,23,24
 872 613 872 613 872 680 c 0,25,26
 872 752 872 752 850.5 806.5 c 128,-1,27
 829 861 829 861 781.5 891.5 c 128,-1,28
 734 922 734 922 659 922 c 0,29,30
 553 922 553 922 470.5 864.5 c 128,-1,31
 388 807 388 807 333.5 713 c 128,-1,32
 279 619 279 619 254 504 c 0,33,34
 235 421 235 421 235 360 c 0,35,36
 235 290 235 290 257 234.5 c 128,-1,37
 279 179 279 179 327 147.5 c 128,-1,38
 375 116 375 116 451 116 c 0,19,20
EndSplineSet
Substitution2: "Single Substitution lookup 3 subtable" ordfeminine
Substitution2: "Single Substitution lookup 2 subtable" ordfeminine
EndChar

StartChar: b
Encoding: 98 98 69
Width: 1166
GlyphClass: 1
Flags: W
LayerCount: 2
Fore
SplineSet
542 -20 m 0,0,1
 428 -20 428 -20 356.5 25 c 128,-1,2
 285 70 285 70 251 145 c 1,3,-1
 214 0 l 1,4,-1
 59 0 l 1,5,-1
 398 1413 l 1,6,-1
 553 1413 l 1,7,-1
 419 907 l 1,8,9
 565 1062 565 1062 765 1062 c 0,10,11
 872 1062 872 1062 944.5 1014 c 128,-1,12
 1017 966 1017 966 1052.5 881 c 128,-1,13
 1088 796 1088 796 1088 686 c 0,14,15
 1088 578 1088 578 1055 460 c 128,-1,16
 1022 342 1022 342 958 239 c 0,17,18
 887 123 887 123 781 51.5 c 128,-1,19
 675 -20 675 -20 542 -20 c 0,0,1
512 111 m 0,20,21
 619 111 619 111 702.5 170 c 128,-1,22
 786 229 786 229 842 324.5 c 128,-1,23
 898 420 898 420 922 535 c 0,24,25
 939 605 939 605 939 674 c 0,26,27
 939 748 939 748 917 806 c 128,-1,28
 895 864 895 864 847.5 897 c 128,-1,29
 800 930 800 930 723 930 c 0,30,31
 617 930 617 930 535 871 c 128,-1,32
 453 812 453 812 398.5 716 c 128,-1,33
 344 620 344 620 318 504 c 0,34,35
 300 431 300 431 300 356 c 0,36,37
 300 286 300 286 321 230 c 128,-1,38
 342 174 342 174 389 142.5 c 128,-1,39
 436 111 436 111 512 111 c 0,20,21
EndSplineSet
EndChar

StartChar: c
Encoding: 99 99 70
Width: 1004
GlyphClass: 1
Flags: W
LayerCount: 2
Fore
SplineSet
435 -20 m 0,0,1
 315 -20 315 -20 236.5 30.5 c 128,-1,2
 158 81 158 81 119.5 168.5 c 128,-1,3
 81 256 81 256 81 367 c 0,4,5
 81 466 81 466 113 577 c 128,-1,6
 145 688 145 688 210 792 c 0,7,8
 258 869 258 869 324 928 c 128,-1,9
 390 987 390 987 472.5 1021.5 c 128,-1,10
 555 1056 555 1056 653 1056 c 0,11,12
 750 1056 750 1056 821 1020.5 c 128,-1,13
 892 985 892 985 937 923.5 c 128,-1,14
 982 862 982 862 999 781 c 1,15,-1
 850 731 l 1,16,17
 847 829 847 829 790.5 878.5 c 128,-1,18
 734 928 734 928 647 928 c 0,19,20
 540 928 540 928 459.5 865.5 c 128,-1,21
 379 803 379 803 325.5 707 c 128,-1,22
 272 611 272 611 247 502 c 0,23,24
 229 418 229 418 229 354 c 0,25,26
 229 244 229 244 277.5 175.5 c 128,-1,27
 326 107 326 107 431 107 c 0,28,29
 537 107 537 107 623 166.5 c 128,-1,30
 709 226 709 226 752 318 c 1,31,-1
 874 245 l 1,32,33
 798 119 798 119 685 49.5 c 128,-1,34
 572 -20 572 -20 435 -20 c 0,0,1
EndSplineSet
EndChar

StartChar: d
Encoding: 100 100 71
Width: 1171
GlyphClass: 1
Flags: W
LayerCount: 2
Fore
SplineSet
405 -20 m 0,0,1
 298 -20 298 -20 226.5 28.5 c 128,-1,2
 155 77 155 77 119.5 161.5 c 128,-1,3
 84 246 84 246 84 355 c 256,4,5
 84 464 84 464 117.5 581.5 c 128,-1,6
 151 699 151 699 215 801 c 0,7,8
 286 916 286 916 391.5 988 c 128,-1,9
 497 1060 497 1060 628 1060 c 0,10,11
 844 1060 844 1060 922 897 c 1,12,-1
 1058 1413 l 1,13,-1
 1214 1413 l 1,14,-1
 875 0 l 1,15,-1
 724 0 l 1,16,-1
 750 128 l 1,17,18
 606 -20 606 -20 405 -20 c 0,0,1
451 116 m 0,19,20
 558 116 558 116 639 172.5 c 128,-1,21
 720 229 720 229 774 323.5 c 128,-1,22
 828 418 828 418 854 535 c 0,23,24
 872 613 872 613 872 680 c 0,25,26
 872 752 872 752 850.5 806.5 c 128,-1,27
 829 861 829 861 781.5 891.5 c 128,-1,28
 734 922 734 922 659 922 c 0,29,30
 553 922 553 922 470.5 864.5 c 128,-1,31
 388 807 388 807 333.5 713 c 128,-1,32
 279 619 279 619 254 504 c 0,33,34
 235 421 235 421 235 360 c 0,35,36
 235 290 235 290 257 234.5 c 128,-1,37
 279 179 279 179 327 147.5 c 128,-1,38
 375 116 375 116 451 116 c 0,19,20
EndSplineSet
EndChar

StartChar: e
Encoding: 101 101 72
Width: 1062
GlyphClass: 1
Flags: W
LayerCount: 2
Fore
SplineSet
449 -12 m 0,0,1
 324 -12 324 -12 242 35.5 c 128,-1,2
 160 83 160 83 119 167.5 c 128,-1,3
 78 252 78 252 78 364 c 0,4,5
 78 460 78 460 109 572 c 128,-1,6
 140 684 140 684 205 788 c 0,7,8
 253 865 253 865 319.5 924 c 128,-1,9
 386 983 386 983 469 1017.5 c 128,-1,10
 552 1052 552 1052 648 1052 c 0,11,12
 830 1052 830 1052 913 957 c 128,-1,13
 996 862 996 862 996 701 c 0,14,15
 996 577 996 577 960 462 c 1,16,-1
 239 462 l 1,17,18
 225 407 225 407 225 353 c 0,19,20
 225 286 225 286 249 233.5 c 128,-1,21
 273 181 273 181 322.5 150.5 c 128,-1,22
 372 120 372 120 451 120 c 0,23,24
 556 120 556 120 633 147.5 c 128,-1,25
 710 175 710 175 776 236 c 1,26,-1
 872 138 l 1,27,28
 776 60 776 60 676 24 c 128,-1,29
 576 -12 576 -12 449 -12 c 0,0,1
851 584 m 1,30,31
 866 652 866 652 866 703 c 0,32,33
 866 804 866 804 812.5 861.5 c 128,-1,34
 759 919 759 919 641 919 c 0,35,36
 546 919 546 919 471 873.5 c 128,-1,37
 396 828 396 828 344.5 752.5 c 128,-1,38
 293 677 293 677 268 584 c 1,39,-1
 851 584 l 1,30,31
EndSplineSet
EndChar

StartChar: f
Encoding: 102 102 73
Width: 716
GlyphClass: 1
Flags: W
LayerCount: 2
Fore
SplineSet
261 0 m 1,0,-1
 107 0 l 1,1,-1
 317 917 l 1,2,-1
 127 917 l 1,3,-1
 156 1037 l 1,4,-1
 346 1037 l 1,5,-1
 392 1212 l 2,6,7
 424 1325 424 1325 514 1379.5 c 128,-1,8
 604 1434 604 1434 721 1434 c 0,9,10
 810 1434 810 1434 888 1393 c 1,11,-1
 828 1287 l 1,12,13
 773 1310 773 1310 717 1310 c 0,14,15
 656 1310 656 1310 608 1281 c 128,-1,16
 560 1252 560 1252 542 1190 c 2,17,-1
 500 1039 l 1,18,-1
 799 1039 l 1,19,-1
 771 917 l 1,20,-1
 471 917 l 1,21,-1
 261 0 l 1,0,-1
EndSplineSet
EndChar

StartChar: g
Encoding: 103 103 74
Width: 1172
GlyphClass: 1
Flags: W
LayerCount: 2
Fore
SplineSet
346 -433 m 0,0,1
 205 -433 205 -433 113 -379.5 c 128,-1,2
 21 -326 21 -326 -22 -230 c 1,3,-1
 110 -157 l 1,4,5
 167 -304 167 -304 353 -304 c 0,6,7
 450 -304 450 -304 524.5 -263.5 c 128,-1,8
 599 -223 599 -223 648.5 -152.5 c 128,-1,9
 698 -82 698 -82 720 8 c 2,10,-1
 754 137 l 1,11,12
 610 -16 610 -16 412 -16 c 0,13,14
 303 -16 303 -16 230 31.5 c 128,-1,15
 157 79 157 79 120.5 162.5 c 128,-1,16
 84 246 84 246 84 356 c 0,17,18
 84 463 84 463 117 580 c 128,-1,19
 150 697 150 697 214 802 c 0,20,21
 285 917 285 917 392 988.5 c 128,-1,22
 499 1060 499 1060 635 1060 c 0,23,24
 744 1060 744 1060 816 1014.5 c 128,-1,25
 888 969 888 969 921 894 c 1,26,-1
 958 1039 l 1,27,-1
 1114 1039 l 1,28,-1
 873 5 l 2,29,30
 842 -128 842 -128 773 -226 c 128,-1,31
 704 -324 704 -324 597 -378.5 c 128,-1,32
 490 -433 490 -433 346 -433 c 0,0,1
452 116 m 0,33,34
 558 116 558 116 639 174 c 128,-1,35
 720 232 720 232 774 327 c 128,-1,36
 828 422 828 422 854 537 c 0,37,38
 873 620 873 620 873 684 c 0,39,40
 873 754 873 754 851.5 809 c 128,-1,41
 830 864 830 864 783 895.5 c 128,-1,42
 736 927 736 927 661 927 c 0,43,44
 552 927 552 927 469 866.5 c 128,-1,45
 386 806 386 806 332 711 c 128,-1,46
 278 616 278 616 254 506 c 0,47,48
 236 429 236 429 236 362 c 0,49,50
 236 290 236 290 258 234.5 c 128,-1,51
 280 179 280 179 327.5 147.5 c 128,-1,52
 375 116 375 116 452 116 c 0,33,34
EndSplineSet
EndChar

StartChar: h
Encoding: 104 104 75
Width: 1160
GlyphClass: 1
Flags: W
LayerCount: 2
Fore
SplineSet
900 0 m 1,0,-1
 743 0 l 1,1,-1
 886 626 l 2,2,3
 903 702 903 702 903 753 c 0,4,5
 903 915 903 915 749 915 c 0,6,7
 652 915 652 915 567 863.5 c 128,-1,8
 482 812 482 812 422.5 733 c 128,-1,9
 363 654 363 654 342 565 c 2,10,-1
 213 0 l 1,11,-1
 59 0 l 1,12,-1
 398 1413 l 1,13,-1
 551 1413 l 1,14,-1
 412 880 l 1,15,16
 486 966 486 966 585.5 1011 c 128,-1,17
 685 1056 685 1056 779 1056 c 0,18,19
 921 1056 921 1056 989 977 c 128,-1,20
 1057 898 1057 898 1057 769 c 0,21,22
 1057 708 1057 708 1041 633 c 2,23,-1
 900 0 l 1,0,-1
EndSplineSet
EndChar

StartChar: i
Encoding: 105 105 76
Width: 492
GlyphClass: 1
Flags: W
LayerCount: 2
Fore
SplineSet
475 1221 m 1,0,-1
 327 1221 l 1,1,-1
 372 1413 l 1,2,-1
 520 1413 l 1,3,-1
 475 1221 l 1,0,-1
212 0 m 1,4,-1
 63 0 l 1,5,-1
 293 1039 l 1,6,-1
 441 1039 l 1,7,-1
 212 0 l 1,4,-1
EndSplineSet
Substitution2: "'locl' Localized Forms in Latin lookup 5 subtable" i.loclTRK
Substitution2: "Single Substitution lookup 2 subtable" dotlessi
Substitution2: "'aalt' Access All Alternates lookup 0 subtable" i.loclTRK
EndChar

StartChar: j
Encoding: 106 106 77
Width: 530
GlyphClass: 1
Flags: W
LayerCount: 2
Fore
SplineSet
510 1225 m 1,0,-1
 341 1225 l 1,1,-1
 389 1418 l 1,2,-1
 558 1418 l 1,3,-1
 510 1225 l 1,0,-1
-134 -438 m 0,4,5
 -208 -438 -208 -438 -293 -405 c 1,6,-1
 -238 -277 l 1,7,8
 -186 -291 -186 -291 -131 -291 c 0,9,10
 -62 -291 -62 -291 -26 -249 c 128,-1,11
 10 -207 10 -207 22 -148 c 2,12,-1
 298 1039 l 1,13,-1
 467 1039 l 1,14,-1
 189 -150 l 2,15,16
 168 -236 168 -236 126.5 -301 c 128,-1,17
 85 -366 85 -366 20.5 -402 c 128,-1,18
 -44 -438 -44 -438 -134 -438 c 0,4,5
EndSplineSet
Substitution2: "Single Substitution lookup 2 subtable" uni0237
EndChar

StartChar: k
Encoding: 107 107 78
Width: 1093
GlyphClass: 1
Flags: W
LayerCount: 2
Fore
SplineSet
935 0 m 1,0,-1
 754 0 l 1,1,-1
 566 548 l 1,2,-1
 283 302 l 1,3,-1
 212 0 l 1,4,-1
 57 0 l 1,5,-1
 385 1413 l 1,6,-1
 541 1413 l 1,7,-1
 322 495 l 1,8,-1
 912 1039 l 1,9,-1
 1110 1039 l 1,10,-1
 681 657 l 1,11,-1
 935 0 l 1,0,-1
EndSplineSet
EndChar

StartChar: l
Encoding: 108 108 79
Width: 535
GlyphClass: 1
Flags: W
LayerCount: 2
Fore
SplineSet
229 -20 m 0,0,1
 155 -20 155 -20 121.5 10.5 c 128,-1,2
 88 41 88 41 88 99 c 0,3,4
 88 140 88 140 105 209 c 2,5,-1
 389 1413 l 1,6,-1
 545 1413 l 1,7,8
 243 157 243 157 242 145 c 0,9,10
 242 105 242 105 290 105 c 0,11,12
 314 105 314 105 381 122 c 1,13,-1
 363 -2 l 1,14,15
 336 -10 336 -10 299 -15 c 128,-1,16
 262 -20 262 -20 229 -20 c 0,0,1
EndSplineSet
EndChar

StartChar: m
Encoding: 109 109 80
Width: 1757
GlyphClass: 1
Flags: W
LayerCount: 2
Fore
SplineSet
1499 0 m 1,0,-1
 1342 0 l 1,1,-1
 1485 626 l 2,2,3
 1502 702 1502 702 1502 755 c 0,4,5
 1502 929 1502 929 1343 930 c 0,6,7
 1256 930 1256 930 1183 880.5 c 128,-1,8
 1110 831 1110 831 1060 753.5 c 128,-1,9
 1010 676 1010 676 990 588 c 2,10,-1
 855 0 l 1,11,-1
 698 0 l 1,12,-1
 842 630 l 2,13,14
 859 700 859 700 859 762 c 0,15,16
 859 930 859 930 704 930 c 0,17,18
 617 930 617 930 543 881 c 128,-1,19
 469 832 469 832 418.5 754 c 128,-1,20
 368 676 368 676 348 588 c 2,21,-1
 214 0 l 1,22,-1
 57 0 l 1,23,-1
 296 1039 l 1,24,-1
 452 1039 l 1,25,-1
 412 871 l 1,26,27
 466 958 466 958 551 1008 c 128,-1,28
 636 1058 636 1058 728 1058 c 0,29,30
 840 1058 840 1058 915.5 1007 c 128,-1,31
 991 956 991 956 1004 852 c 1,32,33
 1152 1056 1152 1056 1365 1056 c 0,34,35
 1511 1056 1511 1056 1582.5 976.5 c 128,-1,36
 1654 897 1654 897 1654 765 c 0,37,38
 1654 700 1654 700 1637 624 c 2,39,-1
 1499 0 l 1,0,-1
EndSplineSet
EndChar

StartChar: n
Encoding: 110 110 81
Width: 1157
GlyphClass: 1
Flags: W
LayerCount: 2
Fore
SplineSet
896 0 m 1,0,-1
 742 0 l 1,1,-1
 885 626 l 2,2,3
 901 696 901 696 901 749 c 0,4,5
 901 914 901 914 742 914 c 0,6,7
 652 914 652 914 568 866 c 128,-1,8
 484 818 484 818 425.5 743.5 c 128,-1,9
 367 669 367 669 347 587 c 2,10,-1
 213 0 l 1,11,-1
 57 0 l 1,12,-1
 296 1039 l 1,13,-1
 451 1039 l 1,14,-1
 413 887 l 1,15,16
 484 968 484 968 578 1012 c 128,-1,17
 672 1056 672 1056 767 1056 c 0,18,19
 913 1056 913 1056 983 977.5 c 128,-1,20
 1053 899 1053 899 1053 767 c 0,21,22
 1053 700 1053 700 1036 624 c 2,23,-1
 896 0 l 1,0,-1
EndSplineSet
EndChar

StartChar: o
Encoding: 111 111 82
Width: 1151
GlyphClass: 1
Flags: W
LayerCount: 2
Fore
SplineSet
466 -20 m 0,0,1
 341 -20 341 -20 254 33 c 128,-1,2
 167 86 167 86 122 178 c 128,-1,3
 77 270 77 270 77 385 c 0,4,5
 77 487 77 487 112 593.5 c 128,-1,6
 147 700 147 700 215 793 c 0,7,8
 298 909 298 909 420 980.5 c 128,-1,9
 542 1052 542 1052 687 1052 c 0,10,11
 811 1052 811 1052 898.5 998 c 128,-1,12
 986 944 986 944 1031.5 852 c 128,-1,13
 1077 760 1077 760 1077 645 c 0,14,15
 1077 552 1077 552 1043.5 444 c 128,-1,16
 1010 336 1010 336 941 239 c 0,17,18
 856 123 856 123 733 51.5 c 128,-1,19
 610 -20 610 -20 466 -20 c 0,0,1
473 112 m 0,20,21
 588 112 588 112 674.5 169.5 c 128,-1,22
 761 227 761 227 817 321.5 c 128,-1,23
 873 416 873 416 899 531 c 0,24,25
 917 606 917 606 917 671 c 0,26,27
 917 785 917 785 860.5 852 c 128,-1,28
 804 919 804 919 680 919 c 0,29,30
 567 919 567 919 480.5 861.5 c 128,-1,31
 394 804 394 804 337.5 710 c 128,-1,32
 281 616 281 616 255 500 c 0,33,34
 238 424 238 424 238 362 c 0,35,36
 238 247 238 247 294.5 179.5 c 128,-1,37
 351 112 351 112 473 112 c 0,20,21
EndSplineSet
Substitution2: "Single Substitution lookup 3 subtable" ordmasculine
Substitution2: "Single Substitution lookup 2 subtable" ordmasculine
EndChar

StartChar: p
Encoding: 112 112 83
Width: 1171
GlyphClass: 1
Flags: W
LayerCount: 2
Fore
SplineSet
108 -438 m 1,0,-1
 -47 -438 l 1,1,-1
 298 1039 l 1,2,-1
 452 1039 l 1,3,-1
 419 909 l 1,4,5
 563 1060 563 1060 767 1060 c 0,6,7
 874 1060 874 1060 945.5 1012 c 128,-1,8
 1017 964 1017 964 1053 879.5 c 128,-1,9
 1089 795 1089 795 1089 686 c 0,10,11
 1089 578 1089 578 1056 460 c 128,-1,12
 1023 342 1023 342 959 239 c 0,13,14
 888 123 888 123 782 51.5 c 128,-1,15
 676 -20 676 -20 543 -20 c 0,16,17
 429 -20 429 -20 357.5 25 c 128,-1,18
 286 70 286 70 252 145 c 1,19,-1
 108 -438 l 1,0,-1
510 111 m 0,20,21
 617 111 617 111 701 169.5 c 128,-1,22
 785 228 785 228 841.5 323 c 128,-1,23
 898 418 898 418 922 535 c 0,24,25
 940 612 940 612 940 678 c 0,26,27
 940 751 940 751 917.5 807 c 128,-1,28
 895 863 895 863 847 895.5 c 128,-1,29
 799 928 799 928 721 928 c 0,30,31
 618 928 618 928 535.5 869 c 128,-1,32
 453 810 453 810 397.5 714.5 c 128,-1,33
 342 619 342 619 317 504 c 0,34,35
 298 428 298 428 298 358 c 0,36,37
 298 287 298 287 319.5 231 c 128,-1,38
 341 175 341 175 388 143 c 128,-1,39
 435 111 435 111 510 111 c 0,20,21
EndSplineSet
EndChar

StartChar: q
Encoding: 113 113 84
Width: 1166
GlyphClass: 1
Flags: W
LayerCount: 2
Fore
SplineSet
768 -438 m 1,0,-1
 612 -438 l 1,1,-1
 752 132 l 1,2,3
 677 55 677 55 591.5 17.5 c 128,-1,4
 506 -20 506 -20 404 -20 c 0,5,6
 296 -20 296 -20 224.5 29 c 128,-1,7
 153 78 153 78 117.5 163 c 128,-1,8
 82 248 82 248 82 356 c 0,9,10
 82 463 82 463 115.5 581 c 128,-1,11
 149 699 149 699 213 801 c 0,12,13
 284 916 284 916 390 988 c 128,-1,14
 496 1060 496 1060 628 1060 c 0,15,16
 844 1060 844 1060 920 896 c 1,17,-1
 958 1039 l 1,18,-1
 1113 1039 l 1,19,-1
 768 -438 l 1,0,-1
446 111 m 0,20,21
 553 111 553 111 635 169 c 128,-1,22
 717 227 717 227 771.5 322.5 c 128,-1,23
 826 418 826 418 852 535 c 0,24,25
 871 619 871 619 871 683 c 0,26,27
 871 755 871 755 849.5 809.5 c 128,-1,28
 828 864 828 864 781 895.5 c 128,-1,29
 734 927 734 927 658 927 c 0,30,31
 553 927 553 927 470.5 868.5 c 128,-1,32
 388 810 388 810 332.5 714.5 c 128,-1,33
 277 619 277 619 252 504 c 0,34,35
 234 426 234 426 234 358 c 0,36,37
 234 286 234 286 255.5 230.5 c 128,-1,38
 277 175 277 175 323.5 143 c 128,-1,39
 370 111 370 111 446 111 c 0,20,21
EndSplineSet
EndChar

StartChar: r
Encoding: 114 114 85
Width: 834
GlyphClass: 1
Flags: W
LayerCount: 2
Fore
SplineSet
214 0 m 1,0,-1
 57 0 l 1,1,-1
 296 1039 l 1,2,-1
 453 1039 l 1,3,-1
 410 849 l 1,4,5
 463 950 463 950 559 1002 c 128,-1,6
 655 1054 655 1054 743 1054 c 0,7,8
 787 1054 787 1054 835 1040.5 c 128,-1,9
 883 1027 883 1027 913 1003 c 1,10,-1
 840 884 l 1,11,12
 793 927 793 927 720 927 c 0,13,14
 623 927 623 927 542.5 861.5 c 128,-1,15
 462 796 462 796 403.5 685.5 c 128,-1,16
 345 575 345 575 314 437 c 2,17,-1
 214 0 l 1,0,-1
EndSplineSet
EndChar

StartChar: s
Encoding: 115 115 86
Width: 891
GlyphClass: 1
Flags: W
LayerCount: 2
Fore
SplineSet
370 -20 m 0,0,1
 312 -20 312 -20 253 -3 c 128,-1,2
 194 14 194 14 144.5 46.5 c 128,-1,3
 95 79 95 79 61 128 c 128,-1,4
 27 177 27 177 19 240 c 1,5,-1
 155 294 l 1,6,7
 159 249 159 249 179.5 215 c 128,-1,8
 200 181 200 181 231.5 158.5 c 128,-1,9
 263 136 263 136 302 124.5 c 128,-1,10
 341 113 341 113 382 113 c 0,11,12
 425 113 425 113 467 126.5 c 128,-1,13
 509 140 509 140 542.5 166 c 128,-1,14
 576 192 576 192 596.5 230 c 128,-1,15
 617 268 617 268 617 316 c 0,16,17
 617 356 617 356 600.5 382 c 128,-1,18
 584 408 584 408 557.5 425 c 128,-1,19
 531 442 531 442 495.5 453.5 c 128,-1,20
 460 465 460 465 421 476 c 0,21,22
 375 491 375 491 328 508.5 c 128,-1,23
 281 526 281 526 243.5 555 c 128,-1,24
 206 584 206 584 183 629 c 128,-1,25
 160 674 160 674 160 743 c 0,26,27
 160 820 160 820 189 878.5 c 128,-1,28
 218 937 218 937 266.5 976 c 128,-1,29
 315 1015 315 1015 379 1034.5 c 128,-1,30
 443 1054 443 1054 513 1054 c 0,31,32
 565 1054 565 1054 616 1041 c 128,-1,33
 667 1028 667 1028 711.5 1003.5 c 128,-1,34
 756 979 756 979 790.5 940.5 c 128,-1,35
 825 902 825 902 843 850 c 1,36,-1
 714 793 l 1,37,38
 703 830 703 830 682 856 c 128,-1,39
 661 882 661 882 633 897.5 c 128,-1,40
 605 913 605 913 572 920.5 c 128,-1,41
 539 928 539 928 504 928 c 0,42,43
 464 928 464 928 427 918.5 c 128,-1,44
 390 909 390 909 361.5 888.5 c 128,-1,45
 333 868 333 868 316 836 c 128,-1,46
 299 804 299 804 299 758 c 0,47,48
 299 719 299 719 316 694.5 c 128,-1,49
 333 670 333 670 361.5 653 c 128,-1,50
 390 636 390 636 426.5 624 c 128,-1,51
 463 612 463 612 503 599 c 0,52,53
 550 584 550 584 597 565.5 c 128,-1,54
 644 547 644 547 681.5 516.5 c 128,-1,55
 719 486 719 486 742 441 c 128,-1,56
 765 396 765 396 765 327 c 0,57,58
 765 248 765 248 729.5 184 c 128,-1,59
 694 120 694 120 637.5 74.5 c 128,-1,60
 581 29 581 29 510.5 4.5 c 128,-1,61
 440 -20 440 -20 370 -20 c 0,0,1
EndSplineSet
Substitution2: "'hist' Historical Forms lookup 18 subtable" longs
Substitution2: "'aalt' Access All Alternates lookup 0 subtable" longs
EndChar

StartChar: t
Encoding: 116 116 87
Width: 692
GlyphClass: 1
Flags: W
LayerCount: 2
Fore
SplineSet
348 -20 m 0,0,1
 240 -20 240 -20 190.5 32.5 c 128,-1,2
 141 85 141 85 141 176 c 0,3,4
 141 229 141 229 154 285 c 2,5,-1
 295 917 l 1,6,-1
 137 917 l 1,7,-1
 164 1039 l 1,8,-1
 324 1039 l 1,9,-1
 376 1239 l 1,10,-1
 565 1364 l 1,11,-1
 479 1039 l 1,12,-1
 744 1039 l 1,13,-1
 716 917 l 1,14,-1
 451 917 l 1,15,-1
 301 265 l 2,16,17
 293 226 293 226 292 202 c 0,18,19
 292 149 292 149 318 126 c 128,-1,20
 344 103 344 103 386 103 c 0,21,22
 436 103 436 103 504 132 c 1,23,-1
 483 -2 l 1,24,25
 464 -9 464 -9 426.5 -14.5 c 128,-1,26
 389 -20 389 -20 348 -20 c 0,0,1
EndSplineSet
EndChar

StartChar: u
Encoding: 117 117 88
Width: 1153
GlyphClass: 1
Flags: W
LayerCount: 2
Fore
SplineSet
395 -23 m 0,0,1
 250 -23 250 -23 181 58 c 128,-1,2
 112 139 112 139 112 275 c 0,3,4
 112 350 112 350 130 431 c 2,5,-1
 266 1039 l 1,6,-1
 421 1039 l 1,7,-1
 277 407 l 2,8,9
 259 333 259 333 259 274 c 0,10,11
 259 106 259 106 412 106 c 0,12,13
 505 106 505 106 589 155.5 c 128,-1,14
 673 205 673 205 733.5 285 c 128,-1,15
 794 365 794 365 817 459 c 2,16,-1
 949 1039 l 1,17,-1
 1103 1039 l 1,18,-1
 865 0 l 1,19,-1
 712 0 l 1,20,-1
 752 166 l 1,21,22
 720 120 720 120 665.5 77 c 128,-1,23
 611 34 611 34 541 5.5 c 128,-1,24
 471 -23 471 -23 395 -23 c 0,0,1
EndSplineSet
EndChar

StartChar: v
Encoding: 118 118 89
Width: 985
GlyphClass: 1
Flags: W
LayerCount: 2
Fore
SplineSet
441 0 m 1,0,-1
 304 0 l 1,1,-1
 162 1039 l 1,2,-1
 323 1039 l 1,3,-1
 415 202 l 1,4,-1
 899 1039 l 1,5,-1
 1068 1039 l 1,6,-1
 441 0 l 1,0,-1
EndSplineSet
EndChar

StartChar: w
Encoding: 119 119 90
Width: 1472
GlyphClass: 1
Flags: W
LayerCount: 2
Fore
SplineSet
371 -1 m 1,0,-1
 224 -1 l 1,1,-1
 177 1039 l 1,2,-1
 333 1039 l 1,3,-1
 351 205 l 1,4,-1
 782 1039 l 1,5,-1
 926 1039 l 1,6,-1
 970 207 l 1,7,-1
 1375 1039 l 1,8,-1
 1543 1039 l 1,9,-1
 1011 0 l 1,10,-1
 859 0 l 1,11,-1
 815 843 l 1,12,-1
 371 -1 l 1,0,-1
EndSplineSet
EndChar

StartChar: x
Encoding: 120 120 91
Width: 969
GlyphClass: 1
Flags: W
LayerCount: 2
Fore
SplineSet
790 0 m 1,0,-1
 610 0 l 1,1,-1
 460 393 l 1,2,-1
 124 0 l 1,3,-1
 -71 0 l 1,4,-1
 402 524 l 1,5,-1
 174 1039 l 1,6,-1
 358 1039 l 1,7,-1
 510 654 l 1,8,-1
 844 1039 l 1,9,-1
 1035 1039 l 1,10,-1
 567 524 l 1,11,-1
 790 0 l 1,0,-1
EndSplineSet
EndChar

StartChar: y
Encoding: 121 121 92
Width: 1026
GlyphClass: 1
Flags: W
LayerCount: 2
Fore
SplineSet
205 -430 m 1,0,-1
 37 -430 l 1,1,-1
 323 17 l 1,2,-1
 162 1039 l 1,3,-1
 332 1039 l 1,4,-1
 438 199 l 1,5,-1
 932 1039 l 1,6,-1
 1104 1039 l 1,7,-1
 205 -430 l 1,0,-1
EndSplineSet
EndChar

StartChar: z
Encoding: 122 122 93
Width: 976
GlyphClass: 1
Flags: W
LayerCount: 2
Fore
SplineSet
771 0 m 1,0,-1
 -47 0 l 1,1,-1
 -23 113 l 1,2,-1
 794 917 l 1,3,-1
 193 917 l 1,4,-1
 222 1039 l 1,5,-1
 1009 1039 l 1,6,-1
 983 916 l 1,7,-1
 181 128 l 1,8,-1
 801 128 l 1,9,-1
 771 0 l 1,0,-1
EndSplineSet
EndChar

StartChar: braceleft
Encoding: 123 123 94
Width: 604
GlyphClass: 1
Flags: W
LayerCount: 2
Fore
SplineSet
342 -120 m 1,0,-1
 270 -120 l 2,1,2
 171 -120 171 -120 137 -26 c 1,3,4
 120 -8 120 -8 120 35 c 0,5,6
 120 70 120 70 130 113 c 0,7,8
 217 493 217 493 217 500 c 0,9,10
 217 534 217 534 189.5 556.5 c 128,-1,11
 162 579 162 579 116 596 c 1,12,-1
 131 712 l 1,13,14
 276 749 276 749 305 869 c 2,15,-1
 403 1297 l 2,16,17
 427 1405 427 1405 486.5 1454.5 c 128,-1,18
 546 1504 546 1504 654 1504 c 0,19,20
 730 1504 730 1504 754 1503 c 1,21,-1
 746 1415 l 1,22,23
 725 1419 725 1419 689 1419 c 0,24,25
 631 1419 631 1419 595 1400 c 128,-1,26
 559 1381 559 1381 551 1349 c 2,27,-1
 435 843 l 1,28,29
 408 706 408 706 208 639 c 1,30,31
 278 613 278 613 315 579.5 c 128,-1,32
 352 546 352 546 352 499 c 0,33,34
 352 487 352 487 264 106 c 0,35,36
 257 77 257 77 257 50 c 0,37,38
 257 -36 257 -36 349 -36 c 0,39,40
 373 -36 373 -36 402 -27 c 1,41,-1
 392 -119 l 1,42,-1
 342 -120 l 1,0,-1
EndSplineSet
EndChar

StartChar: bar
Encoding: 124 124 95
Width: 628
GlyphClass: 1
Flags: W
LayerCount: 2
Fore
SplineSet
135 -512 m 1,0,-1
 25 -512 l 1,1,-1
 498 1534 l 1,2,-1
 608 1534 l 1,3,-1
 135 -512 l 1,0,-1
EndSplineSet
EndChar

StartChar: braceright
Encoding: 125 125 96
Width: 604
GlyphClass: 1
Flags: W
LayerCount: 2
Fore
SplineSet
61 -120 m 2,0,-1
 -11 -120 l 1,1,-1
 -62 -119 l 1,2,-1
 -54 -31 l 1,3,4
 -35 -36 -35 -36 -20 -36 c 0,5,6
 123 -36 123 -36 162 120 c 2,7,-1
 245 484 l 1,8,9
 265 591 265 591 462 650 c 1,10,11
 325 707 325 707 325 809 c 0,12,13
 325 831 325 831 331 856 c 0,14,15
 448 1363 448 1363 450 1378 c 0,16,17
 450 1419 450 1419 377 1419 c 0,18,19
 330 1419 330 1419 292 1412 c 1,20,-1
 300 1503 l 1,21,22
 328 1504 328 1504 401 1504 c 0,23,24
 576 1504 576 1504 576 1359 c 0,25,26
 576 1328 576 1328 566 1283 c 2,27,-1
 467 855 l 2,28,29
 461 831 461 831 461 811 c 0,30,31
 461 733 461 733 557 707 c 1,32,-1
 543 591 l 1,33,34
 484 573 484 573 436.5 542 c 128,-1,35
 389 511 389 511 377 466 c 2,36,-1
 292 99 l 2,37,38
 268 -7 268 -7 233 -52 c 1,39,40
 191 -87 191 -87 151.5 -103.5 c 128,-1,41
 112 -120 112 -120 61 -120 c 2,0,-1
EndSplineSet
EndChar

StartChar: asciitilde
Encoding: 126 126 97
Width: 1167
GlyphClass: 1
Flags: W
LayerCount: 2
Fore
SplineSet
742 379 m 0,0,1
 684 379 684 379 640 405 c 128,-1,2
 596 431 596 431 545 477 c 0,3,4
 501 516 501 516 472 534 c 128,-1,5
 443 552 443 552 408 552 c 0,6,7
 313 552 313 552 313 415 c 2,8,-1
 313 406 l 1,9,-1
 213 406 l 1,10,11
 213 516 213 516 262.5 583.5 c 128,-1,12
 312 651 312 651 406 651 c 0,13,14
 457 651 457 651 496 637 c 128,-1,15
 535 623 535 623 562.5 602.5 c 128,-1,16
 590 582 590 582 623 551 c 0,17,18
 661 517 661 517 687.5 500 c 128,-1,19
 714 483 714 483 748 483 c 0,20,21
 804 483 804 483 826 524.5 c 128,-1,22
 848 566 848 566 848 645 c 1,23,-1
 956 645 l 1,24,25
 956 518 956 518 901 448.5 c 128,-1,26
 846 379 846 379 742 379 c 0,0,1
EndSplineSet
EndChar

StartChar: exclamdown
Encoding: 161 161 99
Width: 635
GlyphClass: 1
Flags: W
LayerCount: 2
Fore
SplineSet
485 806 m 1,0,-1
 289 806 l 1,1,-1
 333 999 l 1,2,-1
 529 999 l 1,3,-1
 485 806 l 1,0,-1
186 -436 m 1,4,-1
 14 -436 l 1,5,-1
 288 619 l 1,6,-1
 401 619 l 1,7,-1
 186 -436 l 1,4,-1
EndSplineSet
EndChar

StartChar: cent
Encoding: 162 162 100
Width: 1144
GlyphClass: 1
Flags: W
LayerCount: 2
Fore
SplineSet
497 -205 m 1,0,-1
 385 -205 l 1,1,-1
 437 -15 l 1,2,3
 291 5 291 5 222 105.5 c 128,-1,4
 153 206 153 206 153 349 c 0,5,6
 153 443 153 443 182 548 c 128,-1,7
 211 653 211 653 269 748 c 0,8,9
 332 852 332 852 431 924 c 128,-1,10
 530 996 530 996 662 1013 c 1,11,-1
 711 1200 l 1,12,-1
 821 1200 l 1,13,-1
 772 1012 l 1,14,15
 887 996 887 996 958.5 925 c 128,-1,16
 1030 854 1030 854 1053 747 c 1,17,-1
 897 700 l 1,18,19
 892 787 892 787 839 831.5 c 128,-1,20
 786 876 786 876 705 876 c 0,21,22
 608 876 608 876 534 824.5 c 128,-1,23
 460 773 460 773 409.5 692.5 c 128,-1,24
 359 612 359 612 333 520.5 c 128,-1,25
 307 429 307 429 307 349 c 0,26,27
 307 246 307 246 354.5 183 c 128,-1,28
 402 120 402 120 507 120 c 0,29,30
 599 120 599 120 679.5 172 c 128,-1,31
 760 224 760 224 803 309 c 1,32,-1
 927 238 l 1,33,34
 786 6 786 6 544 -18 c 1,35,-1
 497 -205 l 1,0,-1
EndSplineSet
EndChar

StartChar: sterling
Encoding: 163 163 101
Width: 1244
GlyphClass: 1
Flags: W
LayerCount: 2
Fore
SplineSet
1065 0 m 1,0,-1
 49 0 l 1,1,-1
 74 111 l 1,2,3
 320 272 320 272 380 430 c 0,4,5
 417 519 417 519 417 641 c 1,6,-1
 197 641 l 1,7,-1
 228 767 l 1,8,-1
 417 767 l 1,9,10
 407 823 407 823 407 883 c 0,11,12
 407 1022 407 1022 464 1148.5 c 128,-1,13
 521 1275 521 1275 634 1357 c 0,14,15
 741 1433 741 1433 879 1433 c 0,16,17
 974 1433 974 1433 1045 1393 c 128,-1,18
 1116 1353 1116 1353 1159.5 1287 c 128,-1,19
 1203 1221 1203 1221 1214 1141 c 1,20,-1
 1085 1108 l 1,21,22
 1072 1198 1072 1198 1013 1249 c 128,-1,23
 954 1300 954 1300 872 1300 c 0,24,25
 764 1300 764 1300 688.5 1239 c 128,-1,26
 613 1178 613 1178 573.5 1079.5 c 128,-1,27
 534 981 534 981 534 868 c 0,28,29
 534 812 534 812 542 767 c 1,30,-1
 1017 767 l 1,31,-1
 987 641 l 1,32,-1
 544 641 l 1,33,34
 544 459 544 459 480.5 336 c 128,-1,35
 417 213 417 213 285 129 c 1,36,-1
 1095 133 l 1,37,-1
 1065 0 l 1,0,-1
EndSplineSet
EndChar

StartChar: currency
Encoding: 164 164 102
Width: 1131
GlyphClass: 1
Flags: W
LayerCount: 2
Fore
SplineSet
863 167 m 1,0,-1
 783 267 l 1,1,2
 650 181 650 181 508 181 c 0,3,4
 360 181 360 181 254 276 c 1,5,-1
 122 167 l 1,6,-1
 48 264 l 1,7,-1
 181 372 l 1,8,9
 140 451 140 451 140 544 c 0,10,11
 140 633 140 633 179 726.5 c 128,-1,12
 218 820 218 820 298 899 c 1,13,-1
 220 995 l 1,14,-1
 331 1094 l 1,15,-1
 410 992 l 1,16,17
 478 1036 478 1036 549.5 1057.5 c 128,-1,18
 621 1079 621 1079 688 1079 c 0,19,20
 759 1079 759 1079 823.5 1055.5 c 128,-1,21
 888 1032 888 1032 938 985 c 1,22,-1
 1068 1092 l 1,23,-1
 1143 999 l 1,24,-1
 1015 892 l 1,25,26
 1055 816 1055 816 1055 722 c 0,27,28
 1055 629 1055 629 1015 534.5 c 128,-1,29
 975 440 975 440 896 360 c 1,30,-1
 975 264 l 1,31,-1
 863 167 l 1,0,-1
507 314 m 0,32,33
 570 314 570 314 638.5 340.5 c 128,-1,34
 707 367 707 367 769 418 c 0,35,36
 846 480 846 480 886.5 559.5 c 128,-1,37
 927 639 927 639 927 716 c 0,38,39
 927 791 927 791 894.5 842 c 128,-1,40
 862 893 862 893 807.5 919.5 c 128,-1,41
 753 946 753 946 688 946 c 0,42,43
 625 946 625 946 557.5 920.5 c 128,-1,44
 490 895 490 895 426 842 c 0,45,46
 348 780 348 780 308 699 c 128,-1,47
 268 618 268 618 268 541 c 0,48,49
 268 458 268 458 312 399 c 1,50,51
 350 356 350 356 400.5 335 c 128,-1,52
 451 314 451 314 507 314 c 0,32,33
EndSplineSet
EndChar

StartChar: yen
Encoding: 165 165 103
Width: 1316
GlyphClass: 1
Flags: W
LayerCount: 2
Fore
SplineSet
615 0 m 1,0,-1
 471 0 l 1,1,-1
 539 296 l 1,2,-1
 240 296 l 1,3,-1
 267 413 l 1,4,-1
 566 413 l 1,5,-1
 594 532 l 1,6,-1
 295 532 l 1,7,-1
 322 648 l 1,8,-1
 568 648 l 1,9,-1
 270 1413 l 1,10,-1
 433 1413 l 1,11,-1
 704 712 l 1,12,-1
 1302 1413 l 1,13,-1
 1472 1413 l 1,14,-1
 821 649 l 1,15,-1
 1065 649 l 1,16,-1
 1038 532 l 1,17,-1
 738 532 l 1,18,-1
 709 413 l 1,19,-1
 1010 413 l 1,20,-1
 983 296 l 1,21,-1
 683 296 l 1,22,-1
 615 0 l 1,0,-1
EndSplineSet
EndChar

StartChar: brokenbar
Encoding: 166 166 104
Width: 625
GlyphClass: 1
Flags: W
LayerCount: 2
Fore
SplineSet
419 731 m 1,0,-1
 312 731 l 1,1,-1
 484 1475 l 1,2,-1
 591 1475 l 1,3,-1
 419 731 l 1,0,-1
180 -307 m 1,4,-1
 72 -307 l 1,5,-1
 240 420 l 1,6,-1
 348 420 l 1,7,-1
 180 -307 l 1,4,-1
EndSplineSet
EndChar

StartChar: section
Encoding: 167 167 105
Width: 1130
GlyphClass: 1
Flags: W
LayerCount: 2
Fore
SplineSet
463 -18 m 0,0,1
 314 -18 314 -18 217 53.5 c 128,-1,2
 120 125 120 125 110 272 c 1,3,-1
 255 305 l 1,4,5
 256 205 256 205 309.5 159 c 128,-1,6
 363 113 363 113 473 113 c 0,7,8
 577 113 577 113 658 154 c 128,-1,9
 739 195 739 195 761 292 c 0,10,11
 764 307 764 307 764 320 c 0,12,13
 764 359 764 359 736 383 c 128,-1,14
 708 407 708 407 666 420 c 128,-1,15
 624 433 624 433 552 448 c 0,16,17
 454 469 454 469 395.5 491.5 c 128,-1,18
 337 514 337 514 300 555 c 0,19,20
 258 598 258 598 258 671 c 0,21,22
 258 711 258 711 272 759 c 0,23,24
 306 872 306 872 418 954 c 1,25,26
 357 1003 357 1003 357 1095 c 0,27,28
 357 1125 357 1125 364 1153 c 0,29,30
 400 1290 400 1290 518 1362 c 128,-1,31
 636 1434 636 1434 766 1434 c 0,32,33
 901 1434 901 1434 983 1367.5 c 128,-1,34
 1065 1301 1065 1301 1085 1179 c 1,35,-1
 944 1147 l 1,36,37
 936 1304 936 1304 755 1304 c 0,38,39
 665 1304 665 1304 588 1256.5 c 128,-1,40
 511 1209 511 1209 489 1121 c 0,41,42
 486 1108 486 1108 486 1096 c 0,43,44
 486 1059 486 1059 513 1037 c 128,-1,45
 540 1015 540 1015 580.5 1003 c 128,-1,46
 621 991 621 991 691 976 c 0,47,48
 790 955 790 955 850.5 932.5 c 128,-1,49
 911 910 911 910 950 869 c 0,50,51
 993 824 993 824 993 747 c 0,52,53
 993 715 993 715 984 674 c 0,54,55
 953 546 953 546 839 465 c 1,56,57
 896 417 896 417 896 329 c 0,58,59
 896 294 896 294 888 262 c 0,60,61
 864 164 864 164 800 102 c 128,-1,62
 736 40 736 40 647 11 c 128,-1,63
 558 -18 558 -18 463 -18 c 0,0,1
696 532 m 1,64,65
 833 588 833 588 858 708 c 0,66,67
 861 723 861 723 861 737 c 0,68,69
 861 784 861 784 826 813 c 0,70,71
 768 860 768 860 624 883 c 1,72,-1
 564 895 l 1,73,74
 427 840 427 840 394 716 c 0,75,76
 391 703 391 703 391 691 c 0,77,78
 391 589 391 589 628 547 c 0,79,80
 674 538 674 538 696 532 c 1,64,65
EndSplineSet
EndChar

StartChar: dieresis
Encoding: 168 168 106
Width: 835
GlyphClass: 1
Flags: W
LayerCount: 2
Fore
SplineSet
511 1221 m 1,0,-1
 343 1221 l 1,1,-1
 387 1413 l 1,2,-1
 556 1413 l 1,3,-1
 511 1221 l 1,0,-1
848 1221 m 1,4,-1
 679 1221 l 1,5,-1
 723 1413 l 1,6,-1
 892 1413 l 1,7,-1
 848 1221 l 1,4,-1
EndSplineSet
EndChar

StartChar: copyright
Encoding: 169 169 107
Width: 1801
GlyphClass: 1
Flags: W
LayerCount: 2
Fore
SplineSet
948 -51 m 0,0,1
 805 -51 805 -51 680.5 -2.5 c 128,-1,2
 556 46 556 46 458.5 130.5 c 128,-1,3
 361 215 361 215 296 327 c 0,4,5
 195 501 195 501 195 707 c 0,6,7
 195 850 195 850 243 975 c 128,-1,8
 291 1100 291 1100 375 1198 c 128,-1,9
 459 1296 459 1296 570 1362 c 0,10,11
 743 1464 743 1464 948 1464 c 0,12,13
 1090 1464 1090 1464 1214 1415.5 c 128,-1,14
 1338 1367 1338 1367 1435.5 1282.5 c 128,-1,15
 1533 1198 1533 1198 1599 1086 c 0,16,17
 1700 912 1700 912 1700 707 c 0,18,19
 1700 563 1700 563 1652 438 c 128,-1,20
 1604 313 1604 313 1519.5 215 c 128,-1,21
 1435 117 1435 117 1325 51 c 0,22,23
 1152 -51 1152 -51 948 -51 c 0,0,1
948 69 m 0,24,25
 1065 69 1065 69 1169 110.5 c 128,-1,26
 1273 152 1273 152 1355.5 224 c 128,-1,27
 1438 296 1438 296 1494 391 c 0,28,29
 1580 537 1580 537 1580 707 c 0,30,31
 1580 825 1580 825 1539 929.5 c 128,-1,32
 1498 1034 1498 1034 1426.5 1117 c 128,-1,33
 1355 1200 1355 1200 1262 1257 c 0,34,35
 1116 1344 1116 1344 948 1344 c 0,36,37
 830 1344 830 1344 726 1302.5 c 128,-1,38
 622 1261 622 1261 539 1189 c 128,-1,39
 456 1117 456 1117 401 1023 c 0,40,41
 314 876 314 876 314 707 c 0,42,43
 314 588 314 588 355 483.5 c 128,-1,44
 396 379 396 379 467.5 296 c 128,-1,45
 539 213 539 213 633 157 c 0,46,47
 779 69 779 69 948 69 c 0,24,25
964 300 m 0,48,49
 848 300 848 300 769 354.5 c 128,-1,50
 690 409 690 409 650.5 500.5 c 128,-1,51
 611 592 611 592 611 705 c 0,52,53
 611 814 611 814 649.5 906 c 128,-1,54
 688 998 688 998 766 1053.5 c 128,-1,55
 844 1109 844 1109 964 1109 c 0,56,57
 1062 1109 1062 1109 1144 1061.5 c 128,-1,58
 1226 1014 1226 1014 1271 919 c 1,59,-1
 1162 873 l 1,60,61
 1132 932 1132 932 1080 961 c 128,-1,62
 1028 990 1028 990 964 990 c 0,63,64
 883 990 883 990 830.5 951 c 128,-1,65
 778 912 778 912 752.5 847 c 128,-1,66
 727 782 727 782 727 705 c 0,67,68
 727 630 727 630 751.5 565 c 128,-1,69
 776 500 776 500 828 460.5 c 128,-1,70
 880 421 880 421 962 421 c 0,71,72
 1026 421 1026 421 1078.5 450.5 c 128,-1,73
 1131 480 1131 480 1160 539 c 1,74,-1
 1271 492 l 1,75,76
 1225 396 1225 396 1144.5 348 c 128,-1,77
 1064 300 1064 300 964 300 c 0,48,49
EndSplineSet
EndChar

StartChar: ordfeminine
Encoding: 170 170 108
Width: 981
GlyphClass: 2
Flags: W
LayerCount: 2
Fore
SplineSet
466 709 m 256,0,1
 383 709 383 709 326.5 754.5 c 128,-1,2
 270 800 270 800 270 882 c 0,3,4
 270 941 270 941 298.5 996 c 128,-1,5
 327 1051 327 1051 379 1083 c 0,6,7
 457 1129 457 1129 577 1129 c 2,8,-1
 796 1136 l 1,9,10
 807 1185 807 1185 807 1219 c 0,11,12
 807 1336 807 1336 681 1336 c 0,13,14
 618 1336 618 1336 562 1304 c 128,-1,15
 506 1272 506 1272 468 1228 c 1,16,-1
 385 1298 l 1,17,18
 512 1434 512 1434 684 1434 c 0,19,20
 802 1434 802 1434 859 1376 c 128,-1,21
 916 1318 916 1318 916 1227 c 0,22,23
 916 1186 916 1186 906 1145 c 2,24,-1
 808 723 l 1,25,-1
 711 723 l 1,26,-1
 734 833 l 1,27,28
 677 770 677 770 613 739.5 c 128,-1,29
 549 709 549 709 466 709 c 256,0,1
492 810 m 0,30,31
 558 810 558 810 617.5 845 c 128,-1,32
 677 880 677 880 718.5 932 c 128,-1,33
 760 984 760 984 774 1039 c 1,34,-1
 575 1032 l 2,35,36
 513 1032 513 1032 461 999 c 0,37,38
 400 960 400 960 392 887 c 0,39,40
 392 851 392 851 423 830.5 c 128,-1,41
 454 810 454 810 492 810 c 0,30,31
EndSplineSet
EndChar

StartChar: guillemotleft
Encoding: 171 171 109
Width: 972
GlyphClass: 1
Flags: W
LayerCount: 2
Fore
SplineSet
368 185 m 1,0,-1
 72 512 l 1,1,-1
 515 837 l 1,2,-1
 481 675 l 1,3,-1
 248 512 l 1,4,-1
 402 347 l 1,5,-1
 368 185 l 1,0,-1
732 185 m 1,6,-1
 435 512 l 1,7,-1
 879 837 l 1,8,-1
 845 675 l 1,9,-1
 611 512 l 1,10,-1
 766 347 l 1,11,-1
 732 185 l 1,6,-1
EndSplineSet
EndChar

StartChar: logicalnot
Encoding: 172 172 110
Width: 1292
GlyphClass: 1
Flags: W
LayerCount: 2
Fore
SplineSet
1036 291 m 1,0,-1
 896 291 l 1,1,-1
 896 663 l 1,2,-1
 158 663 l 1,3,-1
 158 797 l 1,4,-1
 1036 797 l 1,5,-1
 1036 291 l 1,0,-1
EndSplineSet
EndChar

StartChar: uni00AD
Encoding: 173 173 111
Width: 982
GlyphClass: 1
Flags: W
LayerCount: 2
Fore
SplineSet
838 578 m 1,0,-1
 181 578 l 1,1,-1
 208 692 l 1,2,-1
 864 692 l 1,3,-1
 838 578 l 1,0,-1
EndSplineSet
EndChar

StartChar: registered
Encoding: 174 174 112
Width: 1801
GlyphClass: 1
Flags: W
LayerCount: 2
Fore
SplineSet
949 -49 m 0,0,1
 806 -49 806 -49 682 -0.5 c 128,-1,2
 558 48 558 48 460.5 132.5 c 128,-1,3
 363 217 363 217 298 329 c 0,4,5
 197 503 197 503 197 709 c 0,6,7
 197 852 197 852 245 977 c 128,-1,8
 293 1102 293 1102 377 1200 c 128,-1,9
 461 1298 461 1298 572 1364 c 0,10,11
 745 1466 745 1466 949 1466 c 0,12,13
 1092 1466 1092 1466 1216 1417.5 c 128,-1,14
 1340 1369 1340 1369 1437.5 1284.5 c 128,-1,15
 1535 1200 1535 1200 1600 1088 c 0,16,17
 1701 914 1701 914 1701 709 c 0,18,19
 1701 565 1701 565 1653 440 c 128,-1,20
 1605 315 1605 315 1521 217 c 128,-1,21
 1437 119 1437 119 1326 53 c 0,22,23
 1153 -49 1153 -49 949 -49 c 0,0,1
949 63 m 0,24,25
 1069 63 1069 63 1174.5 104.5 c 128,-1,26
 1280 146 1280 146 1363.5 218.5 c 128,-1,27
 1447 291 1447 291 1503 387 c 0,28,29
 1590 536 1590 536 1590 709 c 0,30,31
 1590 830 1590 830 1548.5 936 c 128,-1,32
 1507 1042 1507 1042 1435 1126 c 128,-1,33
 1363 1210 1363 1210 1269 1267 c 0,34,35
 1121 1355 1121 1355 949 1355 c 0,36,37
 829 1355 829 1355 723.5 1313.5 c 128,-1,38
 618 1272 618 1272 534.5 1199 c 128,-1,39
 451 1126 451 1126 395 1031 c 0,40,41
 307 882 307 882 307 709 c 0,42,43
 307 588 307 588 348.5 481.5 c 128,-1,44
 390 375 390 375 462.5 291 c 128,-1,45
 535 207 535 207 630 151 c 0,46,47
 777 63 777 63 949 63 c 0,24,25
1300 304 m 1,48,-1
 1158 304 l 1,49,-1
 981 637 l 1,50,-1
 823 637 l 1,51,-1
 823 304 l 1,52,-1
 701 304 l 1,53,-1
 701 1099 l 1,54,-1
 1003 1099 l 2,55,56
 1139 1099 1139 1099 1201.5 1037 c 128,-1,57
 1264 975 1264 975 1264 867 c 0,58,59
 1264 801 1264 801 1242 756 c 128,-1,60
 1220 711 1220 711 1183 684.5 c 128,-1,61
 1146 658 1146 658 1099 649 c 1,62,-1
 1300 304 l 1,48,-1
1003 747 m 2,63,64
 1153 747 1153 747 1153 867 c 0,65,66
 1153 931 1153 931 1116 959.5 c 128,-1,67
 1079 988 1079 988 1003 988 c 2,68,-1
 813 988 l 1,69,-1
 813 747 l 1,70,-1
 1003 747 l 2,63,64
EndSplineSet
EndChar

StartChar: macron
Encoding: 175 175 113
Width: 870
GlyphClass: 1
Flags: W
LayerCount: 2
Fore
SplineSet
956 1183 m 1,0,-1
 415 1183 l 1,1,-1
 444 1308 l 1,2,-1
 985 1308 l 1,3,-1
 956 1183 l 1,0,-1
EndSplineSet
EndChar

StartChar: degree
Encoding: 176 176 114
Width: 967
GlyphClass: 1
Flags: W
LayerCount: 2
Fore
SplineSet
483 848 m 0,0,1
 398 848 398 848 332 889 c 128,-1,2
 266 930 266 930 228 997 c 128,-1,3
 190 1064 190 1064 190 1141 c 0,4,5
 190 1227 190 1227 231.5 1293 c 128,-1,6
 273 1359 273 1359 340 1396.5 c 128,-1,7
 407 1434 407 1434 483 1434 c 0,8,9
 567 1434 567 1434 633 1393 c 128,-1,10
 699 1352 699 1352 737 1285.5 c 128,-1,11
 775 1219 775 1219 775 1141 c 0,12,13
 775 1056 775 1056 734 990 c 128,-1,14
 693 924 693 924 626.5 886 c 128,-1,15
 560 848 560 848 483 848 c 0,0,1
483 941 m 0,16,17
 570 941 570 941 626 1002 c 128,-1,18
 682 1063 682 1063 682 1141 c 0,19,20
 682 1199 682 1199 653.5 1244 c 128,-1,21
 625 1289 625 1289 579.5 1314.5 c 128,-1,22
 534 1340 534 1340 483 1340 c 0,23,24
 398 1340 398 1340 341 1280 c 128,-1,25
 284 1220 284 1220 284 1141 c 0,26,27
 284 1055 284 1055 344 998 c 128,-1,28
 404 941 404 941 483 941 c 0,16,17
EndSplineSet
EndChar

StartChar: plusminus
Encoding: 177 177 115
Width: 1326
GlyphClass: 1
Flags: W
LayerCount: 2
Fore
SplineSet
720 106 m 1,0,-1
 606 106 l 1,1,-1
 606 569 l 1,2,-1
 150 569 l 1,3,-1
 150 682 l 1,4,-1
 606 682 l 1,5,-1
 606 1143 l 1,6,-1
 720 1143 l 1,7,-1
 720 682 l 1,8,-1
 1177 682 l 1,9,-1
 1177 569 l 1,10,-1
 720 569 l 1,11,-1
 720 106 l 1,0,-1
1176 -114 m 1,12,-1
 150 -114 l 1,13,-1
 150 0 l 1,14,-1
 1176 0 l 1,15,-1
 1176 -114 l 1,12,-1
EndSplineSet
EndChar

StartChar: twosuperior
Encoding: 178 178 116
Width: 805
GlyphClass: 2
Flags: W
LayerCount: 2
Fore
SplineSet
643 486 m 1,0,-1
 -8 486 l 1,1,-1
 11 594 l 1,2,3
 231 712 231 712 383 844 c 1,4,5
 496 933 496 933 561 1009.5 c 128,-1,6
 626 1086 626 1086 645 1171 c 0,7,8
 651 1194 651 1194 651 1224 c 0,9,10
 651 1278 651 1278 619.5 1306.5 c 128,-1,11
 588 1335 588 1335 529 1335 c 0,12,13
 441 1335 441 1335 374.5 1273.5 c 128,-1,14
 308 1212 308 1212 278 1110 c 1,15,-1
 178 1129 l 1,16,17
 201 1227 201 1227 252.5 1297.5 c 128,-1,18
 304 1368 304 1368 378.5 1404.5 c 128,-1,19
 453 1441 453 1441 541 1441 c 0,20,21
 615 1441 615 1441 667.5 1416.5 c 128,-1,22
 720 1392 720 1392 747.5 1347 c 128,-1,23
 775 1302 775 1302 775 1240 c 0,24,25
 775 1206 775 1206 766 1166 c 0,26,27
 742 1069 742 1069 665 976.5 c 128,-1,28
 588 884 588 884 448 770 c 1,29,30
 355 700 355 700 297.5 663.5 c 128,-1,31
 240 627 240 627 176 593 c 2,32,-1
 160 584 l 1,33,-1
 664 587 l 1,34,-1
 643 486 l 1,0,-1
EndSplineSet
EndChar

StartChar: threesuperior
Encoding: 179 179 117
Width: 823
GlyphClass: 2
Flags: W
LayerCount: 2
Fore
SplineSet
326 466 m 0,0,1
 247 466 247 466 183.5 490 c 128,-1,2
 120 514 120 514 83.5 562.5 c 128,-1,3
 47 611 47 611 47 684 c 0,4,5
 47 719 47 719 57 756 c 1,6,-1
 166 756 l 1,7,8
 160 735 160 735 160 711 c 0,9,10
 160 641 160 641 210.5 605.5 c 128,-1,11
 261 570 261 570 335 570 c 0,12,13
 425 570 425 570 504 620.5 c 128,-1,14
 583 671 583 671 609 764 c 0,15,16
 614 785 614 785 614 808 c 0,17,18
 614 873 614 873 566 903 c 128,-1,19
 518 933 518 933 445 933 c 2,20,-1
 377 933 l 1,21,-1
 399 1039 l 1,22,-1
 460 1039 l 2,23,24
 532 1039 532 1039 587 1080 c 128,-1,25
 642 1121 642 1121 662 1195 c 0,26,27
 667 1213 667 1213 667 1232 c 0,28,29
 667 1286 667 1286 628.5 1313.5 c 128,-1,30
 590 1341 590 1341 533 1341 c 0,31,32
 453 1341 453 1341 390 1296 c 128,-1,33
 327 1251 327 1251 306 1179 c 1,34,-1
 217 1199 l 1,35,36
 248 1320 248 1320 339.5 1384 c 128,-1,37
 431 1448 431 1448 546 1448 c 0,38,39
 649 1448 649 1448 713.5 1395.5 c 128,-1,40
 778 1343 778 1343 778 1254 c 0,41,42
 778 1172 778 1172 730 1102 c 128,-1,43
 682 1032 682 1032 596 991 c 1,44,45
 661 968 661 968 690.5 920.5 c 128,-1,46
 720 873 720 873 720 812 c 0,47,48
 720 757 720 757 698.5 698 c 128,-1,49
 677 639 677 639 634 591 c 0,50,51
 573 526 573 526 493 496 c 128,-1,52
 413 466 413 466 326 466 c 0,0,1
EndSplineSet
EndChar

StartChar: acute
Encoding: 180 180 118
Width: 537
GlyphClass: 1
Flags: W
LayerCount: 2
Fore
SplineSet
355 1124 m 1,0,-1
 216 1124 l 1,1,-1
 501 1413 l 1,2,-1
 698 1413 l 1,3,-1
 355 1124 l 1,0,-1
EndSplineSet
EndChar

StartChar: uni00B5
Encoding: 181 181 119
Width: 1348
GlyphClass: 1
Flags: W
LayerCount: 2
Fore
SplineSet
227 -266 m 1,0,-1
 85 -266 l 1,1,-1
 388 1039 l 1,2,-1
 551 1039 l 1,3,-1
 408 409 l 2,4,5
 390 333 390 333 390 279 c 0,6,7
 390 118 390 118 542 118 c 0,8,9
 634 118 634 118 717.5 167 c 128,-1,10
 801 216 801 216 860 292 c 128,-1,11
 919 368 919 368 939 449 c 2,12,-1
 1074 1039 l 1,13,-1
 1237 1039 l 1,14,-1
 998 0 l 1,15,-1
 835 0 l 1,16,-1
 877 164 l 1,17,18
 843 116 843 116 786.5 74 c 128,-1,19
 730 32 730 32 660 4.5 c 128,-1,20
 590 -23 590 -23 516 -23 c 0,21,22
 408 -23 408 -23 326 32 c 1,23,-1
 227 -266 l 1,0,-1
EndSplineSet
EndChar

StartChar: paragraph
Encoding: 182 182 120
Width: 1358
GlyphClass: 1
Flags: W
LayerCount: 2
Fore
SplineSet
541 -246 m 1,0,-1
 405 -246 l 1,1,-1
 612 623 l 1,2,3
 512 623 512 623 426.5 660 c 128,-1,4
 341 697 341 697 289 767.5 c 128,-1,5
 237 838 237 838 237 940 c 0,6,7
 237 1024 237 1024 269.5 1101 c 128,-1,8
 302 1178 302 1178 356 1236 c 0,9,10
 443 1326 443 1326 555.5 1369.5 c 128,-1,11
 668 1413 668 1413 782 1413 c 2,12,-1
 924 1413 l 1,13,-1
 541 -246 l 1,0,-1
909 -246 m 1,14,-1
 773 -246 l 1,15,-1
 1156 1413 l 1,16,-1
 1292 1413 l 1,17,-1
 909 -246 l 1,14,-1
EndSplineSet
EndChar

StartChar: periodcentered
Encoding: 183 183 121
Width: 651
GlyphClass: 1
Flags: W
LayerCount: 2
Fore
SplineSet
382 699 m 0,0,1
 334 699 334 699 304.5 730 c 128,-1,2
 275 761 275 761 275 806 c 0,3,4
 275 869 275 869 319.5 908.5 c 128,-1,5
 364 948 364 948 417 948 c 0,6,7
 466 948 466 948 496 918.5 c 128,-1,8
 526 889 526 889 526 841 c 0,9,10
 526 831 526 831 522 809 c 0,11,12
 510 762 510 762 470.5 730.5 c 128,-1,13
 431 699 431 699 382 699 c 0,0,1
EndSplineSet
EndChar

StartChar: cedilla
Encoding: 184 184 122
Width: 562
GlyphClass: 4
Flags: W
AnchorPoint: "Anchor-3" 37 -500 basemark 0
LayerCount: 2
Fore
SplineSet
44 -504 m 0,0,1
 -22 -504 -22 -504 -65 -465.5 c 128,-1,2
 -108 -427 -108 -427 -119 -373 c 1,3,-1
 -12 -336 l 1,4,-1
 -12 -341 l 2,5,6
 -12 -366 -12 -366 4.5 -383.5 c 128,-1,7
 21 -401 21 -401 52 -401 c 0,8,9
 100 -401 100 -401 138 -369 c 128,-1,10
 176 -337 176 -337 186 -291 c 0,11,12
 188 -284 188 -284 188 -271 c 0,13,14
 188 -232 188 -232 150.5 -206 c 128,-1,15
 113 -180 113 -180 36 -180 c 2,16,-1
 -12 -180 l 1,17,-1
 122 0 l 1,18,-1
 245 0 l 1,19,-1
 141 -117 l 1,20,21
 217 -120 217 -120 256 -160 c 128,-1,22
 295 -200 295 -200 295 -262 c 0,23,24
 295 -338 295 -338 243 -405 c 0,25,26
 208 -449 208 -449 157 -476.5 c 128,-1,27
 106 -504 106 -504 44 -504 c 0,0,1
EndSplineSet
EndChar

StartChar: onesuperior
Encoding: 185 185 123
Width: 832
GlyphClass: 2
Flags: W
LayerCount: 2
Fore
SplineSet
438 486 m 1,0,-1
 319 486 l 1,1,-1
 502 1196 l 1,2,-1
 264 1196 l 1,3,-1
 300 1295 l 1,4,-1
 410 1295 l 2,5,6
 468 1295 468 1295 508 1330 c 128,-1,7
 548 1365 548 1365 559 1415 c 2,8,-1
 562 1428 l 1,9,-1
 682 1428 l 1,10,-1
 438 486 l 1,0,-1
EndSplineSet
EndChar

StartChar: ordmasculine
Encoding: 186 186 124
Width: 950
GlyphClass: 2
Flags: W
LayerCount: 2
Fore
SplineSet
536 711 m 0,0,1
 448 711 448 711 386.5 748 c 128,-1,2
 325 785 325 785 292.5 848.5 c 128,-1,3
 260 912 260 912 260 992 c 0,4,5
 260 1055 260 1055 282 1125.5 c 128,-1,6
 304 1196 304 1196 354 1262 c 0,7,8
 412 1339 412 1339 496 1386.5 c 128,-1,9
 580 1434 580 1434 680 1434 c 0,10,11
 768 1434 768 1434 829 1397 c 128,-1,12
 890 1360 890 1360 922 1296.5 c 128,-1,13
 954 1233 954 1233 954 1154 c 0,14,15
 954 1029 954 1029 888 922.5 c 128,-1,16
 822 816 822 816 716 758 c 0,17,18
 631 711 631 711 536 711 c 0,0,1
539 820 m 0,19,20
 648 820 648 820 720 896 c 128,-1,21
 792 972 792 972 818 1087 c 0,22,23
 829 1134 829 1134 829 1173 c 0,24,25
 829 1241 829 1241 794 1283.5 c 128,-1,26
 759 1326 759 1326 679 1326 c 0,27,28
 499 1326 499 1326 416 1126 c 0,29,30
 386 1053 386 1053 386 974 c 0,31,32
 386 905 386 905 421.5 862.5 c 128,-1,33
 457 820 457 820 539 820 c 0,19,20
EndSplineSet
EndChar

StartChar: guillemotright
Encoding: 187 187 125
Width: 973
GlyphClass: 1
Flags: W
LayerCount: 2
Fore
SplineSet
95 185 m 1,0,-1
 129 347 l 1,1,-1
 362 512 l 1,2,-1
 209 675 l 1,3,-1
 242 837 l 1,4,-1
 538 512 l 1,5,-1
 95 185 l 1,0,-1
458 185 m 1,6,-1
 492 347 l 1,7,-1
 725 512 l 1,8,-1
 571 675 l 1,9,-1
 605 837 l 1,10,-1
 902 512 l 1,11,-1
 458 185 l 1,6,-1
EndSplineSet
EndChar

StartChar: questiondown
Encoding: 191 191 126
Width: 1029
GlyphClass: 1
Flags: W
LayerCount: 2
Fore
SplineSet
687 806 m 1,0,-1
 492 806 l 1,1,-1
 536 999 l 1,2,-1
 732 999 l 1,3,-1
 687 806 l 1,0,-1
325 -434 m 0,4,5
 228 -434 228 -434 148.5 -403 c 128,-1,6
 69 -372 69 -372 22 -309 c 128,-1,7
 -25 -246 -25 -246 -25 -151 c 0,8,9
 -25 -81 -25 -81 -3.5 -17 c 128,-1,10
 18 47 18 47 49 89 c 0,11,12
 88 142 88 142 137.5 176.5 c 128,-1,13
 187 211 187 211 260 245 c 0,14,15
 338 284 338 284 379 317.5 c 128,-1,16
 420 351 420 351 432 405 c 2,17,-1
 483 623 l 1,18,-1
 619 623 l 1,19,-1
 566 389 l 2,20,21
 549 320 549 320 517 275.5 c 128,-1,22
 485 231 485 231 445 205 c 128,-1,23
 405 179 405 179 342 149 c 0,24,25
 252 106 252 106 197 56 c 128,-1,26
 142 6 142 6 121 -89 c 0,27,28
 114 -118 114 -118 114 -146 c 0,29,30
 114 -228 114 -228 173.5 -265 c 128,-1,31
 233 -302 233 -302 325 -302 c 0,32,33
 437 -302 437 -302 532.5 -237 c 128,-1,34
 628 -172 628 -172 661 -52 c 1,35,-1
 802 -66 l 1,36,37
 755 -246 755 -246 620 -340 c 128,-1,38
 485 -434 485 -434 325 -434 c 0,4,5
EndSplineSet
EndChar

StartChar: Aring
Encoding: 197 197 132
Width: 1316
GlyphClass: 1
Flags: W
LayerCount: 2
Fore
SplineSet
1131 0 m 1,0,-1
 975 0 l 1,1,-1
 938 307 l 1,2,-1
 306 307 l 1,3,-1
 127 0 l 1,4,-1
 -49 0 l 1,5,-1
 767 1339 l 1,6,7
 732 1359 732 1359 710.5 1396.5 c 128,-1,8
 689 1434 689 1434 689 1484 c 0,9,10
 689 1578 689 1578 761 1651 c 128,-1,11
 833 1724 833 1724 928 1724 c 0,12,13
 1003 1724 1003 1724 1052 1676 c 128,-1,14
 1101 1628 1101 1628 1101 1556 c 0,15,16
 1101 1491 1101 1491 1060.5 1430 c 128,-1,17
 1020 1369 1020 1369 946 1337 c 1,18,-1
 1131 0 l 1,0,-1
868 1418 m 1,19,20
 919 1418 919 1418 958.5 1456.5 c 128,-1,21
 998 1495 998 1495 998 1547 c 0,22,23
 998 1581 998 1581 976.5 1601 c 128,-1,24
 955 1621 955 1621 916 1621 c 256,25,26
 877 1621 877 1621 848.5 1601.5 c 128,-1,27
 820 1582 820 1582 804.5 1553 c 128,-1,28
 789 1524 789 1524 789 1494 c 0,29,30
 789 1425 789 1425 868 1418 c 1,19,20
918 452 m 1,31,-1
 830 1196 l 1,32,-1
 392 452 l 1,33,-1
 918 452 l 1,31,-1
EndSplineSet
Position2: "'cpsp' Capital Spacing lookup 0 per glyph data 0" dx=5 dy=0 dh=10 dv=0
EndChar

StartChar: AE
Encoding: 198 198 133
Width: 1825
GlyphClass: 1
Flags: W
LayerCount: 2
Fore
SplineSet
1597 0 m 1,0,-1
 694 0 l 1,1,-1
 764 307 l 1,2,-1
 300 307 l 1,3,-1
 118 0 l 1,4,-1
 -49 0 l 1,5,-1
 803 1413 l 1,6,-1
 1922 1413 l 1,7,-1
 1893 1284 l 1,8,-1
 1145 1284 l 1,9,-1
 1027 774 l 1,10,-1
 1687 774 l 1,11,-1
 1656 639 l 1,12,-1
 996 639 l 1,13,-1
 880 136 l 1,14,-1
 1628 136 l 1,15,-1
 1597 0 l 1,0,-1
797 448 m 1,16,-1
 990 1284 l 1,17,-1
 880 1284 l 1,18,-1
 381 448 l 1,19,-1
 797 448 l 1,16,-1
EndSplineSet
Position2: "'cpsp' Capital Spacing lookup 0 per glyph data 0" dx=5 dy=0 dh=10 dv=0
EndChar

StartChar: Eth
Encoding: 208 208 143
Width: 1430
GlyphClass: 1
Flags: W
LayerCount: 2
Fore
SplineSet
485 0 m 2,0,-1
 118 0 l 1,1,-1
 268 655 l 1,2,-1
 155 655 l 1,3,-1
 183 770 l 1,4,-1
 296 770 l 1,5,-1
 444 1413 l 1,6,-1
 802 1413 l 2,7,8
 1083 1413 1083 1413 1230 1285 c 128,-1,9
 1377 1157 1377 1157 1377 915 c 0,10,11
 1377 805 1377 805 1348 682 c 0,12,13
 1267 347 1267 347 1043 173.5 c 128,-1,14
 819 0 819 0 485 0 c 2,0,-1
483 147 m 2,15,16
 647 147 647 147 791.5 207 c 128,-1,17
 936 267 936 267 1041 394 c 128,-1,18
 1146 521 1146 521 1194 721 c 0,19,20
 1217 824 1217 824 1217 905 c 0,21,22
 1217 1268 1217 1268 776 1268 c 2,23,-1
 572 1268 l 1,24,-1
 457 770 l 1,25,-1
 838 770 l 1,26,-1
 810 655 l 1,27,-1
 429 655 l 1,28,-1
 312 147 l 1,29,-1
 483 147 l 2,15,16
EndSplineSet
Position2: "'cpsp' Capital Spacing lookup 0 per glyph data 0" dx=5 dy=0 dh=10 dv=0
EndChar

StartChar: multiply
Encoding: 215 215 150
Width: 1112
GlyphClass: 1
Flags: W
LayerCount: 2
Fore
SplineSet
884 217 m 1,0,-1
 558 544 l 1,1,-1
 234 221 l 1,2,-1
 153 301 l 1,3,-1
 476 625 l 1,4,-1
 150 950 l 1,5,-1
 231 1032 l 1,6,-1
 558 705 l 1,7,-1
 880 1028 l 1,8,-1
 961 948 l 1,9,-1
 638 625 l 1,10,-1
 964 299 l 1,11,-1
 884 217 l 1,0,-1
EndSplineSet
EndChar

StartChar: Oslash
Encoding: 216 216 151
Width: 1525
GlyphClass: 1
Flags: W
LayerCount: 2
Fore
SplineSet
652 -20 m 0,0,1
 474 -20 474 -20 355 55 c 1,2,-1
 311 0 l 1,3,-1
 178 0 l 1,4,-1
 275 122 l 1,5,6
 211 192 211 192 181 286.5 c 128,-1,7
 151 381 151 381 151 491 c 0,8,9
 151 634 151 634 197 790 c 128,-1,10
 243 946 243 946 331 1081 c 0,11,12
 437 1243 437 1243 599 1338.5 c 128,-1,13
 761 1434 761 1434 965 1434 c 0,14,15
 1144 1434 1144 1434 1263 1359 c 1,16,-1
 1306 1413 l 1,17,-1
 1438 1413 l 1,18,-1
 1343 1294 l 1,19,20
 1469 1157 1469 1157 1469 922 c 0,21,22
 1469 780 1469 780 1423 624 c 128,-1,23
 1377 468 1377 468 1289 333 c 0,24,25
 1183 171 1183 171 1020 75.5 c 128,-1,26
 857 -20 857 -20 652 -20 c 0,0,1
376 248 m 1,27,-1
 1165 1237 l 1,28,29
 1081 1287 1081 1287 953 1287 c 0,30,31
 789 1287 789 1287 661 1206 c 0,32,33
 526 1118 526 1118 444.5 983 c 128,-1,34
 363 848 363 848 328 692 c 0,35,36
 305 591 305 591 305 501 c 0,37,38
 305 342 305 342 376 248 c 1,27,-1
662 126 m 0,39,40
 830 126 830 126 960 208 c 0,41,42
 1095 294 1095 294 1177 428.5 c 128,-1,43
 1259 563 1259 563 1295 721 c 0,44,45
 1318 822 1318 822 1318 912 c 0,46,47
 1318 1073 1318 1073 1243 1168 c 1,48,-1
 453 177 l 1,49,50
 537 126 537 126 662 126 c 0,39,40
EndSplineSet
Position2: "'cpsp' Capital Spacing lookup 0 per glyph data 0" dx=5 dy=0 dh=10 dv=0
EndChar

StartChar: Thorn
Encoding: 222 222 157
Width: 1157
GlyphClass: 1
Flags: W
LayerCount: 2
Fore
SplineSet
260 0 m 1,0,-1
 100 0 l 1,1,-1
 426 1413 l 1,2,-1
 585 1413 l 1,3,-1
 539 1214 l 1,4,-1
 784 1214 l 2,5,6
 950 1214 950 1214 1049.5 1136 c 128,-1,7
 1149 1058 1149 1058 1149 911 c 0,8,9
 1149 867 1149 867 1136 805 c 0,10,11
 1090 623 1090 623 947 527.5 c 128,-1,12
 804 432 804 432 603 432 c 2,13,-1
 358 432 l 1,14,-1
 260 0 l 1,0,-1
625 579 m 2,15,16
 760 579 760 579 855 641 c 128,-1,17
 950 703 950 703 981 830 c 0,18,19
 989 865 989 865 989 893 c 0,20,21
 989 971 989 971 929.5 1015 c 128,-1,22
 870 1059 870 1059 748 1059 c 2,23,-1
 503 1059 l 1,24,-1
 392 579 l 1,25,-1
 625 579 l 2,15,16
EndSplineSet
Position2: "'cpsp' Capital Spacing lookup 0 per glyph data 0" dx=5 dy=0 dh=10 dv=0
EndChar

StartChar: germandbls
Encoding: 223 223 158
Width: 1209
GlyphClass: 1
Flags: W
LayerCount: 2
Fore
SplineSet
633 -18 m 0,0,1
 565 -18 565 -18 503 -1 c 128,-1,2
 441 16 441 16 370 50 c 1,3,-1
 457 185 l 1,4,5
 503 157 503 157 552 144 c 128,-1,6
 601 131 601 131 645 131 c 0,7,8
 723 131 723 131 798 181.5 c 128,-1,9
 873 232 873 232 893 308 c 0,10,11
 898 333 898 333 898 350 c 0,12,13
 898 397 898 397 872 437 c 128,-1,14
 846 477 846 477 791 530 c 0,15,16
 735 583 735 583 706 628.5 c 128,-1,17
 677 674 677 674 677 733 c 0,18,19
 677 764 677 764 686 796 c 128,-1,20
 695 828 695 828 715 854 c 128,-1,21
 735 880 735 880 763 900.5 c 128,-1,22
 791 921 791 921 835 947 c 0,23,24
 903 986 903 986 942.5 1024 c 128,-1,25
 982 1062 982 1062 995 1120 c 0,26,27
 1000 1142 1000 1142 1000 1158 c 0,28,29
 1000 1217 1000 1217 950 1257 c 128,-1,30
 900 1297 900 1297 802 1297 c 0,31,32
 672 1297 672 1297 573.5 1202 c 128,-1,33
 475 1107 475 1107 426 900 c 2,34,-1
 214 0 l 1,35,-1
 59 0 l 1,36,-1
 277 915 l 2,37,38
 342 1189 342 1189 480.5 1311.5 c 128,-1,39
 619 1434 619 1434 803 1434 c 0,40,41
 893 1434 893 1434 971.5 1399.5 c 128,-1,42
 1050 1365 1050 1365 1098.5 1301.5 c 128,-1,43
 1147 1238 1147 1238 1147 1151 c 0,44,45
 1147 1074 1147 1074 1117 1021 c 128,-1,46
 1087 968 1087 968 1044 938 c 0,47,48
 1016 918 1016 918 977 896 c 0,49,50
 913 859 913 859 872 825 c 0,51,52
 841 797 841 797 830 754 c 0,53,54
 828 747 828 747 828 734 c 0,55,56
 828 702 828 702 849.5 673.5 c 128,-1,57
 871 645 871 645 916 604 c 0,58,59
 981 547 981 547 1016.5 494 c 128,-1,60
 1052 441 1052 441 1052 365 c 0,61,62
 1052 252 1052 252 984 160.5 c 128,-1,63
 916 69 916 69 814 22 c 0,64,65
 727 -18 727 -18 633 -18 c 0,0,1
EndSplineSet
EndChar

StartChar: ae
Encoding: 230 230 165
Width: 1727
GlyphClass: 1
Flags: W
LayerCount: 2
Fore
SplineSet
300 -20 m 0,0,1
 178 -20 178 -20 100.5 47.5 c 128,-1,2
 23 115 23 115 23 226 c 0,3,4
 23 264 23 264 31 299 c 0,5,6
 98 592 98 592 471 592 c 2,7,-1
 797 592 l 1,8,9
 815 678 815 678 815 739 c 0,10,11
 815 840 815 840 766 888 c 128,-1,12
 717 936 717 936 619 936 c 0,13,14
 522 936 522 936 439.5 888.5 c 128,-1,15
 357 841 357 841 302 774 c 1,16,-1
 194 867 l 1,17,18
 380 1056 380 1056 632 1056 c 0,19,20
 767 1056 767 1056 841 1003 c 128,-1,21
 915 950 915 950 934 863 c 1,22,23
 1079 1052 1079 1052 1309 1052 c 0,24,25
 1493 1052 1493 1052 1575.5 957 c 128,-1,26
 1658 862 1658 862 1658 702 c 0,27,28
 1658 611 1658 611 1632 495 c 1,29,-1
 1623 470 l 1,30,-1
 903 470 l 1,31,32
 889 412 889 412 889 355 c 0,33,34
 889 287 889 287 912.5 234 c 128,-1,35
 936 181 936 181 986 151 c 128,-1,36
 1036 121 1036 121 1114 121 c 0,37,38
 1219 121 1219 121 1296 148.5 c 128,-1,39
 1373 176 1373 176 1445 236 c 1,40,-1
 1535 139 l 1,41,42
 1438 61 1438 61 1336 24.5 c 128,-1,43
 1234 -12 1234 -12 1108 -12 c 0,44,45
 946 -12 946 -12 862.5 67.5 c 128,-1,46
 779 147 779 147 769 280 c 1,47,48
 593 -20 593 -20 300 -20 c 0,0,1
1514 592 m 1,49,50
 1529 657 1529 657 1529 707 c 0,51,52
 1529 805 1529 805 1475.5 862 c 128,-1,53
 1422 919 1422 919 1303 919 c 0,54,55
 1207 919 1207 919 1132 873.5 c 128,-1,56
 1057 828 1057 828 1006 754 c 128,-1,57
 955 680 955 680 932 592 c 1,58,-1
 1514 592 l 1,49,50
343 108 m 0,59,60
 445 108 445 108 535.5 164.5 c 128,-1,61
 626 221 626 221 687.5 303 c 128,-1,62
 749 385 749 385 767 470 c 1,63,-1
 465 470 l 2,64,65
 365 468 365 468 287 418.5 c 128,-1,66
 209 369 209 369 183 268 c 0,67,68
 180 254 180 254 180 242 c 0,69,70
 180 203 180 203 204.5 172.5 c 128,-1,71
 229 142 229 142 267 125 c 128,-1,72
 305 108 305 108 343 108 c 0,59,60
EndSplineSet
EndChar

StartChar: eth
Encoding: 240 240 175
Width: 1190
GlyphClass: 1
Flags: W
LayerCount: 2
Fore
SplineSet
476 -16 m 0,0,1
 345 -16 345 -16 257.5 38.5 c 128,-1,2
 170 93 170 93 126.5 187 c 128,-1,3
 83 281 83 281 83 392 c 256,4,5
 83 503 83 503 117.5 610.5 c 128,-1,6
 152 718 152 718 217 810 c 0,7,8
 295 922 295 922 413 991 c 128,-1,9
 531 1060 531 1060 677 1060 c 0,10,11
 780 1060 780 1060 851.5 1028 c 128,-1,12
 923 996 923 996 950 953 c 1,13,-1
 951 978 l 1,14,15
 951 1153 951 1153 762 1289 c 1,16,-1
 634 1163 l 1,17,-1
 549 1218 l 1,18,-1
 676 1343 l 1,19,20
 610 1378 610 1378 521 1413 c 1,21,-1
 619 1514 l 1,22,23
 713 1478 713 1478 777 1443 c 1,24,-1
 865 1531 l 1,25,-1
 954 1479 l 1,26,-1
 864 1390 l 1,27,28
 999 1287 999 1287 1060 1150.5 c 128,-1,29
 1121 1014 1121 1014 1121 841 c 0,30,31
 1121 697 1121 697 1078 514 c 0,32,33
 1045 374 1045 374 962.5 252.5 c 128,-1,34
 880 131 880 131 750 56 c 0,35,36
 624 -16 624 -16 476 -16 c 0,0,1
484 127 m 0,37,38
 596 127 596 127 685 187 c 128,-1,39
 774 247 774 247 833 343 c 128,-1,40
 892 439 892 439 918 552 c 0,41,42
 934 618 934 618 934 680 c 0,43,44
 934 756 934 756 909 816 c 128,-1,45
 884 876 884 876 831.5 910.5 c 128,-1,46
 779 945 779 945 696 945 c 0,47,48
 583 945 583 945 493.5 884.5 c 128,-1,49
 404 824 404 824 345 728.5 c 128,-1,50
 286 633 286 633 260 521 c 0,51,52
 245 454 245 454 245 395 c 0,53,54
 245 275 245 275 303.5 201 c 128,-1,55
 362 127 362 127 484 127 c 0,37,38
EndSplineSet
EndChar

StartChar: divide
Encoding: 247 247 182
Width: 967
GlyphClass: 1
Flags: W
LayerCount: 2
Fore
SplineSet
578 902 m 1,0,-1
 382 902 l 1,1,-1
 382 1096 l 1,2,-1
 578 1096 l 1,3,-1
 578 902 l 1,0,-1
829 571 m 1,4,-1
 130 571 l 1,5,-1
 130 685 l 1,6,-1
 829 685 l 1,7,-1
 829 571 l 1,4,-1
578 142 m 1,8,-1
 382 142 l 1,9,-1
 382 335 l 1,10,-1
 578 335 l 1,11,-1
 578 142 l 1,8,-1
EndSplineSet
EndChar

StartChar: oslash
Encoding: 248 248 183
Width: 1151
GlyphClass: 1
Flags: W
LayerCount: 2
Fore
SplineSet
463 -20 m 0,0,1
 335 -20 335 -20 242 36 c 1,2,-1
 214 1 l 1,3,-1
 120 1 l 1,4,-1
 185 82 l 1,5,6
 132 138 132 138 105 215.5 c 128,-1,7
 78 293 78 293 78 382 c 0,8,9
 78 570 78 570 174.5 731 c 128,-1,10
 271 892 271 892 427 982 c 0,11,12
 551 1052 551 1052 690 1052 c 0,13,14
 816 1052 816 1052 909 996 c 1,15,-1
 943 1039 l 1,16,-1
 1036 1039 l 1,17,-1
 966 951 l 1,18,19
 1018 897 1018 897 1047 819 c 128,-1,20
 1076 741 1076 741 1076 646 c 0,21,22
 1076 541 1076 541 1041 435.5 c 128,-1,23
 1006 330 1006 330 940 240 c 0,24,25
 854 123 854 123 730.5 51.5 c 128,-1,26
 607 -20 607 -20 463 -20 c 0,0,1
279 201 m 1,27,-1
 818 886 l 1,28,29
 763 919 763 919 680 919 c 0,30,31
 567 919 567 919 480.5 861.5 c 128,-1,32
 394 804 394 804 337.5 710 c 128,-1,33
 281 616 281 616 255 500 c 0,34,35
 238 422 238 422 238 361 c 0,36,37
 238 261 238 261 279 201 c 1,27,-1
473 112 m 0,38,39
 588 112 588 112 674.5 169.5 c 128,-1,40
 761 227 761 227 817 321.5 c 128,-1,41
 873 416 873 416 899 531 c 0,42,43
 917 606 917 606 917 672 c 0,44,45
 917 773 917 773 874 834 c 1,46,-1
 333 147 l 1,47,48
 388 112 388 112 473 112 c 0,38,39
EndSplineSet
EndChar

StartChar: thorn
Encoding: 254 254 189
Width: 1183
GlyphClass: 1
Flags: W
LayerCount: 2
Fore
SplineSet
112 -438 m 1,0,-1
 -38 -438 l 1,1,-1
 407 1413 l 1,2,-1
 557 1413 l 1,3,-1
 420 893 l 1,4,5
 562 1060 562 1060 782 1060 c 0,6,7
 936 1060 936 1060 1015.5 959.5 c 128,-1,8
 1095 859 1095 859 1095 690 c 0,9,10
 1095 580 1095 580 1062 461.5 c 128,-1,11
 1029 343 1029 343 966 240 c 0,12,13
 895 124 895 124 791.5 52 c 128,-1,14
 688 -20 688 -20 559 -20 c 0,15,16
 439 -20 439 -20 364.5 29 c 128,-1,17
 290 78 290 78 259 160 c 1,18,-1
 112 -438 l 1,0,-1
524 104 m 0,19,20
 631 104 631 104 715 162.5 c 128,-1,21
 799 221 799 221 855 317.5 c 128,-1,22
 911 414 911 414 938 533 c 0,23,24
 957 619 957 619 957 683 c 0,25,26
 957 757 957 757 934.5 813.5 c 128,-1,27
 912 870 912 870 863 902.5 c 128,-1,28
 814 935 814 935 736 935 c 0,29,30
 629 935 629 935 545 876 c 128,-1,31
 461 817 461 817 403.5 720.5 c 128,-1,32
 346 624 346 624 320 506 c 0,33,34
 302 431 302 431 302 357 c 256,35,36
 302 283 302 283 324.5 226 c 128,-1,37
 347 169 347 169 396 136.5 c 128,-1,38
 445 104 445 104 524 104 c 0,19,20
EndSplineSet
EndChar

StartChar: Aogonek
Encoding: 260 260 195
Width: 1306
GlyphClass: 1
Flags: W
LayerCount: 2
Fore
SplineSet
904 -451 m 0,0,1
 827 -451 827 -451 779 -407 c 128,-1,2
 731 -363 731 -363 731 -286 c 0,3,4
 731 -230 731 -230 756.5 -176.5 c 128,-1,5
 782 -123 782 -123 837 -81 c 0,6,7
 915 -24 915 -24 992 0 c 1,8,-1
 959 0 l 1,9,-1
 922 307 l 1,10,-1
 301 307 l 1,11,-1
 122 0 l 1,12,-1
 -54 0 l 1,13,-1
 803 1413 l 1,14,-1
 924 1413 l 1,15,-1
 1126 0 l 1,16,-1
 1082 0 l 1,17,-1
 1124 -1 l 1,18,19
 1091 -15 1091 -15 1037.5 -40.5 c 128,-1,20
 984 -66 984 -66 922 -120 c 128,-1,21
 860 -174 860 -174 844 -244 c 0,22,23
 840 -259 840 -259 840 -275 c 0,24,25
 840 -306 840 -306 856.5 -321.5 c 128,-1,26
 873 -337 873 -337 898 -337 c 0,27,28
 982 -337 982 -337 1043 -268 c 1,29,-1
 1126 -343 l 1,30,31
 1076 -398 1076 -398 1023 -424.5 c 128,-1,32
 970 -451 970 -451 904 -451 c 0,0,1
902 452 m 1,33,-1
 816 1180 l 1,34,-1
 387 452 l 1,35,-1
 902 452 l 1,33,-1
EndSplineSet
Position2: "'cpsp' Capital Spacing lookup 0 per glyph data 0" dx=5 dy=0 dh=10 dv=0
EndChar

StartChar: dcaron
Encoding: 271 271 206
Width: 1315
GlyphClass: 1
Flags: W
LayerCount: 2
Fore
SplineSet
405 -20 m 0,0,1
 298 -20 298 -20 226.5 28.5 c 128,-1,2
 155 77 155 77 119.5 161.5 c 128,-1,3
 84 246 84 246 84 355 c 256,4,5
 84 464 84 464 117.5 581.5 c 128,-1,6
 151 699 151 699 215 801 c 0,7,8
 286 916 286 916 391.5 988 c 128,-1,9
 497 1060 497 1060 628 1060 c 0,10,11
 844 1060 844 1060 922 897 c 1,12,-1
 1058 1413 l 1,13,-1
 1214 1413 l 1,14,-1
 875 0 l 1,15,-1
 720 0 l 1,16,-1
 753 132 l 1,17,18
 679 56 679 56 593.5 18 c 128,-1,19
 508 -20 508 -20 405 -20 c 0,0,1
1347 1057 m 1,20,-1
 1232 1057 l 1,21,-1
 1433 1413 l 1,22,-1
 1658 1413 l 1,23,-1
 1347 1057 l 1,20,-1
451 116 m 0,24,25
 558 116 558 116 639 172.5 c 128,-1,26
 720 229 720 229 774 323.5 c 128,-1,27
 828 418 828 418 854 535 c 0,28,29
 872 613 872 613 872 680 c 0,30,31
 872 752 872 752 850.5 806.5 c 128,-1,32
 829 861 829 861 781.5 891.5 c 128,-1,33
 734 922 734 922 659 922 c 0,34,35
 553 922 553 922 470.5 864.5 c 128,-1,36
 388 807 388 807 333.5 713 c 128,-1,37
 279 619 279 619 254 504 c 0,38,39
 235 421 235 421 235 360 c 0,40,41
 235 290 235 290 257 234.5 c 128,-1,42
 279 179 279 179 327 147.5 c 128,-1,43
 375 116 375 116 451 116 c 0,24,25
EndSplineSet
EndChar

StartChar: Dcroat
Encoding: 272 272 207
Width: 1430
GlyphClass: 1
Flags: W
LayerCount: 2
Fore
SplineSet
485 0 m 2,0,-1
 118 0 l 1,1,-1
 268 655 l 1,2,-1
 155 655 l 1,3,-1
 183 770 l 1,4,-1
 296 770 l 1,5,-1
 444 1413 l 1,6,-1
 802 1413 l 2,7,8
 1083 1413 1083 1413 1230 1285 c 128,-1,9
 1377 1157 1377 1157 1377 915 c 0,10,11
 1377 805 1377 805 1348 682 c 0,12,13
 1267 347 1267 347 1043 173.5 c 128,-1,14
 819 0 819 0 485 0 c 2,0,-1
483 147 m 2,15,16
 647 147 647 147 791.5 207 c 128,-1,17
 936 267 936 267 1041 394 c 128,-1,18
 1146 521 1146 521 1194 721 c 0,19,20
 1217 824 1217 824 1217 905 c 0,21,22
 1217 1268 1217 1268 776 1268 c 2,23,-1
 572 1268 l 1,24,-1
 457 770 l 1,25,-1
 838 770 l 1,26,-1
 810 655 l 1,27,-1
 429 655 l 1,28,-1
 312 147 l 1,29,-1
 483 147 l 2,15,16
EndSplineSet
Position2: "'cpsp' Capital Spacing lookup 0 per glyph data 0" dx=5 dy=0 dh=10 dv=0
EndChar

StartChar: dcroat
Encoding: 273 273 208
Width: 1177
GlyphClass: 1
Flags: W
LayerCount: 2
Fore
SplineSet
405 -20 m 0,0,1
 298 -20 298 -20 226.5 28.5 c 128,-1,2
 155 77 155 77 119.5 161.5 c 128,-1,3
 84 246 84 246 84 355 c 256,4,5
 84 464 84 464 117.5 581.5 c 128,-1,6
 151 699 151 699 215 801 c 0,7,8
 286 916 286 916 391.5 988 c 128,-1,9
 497 1060 497 1060 628 1060 c 0,10,11
 844 1060 844 1060 922 897 c 1,12,-1
 995 1178 l 1,13,-1
 690 1178 l 1,14,-1
 718 1294 l 1,15,-1
 1024 1294 l 1,16,-1
 1058 1413 l 1,17,-1
 1214 1413 l 1,18,-1
 1181 1294 l 1,19,-1
 1377 1294 l 1,20,-1
 1349 1178 l 1,21,-1
 1153 1178 l 1,22,-1
 875 0 l 1,23,-1
 724 0 l 1,24,-1
 750 128 l 1,25,26
 606 -20 606 -20 405 -20 c 0,0,1
451 116 m 0,27,28
 558 116 558 116 639 172.5 c 128,-1,29
 720 229 720 229 774 323.5 c 128,-1,30
 828 418 828 418 854 535 c 0,31,32
 872 613 872 613 872 680 c 0,33,34
 872 752 872 752 850.5 806.5 c 128,-1,35
 829 861 829 861 781.5 891.5 c 128,-1,36
 734 922 734 922 659 922 c 0,37,38
 553 922 553 922 470.5 864.5 c 128,-1,39
 388 807 388 807 333.5 713 c 128,-1,40
 279 619 279 619 254 504 c 0,41,42
 235 421 235 421 235 360 c 0,43,44
 235 290 235 290 257 234.5 c 128,-1,45
 279 179 279 179 327 147.5 c 128,-1,46
 375 116 375 116 451 116 c 0,27,28
EndSplineSet
EndChar

StartChar: Eogonek
Encoding: 280 280 215
Width: 1245
GlyphClass: 1
Flags: W
LayerCount: 2
Fore
SplineSet
792 -451 m 0,0,1
 715 -451 715 -451 667 -407 c 128,-1,2
 619 -363 619 -363 619 -286 c 0,3,4
 619 -230 619 -230 644.5 -176.5 c 128,-1,5
 670 -123 670 -123 725 -81 c 0,6,7
 803 -24 803 -24 880 0 c 1,8,-1
 100 0 l 1,9,-1
 426 1413 l 1,10,-1
 1341 1413 l 1,11,-1
 1309 1276 l 1,12,-1
 553 1276 l 1,13,-1
 438 774 l 1,14,-1
 1095 774 l 1,15,-1
 1063 641 l 1,16,-1
 406 641 l 1,17,-1
 292 145 l 1,18,-1
 1048 145 l 1,19,-1
 1016 0 l 1,20,-1
 970 0 l 1,21,-1
 1012 -1 l 1,22,23
 979 -15 979 -15 925.5 -40.5 c 128,-1,24
 872 -66 872 -66 810 -120 c 128,-1,25
 748 -174 748 -174 732 -244 c 0,26,27
 728 -259 728 -259 728 -275 c 0,28,29
 728 -306 728 -306 744.5 -321.5 c 128,-1,30
 761 -337 761 -337 786 -337 c 0,31,32
 870 -337 870 -337 931 -268 c 1,33,-1
 1014 -343 l 1,34,35
 964 -398 964 -398 911 -424.5 c 128,-1,36
 858 -451 858 -451 792 -451 c 0,0,1
EndSplineSet
Position2: "'cpsp' Capital Spacing lookup 0 per glyph data 0" dx=5 dy=0 dh=10 dv=0
EndChar

StartChar: eogonek
Encoding: 281 281 216
Width: 1058
GlyphClass: 1
Flags: W
LayerCount: 2
Fore
SplineSet
470 -406 m 0,0,1
 391 -406 391 -406 341.5 -362 c 128,-1,2
 292 -318 292 -318 292 -241 c 0,3,4
 292 -180 292 -180 325 -120.5 c 128,-1,5
 358 -61 358 -61 433 -12 c 1,6,7
 254 -8 254 -8 166 96 c 128,-1,8
 78 200 78 200 78 364 c 0,9,10
 78 460 78 460 108.5 572 c 128,-1,11
 139 684 139 684 205 788 c 0,12,13
 253 865 253 865 319 924 c 128,-1,14
 385 983 385 983 467 1017.5 c 128,-1,15
 549 1052 549 1052 646 1052 c 0,16,17
 827 1052 827 1052 909 957 c 128,-1,18
 991 862 991 862 991 701 c 0,19,20
 991 577 991 577 955 462 c 1,21,-1
 239 462 l 1,22,23
 225 407 225 407 225 353 c 0,24,25
 225 286 225 286 248.5 233.5 c 128,-1,26
 272 181 272 181 321 150.5 c 128,-1,27
 370 120 370 120 449 120 c 0,28,29
 553 120 553 120 629.5 147.5 c 128,-1,30
 706 175 706 175 772 236 c 1,31,-1
 867 138 l 1,32,33
 742 37 742 37 608 6 c 1,34,35
 433 -83 433 -83 405 -199 c 0,36,37
 401 -214 401 -214 401 -230 c 0,38,39
 401 -261 401 -261 418 -276.5 c 128,-1,40
 435 -292 435 -292 461 -292 c 0,41,42
 548 -292 548 -292 612 -223 c 1,43,-1
 698 -298 l 1,44,45
 647 -353 647 -353 592.5 -379.5 c 128,-1,46
 538 -406 538 -406 470 -406 c 0,0,1
847 584 m 1,47,48
 861 648 861 648 861 703 c 0,49,50
 861 804 861 804 808 861.5 c 128,-1,51
 755 919 755 919 638 919 c 0,52,53
 544 919 544 919 469.5 873.5 c 128,-1,54
 395 828 395 828 343.5 752.5 c 128,-1,55
 292 677 292 677 268 584 c 1,56,-1
 847 584 l 1,47,48
EndSplineSet
EndChar

StartChar: Hbar
Encoding: 294 294 229
Width: 1461
GlyphClass: 1
Flags: W
LayerCount: 2
Fore
SplineSet
1132 0 m 1,0,-1
 973 0 l 1,1,-1
 1119 641 l 1,2,-1
 406 641 l 1,3,-1
 259 0 l 1,4,-1
 100 0 l 1,5,-1
 347 1071 l 1,6,-1
 231 1071 l 1,7,-1
 250 1160 l 1,8,-1
 368 1160 l 1,9,-1
 426 1413 l 1,10,-1
 585 1413 l 1,11,-1
 527 1160 l 1,12,-1
 1240 1160 l 1,13,-1
 1298 1413 l 1,14,-1
 1457 1413 l 1,15,-1
 1399 1160 l 1,16,-1
 1510 1160 l 1,17,-1
 1490 1071 l 1,18,-1
 1378 1071 l 1,19,-1
 1132 0 l 1,0,-1
1151 774 m 1,20,-1
 1219 1071 l 1,21,-1
 506 1071 l 1,22,-1
 438 774 l 1,23,-1
 1151 774 l 1,20,-1
EndSplineSet
Position2: "'cpsp' Capital Spacing lookup 0 per glyph data 0" dx=5 dy=0 dh=10 dv=0
EndChar

StartChar: hbar
Encoding: 295 295 230
Width: 1160
GlyphClass: 1
Flags: W
LayerCount: 2
Fore
SplineSet
900 0 m 1,0,-1
 743 0 l 1,1,-1
 886 626 l 2,2,3
 903 702 903 702 903 753 c 0,4,5
 903 915 903 915 749 915 c 0,6,7
 652 915 652 915 567 863.5 c 128,-1,8
 482 812 482 812 422.5 733 c 128,-1,9
 363 654 363 654 342 565 c 2,10,-1
 213 0 l 1,11,-1
 59 0 l 1,12,-1
 330 1152 l 1,13,-1
 141 1152 l 1,14,-1
 170 1268 l 1,15,-1
 358 1268 l 1,16,-1
 398 1413 l 1,17,-1
 551 1413 l 1,18,-1
 510 1268 l 1,19,-1
 829 1268 l 1,20,-1
 801 1152 l 1,21,-1
 482 1152 l 1,22,-1
 412 880 l 1,23,24
 486 966 486 966 585.5 1011 c 128,-1,25
 685 1056 685 1056 779 1056 c 0,26,27
 921 1056 921 1056 989 977 c 128,-1,28
 1057 898 1057 898 1057 769 c 0,29,30
 1057 708 1057 708 1041 633 c 2,31,-1
 900 0 l 1,0,-1
EndSplineSet
EndChar

StartChar: Iogonek
Encoding: 302 302 237
Width: 589
GlyphClass: 1
Flags: W
LayerCount: 2
Fore
SplineSet
35 -451 m 0,0,1
 -42 -451 -42 -451 -90 -407 c 128,-1,2
 -138 -363 -138 -363 -138 -286 c 0,3,4
 -138 -230 -138 -230 -112.5 -176.5 c 128,-1,5
 -87 -123 -87 -123 -32 -81 c 0,6,7
 46 -24 46 -24 123 0 c 1,8,-1
 100 0 l 1,9,-1
 426 1413 l 1,10,-1
 585 1413 l 1,11,-1
 259 0 l 1,12,-1
 213 0 l 1,13,-1
 255 -1 l 1,14,15
 222 -15 222 -15 168.5 -40.5 c 128,-1,16
 115 -66 115 -66 53 -120 c 128,-1,17
 -9 -174 -9 -174 -25 -244 c 0,18,19
 -29 -259 -29 -259 -29 -275 c 0,20,21
 -29 -306 -29 -306 -12.5 -321.5 c 128,-1,22
 4 -337 4 -337 29 -337 c 0,23,24
 113 -337 113 -337 174 -268 c 1,25,-1
 257 -343 l 1,26,27
 207 -398 207 -398 154 -424.5 c 128,-1,28
 101 -451 101 -451 35 -451 c 0,0,1
EndSplineSet
Position2: "'cpsp' Capital Spacing lookup 0 per glyph data 0" dx=5 dy=0 dh=10 dv=0
EndChar

StartChar: iogonek
Encoding: 303 303 238
Width: 529
GlyphClass: 1
Flags: W
LayerCount: 2
Fore
SplineSet
524 1221 m 1,0,-1
 344 1221 l 1,1,-1
 391 1413 l 1,2,-1
 570 1413 l 1,3,-1
 524 1221 l 1,0,-1
-10 -451 m 0,4,5
 -89 -451 -89 -451 -138.5 -407 c 128,-1,6
 -188 -363 -188 -363 -188 -286 c 0,7,8
 -188 -230 -188 -230 -162 -176.5 c 128,-1,9
 -136 -123 -136 -123 -80 -81 c 0,10,11
 0 -24 0 -24 79 0 c 1,12,-1
 66 0 l 1,13,-1
 305 999 l 1,14,-1
 459 999 l 1,15,-1
 220 0 l 1,16,-1
 173 0 l 1,17,-1
 216 -1 l 1,18,19
 182 -15 182 -15 126.5 -40.5 c 128,-1,20
 71 -66 71 -66 6.5 -120 c 128,-1,21
 -58 -174 -58 -174 -75 -244 c 0,22,23
 -79 -259 -79 -259 -79 -275 c 0,24,25
 -79 -306 -79 -306 -62 -321.5 c 128,-1,26
 -45 -337 -45 -337 -19 -337 c 0,27,28
 68 -337 68 -337 132 -268 c 1,29,-1
 218 -343 l 1,30,31
 167 -398 167 -398 112.5 -424.5 c 128,-1,32
 58 -451 58 -451 -10 -451 c 0,4,5
EndSplineSet
EndChar

StartChar: Idotaccent
Encoding: 304 304 239
Width: 589
GlyphClass: 1
Flags: W
LayerCount: 2
Fore
SplineSet
640 1635 m 1,0,-1
 467 1635 l 1,1,-1
 512 1827 l 1,2,-1
 684 1827 l 1,3,-1
 640 1635 l 1,0,-1
259 0 m 1,4,-1
 100 0 l 1,5,-1
 426 1413 l 1,6,-1
 585 1413 l 1,7,-1
 259 0 l 1,4,-1
EndSplineSet
Position2: "'cpsp' Capital Spacing lookup 0 per glyph data 0" dx=5 dy=0 dh=10 dv=0
EndChar

StartChar: dotlessi
Encoding: 305 305 240
Width: 505
GlyphClass: 2
Flags: W
LayerCount: 2
Fore
SplineSet
212 0 m 1,0,-1
 63 0 l 1,1,-1
 293 1039 l 1,2,-1
 441 1039 l 1,3,-1
 212 0 l 1,0,-1
EndSplineSet
EndChar

StartChar: ij
Encoding: 307 307 242
Width: 1028
GlyphClass: 1
Flags: W
LayerCount: 2
Fore
SplineSet
1034 1225 m 1,0,-1
 853 1225 l 1,1,-1
 901 1418 l 1,2,-1
 1082 1418 l 1,3,-1
 1034 1225 l 1,0,-1
519 1221 m 1,4,-1
 340 1221 l 1,5,-1
 387 1413 l 1,6,-1
 566 1413 l 1,7,-1
 519 1221 l 1,4,-1
370 -438 m 0,8,9
 295 -438 295 -438 213 -405 c 1,10,-1
 262 -297 l 1,11,12
 284 -304 284 -304 315.5 -308 c 128,-1,13
 347 -312 347 -312 372 -312 c 0,14,15
 439 -312 439 -312 478 -270 c 128,-1,16
 517 -228 517 -228 530 -170 c 2,17,-1
 810 999 l 1,18,-1
 969 999 l 1,19,-1
 691 -162 l 2,20,21
 662 -289 662 -289 583.5 -363.5 c 128,-1,22
 505 -438 505 -438 370 -438 c 0,8,9
215 0 m 1,23,-1
 57 0 l 1,24,-1
 296 999 l 1,25,-1
 453 999 l 1,26,-1
 215 0 l 1,23,-1
EndSplineSet
EndChar

StartChar: kgreenlandic
Encoding: 312 312 247
Width: 1089
GlyphClass: 1
Flags: W
LayerCount: 2
Fore
SplineSet
935 0 m 1,0,-1
 754 0 l 1,1,-1
 566 548 l 1,2,-1
 283 302 l 1,3,-1
 212 0 l 1,4,-1
 57 0 l 1,5,-1
 296 1039 l 1,6,-1
 450 1039 l 1,7,-1
 322 495 l 1,8,-1
 912 1039 l 1,9,-1
 1110 1039 l 1,10,-1
 681 657 l 1,11,-1
 935 0 l 1,0,-1
EndSplineSet
EndChar

StartChar: Lcaron
Encoding: 317 317 252
Width: 1037
GlyphClass: 1
Flags: W
LayerCount: 2
Fore
SplineSet
860 0 m 1,0,-1
 97 0 l 1,1,-1
 423 1413 l 1,2,-1
 582 1413 l 1,3,-1
 288 145 l 1,4,-1
 893 145 l 1,5,-1
 860 0 l 1,0,-1
830 1017 m 1,6,-1
 718 1017 l 1,7,-1
 913 1413 l 1,8,-1
 1129 1413 l 1,9,-1
 830 1017 l 1,6,-1
EndSplineSet
Position2: "'cpsp' Capital Spacing lookup 0 per glyph data 0" dx=5 dy=0 dh=10 dv=0
EndChar

StartChar: lcaron
Encoding: 318 318 253
Width: 661
GlyphClass: 1
Flags: W
LayerCount: 2
Fore
SplineSet
226 -20 m 0,0,1
 152 -20 152 -20 118.5 10.5 c 128,-1,2
 85 41 85 41 85 99 c 0,3,4
 85 140 85 140 102 209 c 2,5,-1
 385 1413 l 1,6,-1
 542 1413 l 1,7,8
 238 153 238 153 238 144 c 0,9,10
 238 110 238 110 268 110 c 0,11,12
 308 110 308 110 377 122 c 1,13,-1
 359 -2 l 1,14,15
 298 -20 298 -20 226 -20 c 0,0,1
693 1017 m 1,16,-1
 577 1017 l 1,17,-1
 779 1413 l 1,18,-1
 1004 1413 l 1,19,-1
 693 1017 l 1,16,-1
EndSplineSet
EndChar

StartChar: Ldot
Encoding: 319 319 254
Width: 1043
GlyphClass: 1
Flags: W
LayerCount: 2
Fore
SplineSet
863 0 m 1,0,-1
 100 0 l 1,1,-1
 426 1413 l 1,2,-1
 585 1413 l 1,3,-1
 292 145 l 1,4,-1
 896 145 l 1,5,-1
 863 0 l 1,0,-1
677 582 m 0,6,7
 629 582 629 582 599.5 613 c 128,-1,8
 570 644 570 644 570 689 c 0,9,10
 570 752 570 752 614.5 791.5 c 128,-1,11
 659 831 659 831 712 831 c 0,12,13
 761 831 761 831 791 801.5 c 128,-1,14
 821 772 821 772 821 724 c 0,15,16
 821 714 821 714 817 692 c 0,17,18
 805 645 805 645 765.5 613.5 c 128,-1,19
 726 582 726 582 677 582 c 0,6,7
EndSplineSet
EndChar

StartChar: ldot
Encoding: 320 320 255
Width: 710
GlyphClass: 1
Flags: W
LayerCount: 2
Fore
SplineSet
229 -20 m 0,0,1
 155 -20 155 -20 121.5 10.5 c 128,-1,2
 88 41 88 41 88 99 c 0,3,4
 88 140 88 140 105 209 c 2,5,-1
 389 1413 l 1,6,-1
 542 1413 l 1,7,8
 242 156 242 156 242 145 c 0,9,10
 242 105 242 105 290 105 c 0,11,12
 314 105 314 105 381 122 c 1,13,-1
 363 -2 l 1,14,15
 336 -10 336 -10 299 -15 c 128,-1,16
 262 -20 262 -20 229 -20 c 0,0,1
570 572 m 0,17,18
 522 572 522 572 492.5 603 c 128,-1,19
 463 634 463 634 463 679 c 0,20,21
 463 742 463 742 507.5 781.5 c 128,-1,22
 552 821 552 821 605 821 c 0,23,24
 654 821 654 821 684 791.5 c 128,-1,25
 714 762 714 762 714 714 c 0,26,27
 714 704 714 704 710 682 c 0,28,29
 698 635 698 635 658.5 603.5 c 128,-1,30
 619 572 619 572 570 572 c 0,17,18
EndSplineSet
EndChar

StartChar: Lslash
Encoding: 321 321 256
Width: 1063
GlyphClass: 1
Flags: W
LayerCount: 2
Fore
SplineSet
888 0 m 1,0,-1
 125 0 l 1,1,-1
 234 474 l 1,2,-1
 14 332 l 1,3,-1
 58 494 l 1,4,-1
 272 636 l 1,5,-1
 451 1413 l 1,6,-1
 610 1413 l 1,7,-1
 459 760 l 1,8,-1
 851 1020 l 1,9,-1
 802 839 l 1,10,-1
 421 594 l 1,11,-1
 317 145 l 1,12,-1
 921 145 l 1,13,-1
 888 0 l 1,0,-1
EndSplineSet
Position2: "'cpsp' Capital Spacing lookup 0 per glyph data 0" dx=5 dy=0 dh=10 dv=0
EndChar

StartChar: lslash
Encoding: 322 322 257
Width: 541
GlyphClass: 1
Flags: W
LayerCount: 2
Fore
SplineSet
229 -20 m 0,0,1
 155 -20 155 -20 121.5 10.5 c 128,-1,2
 88 41 88 41 88 99 c 0,3,4
 88 140 88 140 104 209 c 2,5,-1
 163 462 l 1,6,-1
 -5 304 l 1,7,-1
 48 491 l 1,8,-1
 204 639 l 1,9,-1
 389 1413 l 1,10,-1
 545 1413 l 1,11,-1
 404 824 l 1,12,-1
 610 1014 l 1,13,-1
 556 827 l 1,14,-1
 361 646 l 1,15,16
 243 157 243 157 242 145 c 0,17,18
 242 105 242 105 290 105 c 0,19,20
 314 105 314 105 381 122 c 1,21,-1
 363 -2 l 1,22,23
 336 -10 336 -10 299 -15 c 128,-1,24
 262 -20 262 -20 229 -20 c 0,0,1
EndSplineSet
EndChar

StartChar: Eng
Encoding: 330 330 265
Width: 1420
GlyphClass: 1
Flags: W
LayerCount: 2
Fore
SplineSet
730 -369 m 2,0,-1
 644 -369 l 1,1,-1
 666 -248 l 1,2,-1
 675 -248 l 2,3,4
 738 -248 738 -248 790.5 -226.5 c 128,-1,5
 843 -205 843 -205 872.5 -168 c 128,-1,6
 902 -131 902 -131 902 -88 c 0,7,8
 902 -74 902 -74 541 1228 c 1,9,-1
 256 0 l 1,10,-1
 97 0 l 1,11,-1
 423 1413 l 1,12,-1
 643 1413 l 1,13,-1
 974 185 l 1,14,-1
 1260 1413 l 1,15,-1
 1417 1413 l 1,16,-1
 1089 -7 l 2,17,18
 1069 -94 1069 -94 1039.5 -167 c 128,-1,19
 1010 -240 1010 -240 934 -304.5 c 128,-1,20
 858 -369 858 -369 730 -369 c 2,0,-1
EndSplineSet
Position2: "'cpsp' Capital Spacing lookup 0 per glyph data 0" dx=5 dy=0 dh=10 dv=0
EndChar

StartChar: eng
Encoding: 331 331 266
Width: 1156
GlyphClass: 1
Flags: W
LayerCount: 2
Fore
SplineSet
534 -369 m 2,0,-1
 440 -369 l 1,1,-1
 472 -240 l 1,2,-1
 524 -240 l 2,3,4
 622 -240 622 -240 666 -179 c 128,-1,5
 710 -118 710 -118 726 -44 c 2,6,-1
 883 630 l 2,7,8
 900 706 900 706 900 755 c 0,9,10
 900 911 900 911 746 911 c 0,11,12
 652 911 652 911 568.5 864 c 128,-1,13
 485 817 485 817 426.5 744.5 c 128,-1,14
 368 672 368 672 348 591 c 2,15,-1
 214 9 l 1,16,-1
 57 9 l 1,17,-1
 296 1039 l 1,18,-1
 452 1039 l 1,19,-1
 414 887 l 1,20,21
 486 969 486 969 581.5 1012.5 c 128,-1,22
 677 1056 677 1056 767 1056 c 0,23,24
 913 1056 913 1056 982.5 978 c 128,-1,25
 1052 900 1052 900 1052 769 c 0,26,27
 1052 703 1052 703 1034 628 c 2,28,-1
 869 -83 l 2,29,30
 853 -155 853 -155 822.5 -215.5 c 128,-1,31
 792 -276 792 -276 721.5 -322.5 c 128,-1,32
 651 -369 651 -369 534 -369 c 2,0,-1
EndSplineSet
EndChar

StartChar: OE
Encoding: 338 338 273
Width: 2252
GlyphClass: 1
Flags: W
LayerCount: 2
Fore
SplineSet
657 -20 m 0,0,1
 484 -20 484 -20 372 45.5 c 128,-1,2
 260 111 260 111 205.5 226 c 128,-1,3
 151 341 151 341 151 490 c 0,4,5
 151 633 151 633 197 789 c 128,-1,6
 243 945 243 945 331 1081 c 0,7,8
 437 1242 437 1242 600 1338 c 128,-1,9
 763 1434 763 1434 970 1434 c 0,10,11
 1152 1434 1152 1434 1253.5 1359 c 128,-1,12
 1355 1284 1355 1284 1385 1151 c 1,13,-1
 1449 1413 l 1,14,-1
 2348 1413 l 1,15,-1
 2316 1276 l 1,16,-1
 1576 1276 l 1,17,-1
 1461 774 l 1,18,-1
 2118 774 l 1,19,-1
 2086 641 l 1,20,-1
 1429 641 l 1,21,-1
 1314 145 l 1,22,-1
 2055 145 l 1,23,-1
 2022 0 l 1,24,-1
 1123 0 l 1,25,-1
 1183 249 l 1,26,27
 997 -20 997 -20 657 -20 c 0,0,1
665 124 m 0,28,29
 830 124 830 124 958 206 c 0,30,31
 1092 293 1092 293 1173 428.5 c 128,-1,32
 1254 564 1254 564 1289 721 c 0,33,34
 1313 828 1313 828 1313 916 c 0,35,36
 1313 1085 1313 1085 1226.5 1187 c 128,-1,37
 1140 1289 1140 1289 956 1289 c 0,38,39
 789 1289 789 1289 661 1207 c 0,40,41
 527 1120 527 1120 446.5 985 c 128,-1,42
 366 850 366 850 331 692 c 0,43,44
 307 585 307 585 307 497 c 0,45,46
 307 328 307 328 393.5 226 c 128,-1,47
 480 124 480 124 665 124 c 0,28,29
EndSplineSet
Position2: "'cpsp' Capital Spacing lookup 0 per glyph data 0" dx=5 dy=0 dh=10 dv=0
EndChar

StartChar: oe
Encoding: 339 339 274
Width: 1842
GlyphClass: 1
Flags: W
LayerCount: 2
Fore
SplineSet
467 -20 m 0,0,1
 346 -20 346 -20 258 32 c 128,-1,2
 170 84 170 84 123.5 176.5 c 128,-1,3
 77 269 77 269 77 385 c 0,4,5
 77 454 77 454 95 531 c 0,6,7
 127 674 127 674 214.5 793 c 128,-1,8
 302 912 302 912 426.5 982 c 128,-1,9
 551 1052 551 1052 689 1052 c 0,10,11
 821 1052 821 1052 908 993 c 128,-1,12
 995 934 995 934 1030 836 c 1,13,14
 1194 1052 1194 1052 1437 1052 c 0,15,16
 1560 1052 1560 1052 1637.5 1004 c 128,-1,17
 1715 956 1715 956 1750.5 875 c 128,-1,18
 1786 794 1786 794 1786 693 c 0,19,20
 1786 586 1786 586 1748 462 c 1,21,-1
 1029 462 l 1,22,23
 1016 405 1016 405 1016 352 c 0,24,25
 1016 246 1016 246 1072 181 c 128,-1,26
 1128 116 1128 116 1242 116 c 0,27,28
 1341 116 1341 116 1415.5 142 c 128,-1,29
 1490 168 1490 168 1564 234 c 1,30,-1
 1657 138 l 1,31,32
 1556 54 1556 54 1457 21 c 128,-1,33
 1358 -12 1358 -12 1237 -12 c 0,34,35
 1099 -12 1099 -12 1016 46 c 128,-1,36
 933 104 933 104 899 201 c 1,37,38
 815 95 815 95 705.5 37.5 c 128,-1,39
 596 -20 596 -20 467 -20 c 0,0,1
1643 584 m 1,40,41
 1657 646 1657 646 1657 702 c 0,42,43
 1657 803 1657 803 1604.5 862.5 c 128,-1,44
 1552 922 1552 922 1434 922 c 0,45,46
 1337 922 1337 922 1260.5 876 c 128,-1,47
 1184 830 1184 830 1132.5 754 c 128,-1,48
 1081 678 1081 678 1058 584 c 1,49,-1
 1643 584 l 1,40,41
473 118 m 0,50,51
 586 118 586 118 672.5 173.5 c 128,-1,52
 759 229 759 229 815.5 321.5 c 128,-1,53
 872 414 872 414 898 531 c 0,54,55
 915 607 915 607 915 669 c 0,56,57
 915 782 915 782 858.5 848.5 c 128,-1,58
 802 915 802 915 679 915 c 0,59,60
 566 915 566 915 479.5 858.5 c 128,-1,61
 393 802 393 802 336.5 708.5 c 128,-1,62
 280 615 280 615 254 500 c 0,63,64
 237 426 237 426 237 365 c 0,65,66
 237 251 237 251 293.5 184.5 c 128,-1,67
 350 118 350 118 473 118 c 0,50,51
EndSplineSet
EndChar

StartChar: tcaron
Encoding: 357 357 292
Width: 704
GlyphClass: 1
Flags: W
LayerCount: 2
Fore
SplineSet
737 1135 m 1,0,-1
 635 1135 l 1,1,-1
 850 1477 l 1,2,-1
 1059 1477 l 1,3,-1
 737 1135 l 1,0,-1
350 -20 m 0,4,5
 242 -20 242 -20 191.5 32 c 128,-1,6
 141 84 141 84 141 177 c 0,7,8
 141 222 141 222 154 285 c 2,9,-1
 294 913 l 1,10,-1
 136 913 l 1,11,-1
 164 1039 l 1,12,-1
 324 1039 l 1,13,-1
 376 1245 l 1,14,-1
 565 1373 l 1,15,-1
 479 1039 l 1,16,-1
 744 1039 l 1,17,-1
 715 913 l 1,18,-1
 450 913 l 1,19,-1
 299 256 l 2,20,21
 290 217 290 217 289 189 c 0,22,23
 289 110 289 110 362 110 c 0,24,25
 426 110 426 110 461.5 119 c 128,-1,26
 497 128 497 128 504 132 c 1,27,-1
 480 7 l 1,28,29
 473 3 473 3 437.5 -8.5 c 128,-1,30
 402 -20 402 -20 350 -20 c 0,4,5
EndSplineSet
EndChar

StartChar: Tbar
Encoding: 358 358 293
Width: 1247
GlyphClass: 1
Flags: W
LayerCount: 2
Fore
SplineSet
589 0 m 1,0,-1
 428 0 l 1,1,-1
 578 648 l 1,2,-1
 345 648 l 1,3,-1
 372 764 l 1,4,-1
 604 764 l 1,5,-1
 724 1282 l 1,6,-1
 247 1282 l 1,7,-1
 277 1413 l 1,8,-1
 1391 1413 l 1,9,-1
 1361 1282 l 1,10,-1
 884 1282 l 1,11,-1
 765 764 l 1,12,-1
 1006 764 l 1,13,-1
 979 648 l 1,14,-1
 738 648 l 1,15,-1
 589 0 l 1,0,-1
EndSplineSet
Position2: "'cpsp' Capital Spacing lookup 0 per glyph data 0" dx=5 dy=0 dh=10 dv=0
EndChar

StartChar: tbar
Encoding: 359 359 294
Width: 698
GlyphClass: 1
Flags: W
LayerCount: 2
Fore
SplineSet
348 -20 m 0,0,1
 240 -20 240 -20 190.5 32.5 c 128,-1,2
 141 85 141 85 141 176 c 0,3,4
 141 229 141 229 154 285 c 2,5,-1
 193 462 l 1,6,-1
 -11 462 l 1,7,-1
 17 578 l 1,8,-1
 220 578 l 1,9,-1
 295 917 l 1,10,-1
 137 917 l 1,11,-1
 164 1039 l 1,12,-1
 324 1039 l 1,13,-1
 376 1239 l 1,14,-1
 565 1364 l 1,15,-1
 479 1039 l 1,16,-1
 744 1039 l 1,17,-1
 716 917 l 1,18,-1
 451 917 l 1,19,-1
 374 578 l 1,20,-1
 670 578 l 1,21,-1
 642 462 l 1,22,-1
 345 462 l 1,23,-1
 301 266 l 2,24,25
 293 227 293 227 292 203 c 0,26,27
 292 150 292 150 318 126.5 c 128,-1,28
 344 103 344 103 386 103 c 0,29,30
 436 103 436 103 504 133 c 1,31,-1
 483 -2 l 1,32,33
 464 -9 464 -9 426.5 -14.5 c 128,-1,34
 389 -20 389 -20 348 -20 c 0,0,1
EndSplineSet
EndChar

StartChar: Uogonek
Encoding: 370 370 305
Width: 1356
GlyphClass: 1
Flags: W
LayerCount: 2
Fore
SplineSet
558 -431 m 0,0,1
 481 -431 481 -431 433 -387 c 128,-1,2
 385 -343 385 -343 385 -266 c 0,3,4
 385 -172 385 -172 451 -100 c 0,5,6
 495 -52 495 -52 553 -20 c 1,7,8
 358 -16 358 -16 265 88 c 128,-1,9
 172 192 172 192 172 359 c 0,10,11
 172 437 172 437 192 525 c 2,12,-1
 396 1413 l 1,13,-1
 555 1413 l 1,14,-1
 358 556 l 2,15,16
 333 451 333 451 333 372 c 0,17,18
 333 254 333 254 392 192 c 128,-1,19
 451 130 451 130 580 130 c 0,20,21
 765 130 765 130 873.5 249.5 c 128,-1,22
 982 369 982 369 1029 570 c 2,23,-1
 1224 1413 l 1,24,-1
 1383 1413 l 1,25,-1
 1178 521 l 2,26,27
 1133 327 1133 327 1021 187.5 c 128,-1,28
 909 48 909 48 735 1 c 1,29,30
 657 -34 657 -34 586.5 -91 c 128,-1,31
 516 -148 516 -148 498 -224 c 0,32,33
 494 -239 494 -239 494 -255 c 0,34,35
 494 -286 494 -286 510.5 -301.5 c 128,-1,36
 527 -317 527 -317 552 -317 c 0,37,38
 636 -317 636 -317 697 -248 c 1,39,-1
 780 -323 l 1,40,41
 730 -378 730 -378 677 -404.5 c 128,-1,42
 624 -431 624 -431 558 -431 c 0,0,1
EndSplineSet
Position2: "'cpsp' Capital Spacing lookup 0 per glyph data 0" dx=5 dy=0 dh=10 dv=0
EndChar

StartChar: uogonek
Encoding: 371 371 306
Width: 1149
GlyphClass: 1
Flags: W
LayerCount: 2
Fore
SplineSet
630 -451 m 0,0,1
 551 -451 551 -451 501.5 -407 c 128,-1,2
 452 -363 452 -363 452 -286 c 0,3,4
 452 -230 452 -230 478 -176.5 c 128,-1,5
 504 -123 504 -123 560 -81 c 0,6,7
 640 -24 640 -24 719 0 c 1,8,-1
 707 0 l 1,9,-1
 748 166 l 1,10,11
 716 120 716 120 662 77 c 128,-1,12
 608 34 608 34 538.5 5.5 c 128,-1,13
 469 -23 469 -23 393 -23 c 0,14,15
 249 -23 249 -23 180.5 58 c 128,-1,16
 112 139 112 139 112 275 c 0,17,18
 112 350 112 350 130 431 c 2,19,-1
 266 1039 l 1,20,-1
 421 1039 l 1,21,-1
 277 407 l 2,22,23
 259 333 259 333 259 274 c 0,24,25
 259 106 259 106 411 106 c 0,26,27
 503 106 503 106 587 155.5 c 128,-1,28
 671 205 671 205 730.5 285 c 128,-1,29
 790 365 790 365 813 459 c 2,30,-1
 944 1039 l 1,31,-1
 1098 1039 l 1,32,-1
 860 0 l 1,33,-1
 812 0 l 1,34,-1
 856 -1 l 1,35,36
 822 -15 822 -15 766 -40.5 c 128,-1,37
 710 -66 710 -66 646 -120 c 128,-1,38
 582 -174 582 -174 565 -244 c 0,39,40
 561 -259 561 -259 561 -275 c 0,41,42
 561 -306 561 -306 578 -321.5 c 128,-1,43
 595 -337 595 -337 621 -337 c 0,44,45
 708 -337 708 -337 772 -268 c 1,46,-1
 858 -343 l 1,47,48
 807 -398 807 -398 752.5 -424.5 c 128,-1,49
 698 -451 698 -451 630 -451 c 0,0,1
EndSplineSet
EndChar

StartChar: longs
Encoding: 383 383 318
Width: 716
GlyphClass: 2
Flags: W
LayerCount: 2
Fore
SplineSet
261 0 m 1,0,-1
 107 0 l 1,1,-1
 317 917 l 1,2,-1
 127 917 l 1,3,-1
 156 1037 l 1,4,-1
 346 1037 l 1,5,-1
 392 1212 l 2,6,7
 424 1325 424 1325 514 1379.5 c 128,-1,8
 604 1434 604 1434 721 1434 c 0,9,10
 810 1434 810 1434 888 1393 c 1,11,-1
 828 1287 l 1,12,13
 773 1310 773 1310 717 1310 c 0,14,15
 656 1310 656 1310 608 1276.5 c 128,-1,16
 560 1243 560 1243 542 1172 c 2,17,-1
 261 0 l 1,0,-1
EndSplineSet
EndChar

StartChar: florin
Encoding: 402 402 319
Width: 1102
GlyphClass: 1
Flags: W
LayerCount: 2
Fore
SplineSet
-100 -457 m 1,0,-1
 -79 -322 l 1,1,2
 107 -322 107 -322 212 -239.5 c 128,-1,3
 317 -157 317 -157 356 13 c 2,4,-1
 563 907 l 1,5,-1
 378 907 l 1,6,-1
 410 1039 l 1,7,-1
 595 1039 l 1,8,-1
 635 1186 l 2,9,10
 671 1310 671 1310 767 1380 c 128,-1,11
 863 1450 863 1450 969 1450 c 0,12,13
 1078 1450 1078 1450 1164 1370 c 1,14,-1
 1058 1281 l 1,15,16
 1018 1315 1018 1315 960 1315 c 0,17,18
 903 1315 903 1315 847.5 1278.5 c 128,-1,19
 792 1242 792 1242 774 1174 c 2,20,-1
 734 1039 l 1,21,-1
 1051 1039 l 1,22,-1
 1020 907 l 1,23,-1
 702 907 l 1,24,-1
 492 1 l 2,25,26
 454 -156 454 -156 370 -257.5 c 128,-1,27
 286 -359 286 -359 165.5 -408 c 128,-1,28
 45 -457 45 -457 -100 -457 c 1,0,-1
EndSplineSet
EndChar

StartChar: uni01C3
Encoding: 451 451 324
Width: 651
GlyphClass: 1
Flags: W
LayerCount: 2
Fore
SplineSet
354 379 m 1,0,-1
 242 379 l 1,1,-1
 458 1435 l 1,2,-1
 627 1435 l 1,3,-1
 354 379 l 1,0,-1
308 0 m 1,4,-1
 114 0 l 1,5,-1
 157 192 l 1,6,-1
 351 192 l 1,7,-1
 308 0 l 1,4,-1
EndSplineSet
EndChar

StartChar: uni01DD
Encoding: 477 477 350
Width: 1059
GlyphClass: 1
Flags: W
LayerCount: 2
Fore
SplineSet
417 -12 m 0,0,1
 235 -12 235 -12 154 80.5 c 128,-1,2
 73 173 73 173 73 333 c 0,3,4
 73 429 73 429 100 549 c 0,5,6
 102 560 102 560 109 576 c 1,7,-1
 829 576 l 1,8,9
 841 636 841 636 841 685 c 0,10,11
 841 791 841 791 784.5 856 c 128,-1,12
 728 921 728 921 614 921 c 0,13,14
 512 921 512 921 434 892 c 128,-1,15
 356 863 356 863 287 802 c 1,16,-1
 195 900 l 1,17,18
 291 979 291 979 391 1015.5 c 128,-1,19
 491 1052 491 1052 614 1052 c 0,20,21
 741 1052 741 1052 824.5 1003 c 128,-1,22
 908 954 908 954 949 869 c 128,-1,23
 990 784 990 784 990 673 c 0,24,25
 990 576 990 576 958 465 c 128,-1,26
 926 354 926 354 863 251 c 0,27,28
 815 174 815 174 748.5 115.5 c 128,-1,29
 682 57 682 57 599.5 22.5 c 128,-1,30
 517 -12 517 -12 417 -12 c 0,0,1
423 120 m 0,31,32
 520 120 520 120 596 165 c 128,-1,33
 672 210 672 210 723.5 285.5 c 128,-1,34
 775 361 775 361 799 452 c 1,35,-1
 215 438 l 1,36,37
 202 380 202 380 202 332 c 0,38,39
 202 237 202 237 254.5 178.5 c 128,-1,40
 307 120 307 120 423 120 c 0,31,32
EndSplineSet
EndChar

StartChar: uni01E3
Encoding: 483 483 351
Width: 1745
GlyphClass: 1
Flags: W
LayerCount: 2
Fore
SplineSet
1323 1196 m 1,0,-1
 769 1196 l 1,1,-1
 796 1313 l 1,2,-1
 1350 1313 l 1,3,-1
 1323 1196 l 1,0,-1
323 -20 m 0,4,5
 201 -20 201 -20 122.5 45 c 128,-1,6
 44 110 44 110 44 225 c 0,7,8
 44 261 44 261 53 302 c 0,9,10
 87 453 87 453 201.5 523.5 c 128,-1,11
 316 594 316 594 489 594 c 2,12,-1
 818 599 l 1,13,14
 837 684 837 684 837 740 c 0,15,16
 837 936 837 936 642 936 c 0,17,18
 544 936 544 936 460.5 889 c 128,-1,19
 377 842 377 842 318 773 c 1,20,-1
 213 865 l 1,21,22
 312 966 312 966 418.5 1011 c 128,-1,23
 525 1056 525 1056 649 1056 c 0,24,25
 785 1056 785 1056 859.5 1004 c 128,-1,26
 934 952 934 952 954 863 c 1,27,28
 1098 1052 1098 1052 1331 1052 c 0,29,30
 1674 1052 1674 1052 1674 709 c 0,31,32
 1674 597 1674 597 1642 465 c 1,33,-1
 920 465 l 1,34,35
 909 413 909 413 909 358 c 0,36,37
 909 241 909 241 970 180 c 128,-1,38
 1031 119 1031 119 1138 119 c 0,39,40
 1238 119 1238 119 1316 148 c 128,-1,41
 1394 177 1394 177 1464 240 c 1,42,-1
 1555 140 l 1,43,44
 1460 61 1460 61 1358.5 24.5 c 128,-1,45
 1257 -12 1257 -12 1132 -12 c 0,46,47
 968 -12 968 -12 884.5 66.5 c 128,-1,48
 801 145 801 145 789 278 c 1,49,50
 612 -20 612 -20 323 -20 c 0,4,5
952 589 m 1,51,-1
 1535 599 l 1,52,53
 1547 659 1547 659 1547 706 c 0,54,55
 1547 805 1547 805 1493 862 c 128,-1,56
 1439 919 1439 919 1326 919 c 0,57,58
 1228 919 1228 919 1152.5 873 c 128,-1,59
 1077 827 1077 827 1026.5 752.5 c 128,-1,60
 976 678 976 678 952 589 c 1,51,-1
359 108 m 0,61,62
 461 108 461 108 551 161.5 c 128,-1,63
 641 215 641 215 704 298 c 128,-1,64
 767 381 767 381 790 475 c 1,65,-1
 484 470 l 2,66,67
 389 470 389 470 308 418 c 128,-1,68
 227 366 227 366 204 270 c 0,69,70
 201 256 201 256 201 243 c 0,71,72
 201 202 201 202 225.5 171.5 c 128,-1,73
 250 141 250 141 286.5 124.5 c 128,-1,74
 323 108 323 108 359 108 c 0,61,62
EndSplineSet
EndChar

StartChar: uni01EB
Encoding: 491 491 353
Width: 1149
GlyphClass: 1
Flags: W
LayerCount: 2
Fore
SplineSet
352 -451 m 0,0,1
 273 -451 273 -451 223.5 -406 c 128,-1,2
 174 -361 174 -361 174 -282 c 0,3,4
 174 -232 174 -232 195 -181.5 c 128,-1,5
 216 -131 216 -131 261 -90 c 0,6,7
 322 -36 322 -36 395 -5 c 1,8,9
 241 19 241 19 159 127.5 c 128,-1,10
 77 236 77 236 77 392 c 0,11,12
 77 493 77 493 112 598 c 128,-1,13
 147 703 147 703 214 796 c 0,14,15
 297 911 297 911 419 981.5 c 128,-1,16
 541 1052 541 1052 686 1052 c 0,17,18
 810 1052 810 1052 897 998.5 c 128,-1,19
 984 945 984 945 1029.5 854 c 128,-1,20
 1075 763 1075 763 1075 649 c 0,21,22
 1075 563 1075 563 1046 463 c 128,-1,23
 1017 363 1017 363 954 269 c 0,24,25
 880 161 880 161 775.5 89.5 c 128,-1,26
 671 18 671 18 545 -3 c 1,27,28
 318 -101 318 -101 287 -241 c 0,29,30
 283 -256 283 -256 283 -273 c 0,31,32
 283 -305 283 -305 300 -321 c 128,-1,33
 317 -337 317 -337 343 -337 c 0,34,35
 430 -337 430 -337 494 -266 c 1,36,-1
 580 -343 l 1,37,38
 529 -398 529 -398 474.5 -424.5 c 128,-1,39
 420 -451 420 -451 352 -451 c 0,0,1
472 127 m 0,40,41
 587 127 587 127 673.5 183 c 128,-1,42
 760 239 760 239 816 332 c 128,-1,43
 872 425 872 425 898 538 c 0,44,45
 915 607 915 607 915 675 c 0,46,47
 915 787 915 787 858.5 853 c 128,-1,48
 802 919 802 919 679 919 c 0,49,50
 566 919 566 919 480 862.5 c 128,-1,51
 394 806 394 806 337 713.5 c 128,-1,52
 280 621 280 621 255 508 c 0,53,54
 238 434 238 434 238 373 c 0,55,56
 238 260 238 260 294.5 193.5 c 128,-1,57
 351 127 351 127 472 127 c 0,40,41
EndSplineSet
EndChar

StartChar: uni01F1
Encoding: 497 497 354
Width: 2695
GlyphClass: 1
Flags: W
LayerCount: 2
Fore
SplineSet
463 0 m 2,0,-1
 100 0 l 1,1,-1
 426 1413 l 1,2,-1
 780 1413 l 2,3,4
 1070 1413 1070 1413 1214.5 1282 c 128,-1,5
 1359 1151 1359 1151 1359 914 c 0,6,7
 1359 804 1359 804 1330 682 c 0,8,9
 1249 347 1249 347 1024.5 173.5 c 128,-1,10
 800 0 800 0 463 0 c 2,0,-1
2477 0 m 1,11,-1
 1389 0 l 1,12,-1
 1415 124 l 1,13,-1
 2567 1276 l 1,14,-1
 1728 1276 l 1,15,-1
 1760 1413 l 1,16,-1
 2803 1413 l 1,17,-1
 2775 1283 l 1,18,-1
 1629 144 l 1,19,-1
 2511 144 l 1,20,-1
 2477 0 l 1,11,-1
462 145 m 2,21,22
 623 145 623 145 770 205.5 c 128,-1,23
 917 266 917 266 1030 400 c 0,24,25
 1135 529 1135 529 1180 721 c 0,26,27
 1203 824 1203 824 1203 905 c 0,28,29
 1203 1271 1203 1271 755 1271 c 2,30,-1
 553 1271 l 1,31,-1
 293 145 l 1,32,-1
 462 145 l 2,21,22
EndSplineSet
Position2: "'cpsp' Capital Spacing lookup 0 per glyph data 0" dx=5 dy=0 dh=10 dv=0
EndChar

StartChar: uni01F2
Encoding: 498 498 355
Width: 2348
GlyphClass: 1
Flags: W
LayerCount: 2
Fore
SplineSet
463 0 m 2,0,-1
 100 0 l 1,1,-1
 426 1413 l 1,2,-1
 780 1413 l 2,3,4
 1070 1413 1070 1413 1214.5 1282 c 128,-1,5
 1359 1151 1359 1151 1359 914 c 0,6,7
 1359 804 1359 804 1330 682 c 0,8,9
 1249 347 1249 347 1024.5 173.5 c 128,-1,10
 800 0 800 0 463 0 c 2,0,-1
462 145 m 2,11,12
 623 145 623 145 770 205.5 c 128,-1,13
 917 266 917 266 1030 400 c 0,14,15
 1135 529 1135 529 1180 721 c 0,16,17
 1203 824 1203 824 1203 905 c 0,18,19
 1203 1271 1203 1271 755 1271 c 2,20,-1
 553 1271 l 1,21,-1
 293 145 l 1,22,-1
 462 145 l 2,11,12
2153 0 m 1,23,-1
 1367 0 l 1,24,-1
 1390 113 l 1,25,-1
 2175 877 l 1,26,-1
 1598 877 l 1,27,-1
 1625 999 l 1,28,-1
 2382 999 l 1,29,-1
 2357 876 l 1,30,-1
 1586 128 l 1,31,-1
 2182 128 l 1,32,-1
 2153 0 l 1,23,-1
EndSplineSet
Position2: "'cpsp' Capital Spacing lookup 0 per glyph data 0" dx=5 dy=0 dh=10 dv=0
EndChar

StartChar: uni01F3
Encoding: 499 499 356
Width: 2144
GlyphClass: 1
Flags: W
LayerCount: 2
Fore
SplineSet
405 -20 m 0,0,1
 298 -20 298 -20 226.5 28.5 c 128,-1,2
 155 77 155 77 119.5 161.5 c 128,-1,3
 84 246 84 246 84 355 c 256,4,5
 84 464 84 464 117.5 581.5 c 128,-1,6
 151 699 151 699 215 801 c 0,7,8
 286 916 286 916 391.5 988 c 128,-1,9
 497 1060 497 1060 628 1060 c 0,10,11
 844 1060 844 1060 922 897 c 1,12,-1
 1058 1413 l 1,13,-1
 1214 1413 l 1,14,-1
 875 0 l 1,15,-1
 724 0 l 1,16,-1
 750 127 l 1,17,18
 606 -20 606 -20 405 -20 c 0,0,1
1944 0 m 1,19,-1
 1127 0 l 1,20,-1
 1150 113 l 1,21,-1
 1967 917 l 1,22,-1
 1367 917 l 1,23,-1
 1395 1039 l 1,24,-1
 2182 1039 l 1,25,-1
 2156 916 l 1,26,-1
 1354 128 l 1,27,-1
 1974 128 l 1,28,-1
 1944 0 l 1,19,-1
451 116 m 0,29,30
 558 116 558 116 639 172.5 c 128,-1,31
 720 229 720 229 774 323.5 c 128,-1,32
 828 418 828 418 854 535 c 0,33,34
 872 613 872 613 872 680 c 0,35,36
 872 752 872 752 850.5 806.5 c 128,-1,37
 829 861 829 861 781.5 891.5 c 128,-1,38
 734 922 734 922 659 922 c 0,39,40
 553 922 553 922 470.5 864.5 c 128,-1,41
 388 807 388 807 333.5 713 c 128,-1,42
 279 619 279 619 254 504 c 0,43,44
 235 421 235 421 235 360 c 0,45,46
 235 290 235 290 257 234.5 c 128,-1,47
 279 179 279 179 327 147.5 c 128,-1,48
 375 116 375 116 451 116 c 0,29,30
EndSplineSet
EndChar

StartChar: uni0237
Encoding: 567 567 367
Width: 535
GlyphClass: 2
Flags: W
LayerCount: 2
Fore
SplineSet
-134 -438 m 0,0,1
 -208 -438 -208 -438 -293 -405 c 1,2,-1
 -238 -277 l 1,3,4
 -186 -291 -186 -291 -131 -291 c 0,5,6
 -62 -291 -62 -291 -26 -249 c 128,-1,7
 10 -207 10 -207 22 -148 c 2,8,-1
 298 1039 l 1,9,-1
 467 1039 l 1,10,-1
 189 -150 l 2,11,12
 168 -236 168 -236 126.5 -301 c 128,-1,13
 85 -366 85 -366 20.5 -402 c 128,-1,14
 -44 -438 -44 -438 -134 -438 c 0,0,1
EndSplineSet
EndChar

StartChar: uni0250
Encoding: 592 592 368
Width: 1089
GlyphClass: 1
Flags: W
LayerCount: 2
Fore
SplineSet
469 -20 m 0,0,1
 359 -20 359 -20 286.5 18 c 128,-1,2
 214 56 214 56 179 123.5 c 128,-1,3
 144 191 144 191 144 280 c 0,4,5
 144 342 144 342 158 404 c 2,6,-1
 299 1035 l 1,7,-1
 427 1035 l 1,8,-1
 392 860 l 1,9,10
 482 961 482 961 578 1008.5 c 128,-1,11
 674 1056 674 1056 799 1056 c 0,12,13
 876 1056 876 1056 938 1026.5 c 128,-1,14
 1000 997 1000 997 1036.5 942 c 128,-1,15
 1073 887 1073 887 1073 811 c 0,16,17
 1073 775 1073 775 1064 734 c 0,18,19
 1030 583 1030 583 916 512 c 128,-1,20
 802 441 802 441 627 441 c 2,21,-1
 298 434 l 1,22,23
 281 359 281 359 281 297 c 0,24,25
 281 200 281 200 331 156 c 128,-1,26
 381 112 381 112 482 112 c 0,27,28
 577 112 577 112 661 158 c 128,-1,29
 745 204 745 204 804 270 c 1,30,-1
 901 170 l 1,31,32
 726 -20 726 -20 469 -20 c 0,0,1
328 558 m 1,33,-1
 633 565 l 2,34,35
 729 565 729 565 809.5 616.5 c 128,-1,36
 890 668 890 668 916 765 c 0,37,38
 921 789 921 789 921 805 c 0,39,40
 921 921 921 921 753 921 c 0,41,42
 651 921 651 921 561.5 866.5 c 128,-1,43
 472 812 472 812 410.5 729 c 128,-1,44
 349 646 349 646 328 558 c 1,33,-1
EndSplineSet
EndChar

StartChar: uni0254
Encoding: 596 596 369
Width: 996
GlyphClass: 1
Flags: W
LayerCount: 2
Fore
SplineSet
353 -20 m 0,0,1
 204 -20 204 -20 118 55 c 128,-1,2
 32 130 32 130 5 255 c 1,3,-1
 155 305 l 1,4,5
 160 208 160 208 216 157.5 c 128,-1,6
 272 107 272 107 357 107 c 0,7,8
 459 107 459 107 537 164.5 c 128,-1,9
 615 222 615 222 668.5 310.5 c 128,-1,10
 722 399 722 399 749 498.5 c 128,-1,11
 776 598 776 598 776 682 c 0,12,13
 776 791 776 791 727 859.5 c 128,-1,14
 678 928 678 928 569 928 c 0,15,16
 466 928 466 928 382 868 c 128,-1,17
 298 808 298 808 253 717 c 1,18,-1
 132 790 l 1,19,20
 212 925 212 925 325.5 990.5 c 128,-1,21
 439 1056 439 1056 571 1056 c 0,22,23
 690 1056 690 1056 768 1007 c 128,-1,24
 846 958 846 958 884.5 872 c 128,-1,25
 923 786 923 786 923 676 c 0,26,27
 923 575 923 575 891.5 461.5 c 128,-1,28
 860 348 860 348 796 243 c 0,29,30
 749 166 749 166 683 107.5 c 128,-1,31
 617 49 617 49 534.5 14.5 c 128,-1,32
 452 -20 452 -20 353 -20 c 0,0,1
EndSplineSet
EndChar

StartChar: uni0258
Encoding: 600 600 370
Width: 1066
GlyphClass: 1
Flags: W
LayerCount: 2
Fore
SplineSet
399 -12 m 0,0,1
 271 -12 271 -12 184 27.5 c 128,-1,2
 97 67 97 67 35 150 c 1,3,-1
 152 229 l 1,4,5
 193 168 193 168 254.5 143 c 128,-1,6
 316 118 316 118 413 118 c 0,7,8
 511 118 511 118 592 165 c 128,-1,9
 673 212 673 212 728.5 292.5 c 128,-1,10
 784 373 784 373 809 477 c 1,11,-1
 86 477 l 1,12,13
 87 503 87 503 91 520 c 0,14,15
 146 757 146 757 277.5 904.5 c 128,-1,16
 409 1052 409 1052 638 1052 c 0,17,18
 760 1052 760 1052 839 1002 c 128,-1,19
 918 952 918 952 956.5 866 c 128,-1,20
 995 780 995 780 995 670 c 0,21,22
 995 564 995 564 961.5 451 c 128,-1,23
 928 338 928 338 864 242 c 0,24,25
 814 167 814 167 745.5 110 c 128,-1,26
 677 53 677 53 590 20.5 c 128,-1,27
 503 -12 503 -12 399 -12 c 0,0,1
256 587 m 1,28,-1
 839 601 l 1,29,30
 848 651 848 651 849 695 c 0,31,32
 849 761 849 761 827 811.5 c 128,-1,33
 805 862 805 862 757 890.5 c 128,-1,34
 709 919 709 919 633 919 c 0,35,36
 534 919 534 919 457 875.5 c 128,-1,37
 380 832 380 832 329 757.5 c 128,-1,38
 278 683 278 683 256 587 c 1,28,-1
EndSplineSet
EndChar

StartChar: uni0259
Encoding: 601 601 371
Width: 1059
GlyphClass: 1
Flags: W
LayerCount: 2
Fore
SplineSet
417 -12 m 0,0,1
 235 -12 235 -12 154 80.5 c 128,-1,2
 73 173 73 173 73 333 c 0,3,4
 73 429 73 429 100 549 c 0,5,6
 102 560 102 560 109 576 c 1,7,-1
 829 576 l 1,8,9
 841 636 841 636 841 685 c 0,10,11
 841 791 841 791 784.5 856 c 128,-1,12
 728 921 728 921 614 921 c 0,13,14
 512 921 512 921 434 892 c 128,-1,15
 356 863 356 863 287 802 c 1,16,-1
 195 900 l 1,17,18
 291 979 291 979 391 1015.5 c 128,-1,19
 491 1052 491 1052 614 1052 c 0,20,21
 741 1052 741 1052 824.5 1003 c 128,-1,22
 908 954 908 954 949 869 c 128,-1,23
 990 784 990 784 990 673 c 0,24,25
 990 576 990 576 958 465 c 128,-1,26
 926 354 926 354 863 251 c 0,27,28
 815 174 815 174 748.5 115.5 c 128,-1,29
 682 57 682 57 599.5 22.5 c 128,-1,30
 517 -12 517 -12 417 -12 c 0,0,1
423 120 m 0,31,32
 520 120 520 120 596 165 c 128,-1,33
 672 210 672 210 723.5 285.5 c 128,-1,34
 775 361 775 361 799 452 c 1,35,-1
 215 438 l 1,36,37
 202 380 202 380 202 332 c 0,38,39
 202 237 202 237 254.5 178.5 c 128,-1,40
 307 120 307 120 423 120 c 0,31,32
EndSplineSet
EndChar

StartChar: uni0261
Encoding: 609 609 372
Width: 1172
GlyphClass: 1
Flags: W
LayerCount: 2
Fore
SplineSet
346 -433 m 0,0,1
 205 -433 205 -433 113 -379.5 c 128,-1,2
 21 -326 21 -326 -22 -230 c 1,3,-1
 110 -157 l 1,4,5
 167 -304 167 -304 353 -304 c 0,6,7
 450 -304 450 -304 524.5 -263.5 c 128,-1,8
 599 -223 599 -223 648.5 -152.5 c 128,-1,9
 698 -82 698 -82 720 8 c 2,10,-1
 754 137 l 1,11,12
 610 -16 610 -16 412 -16 c 0,13,14
 303 -16 303 -16 230 31.5 c 128,-1,15
 157 79 157 79 120.5 162.5 c 128,-1,16
 84 246 84 246 84 356 c 0,17,18
 84 463 84 463 117 580 c 128,-1,19
 150 697 150 697 214 802 c 0,20,21
 285 917 285 917 392 988.5 c 128,-1,22
 499 1060 499 1060 635 1060 c 0,23,24
 744 1060 744 1060 816 1014.5 c 128,-1,25
 888 969 888 969 921 894 c 1,26,-1
 958 1039 l 1,27,-1
 1114 1039 l 1,28,-1
 873 5 l 2,29,30
 842 -128 842 -128 773 -226 c 128,-1,31
 704 -324 704 -324 597 -378.5 c 128,-1,32
 490 -433 490 -433 346 -433 c 0,0,1
452 116 m 0,33,34
 558 116 558 116 639 174 c 128,-1,35
 720 232 720 232 774 327 c 128,-1,36
 828 422 828 422 854 537 c 0,37,38
 873 620 873 620 873 684 c 0,39,40
 873 754 873 754 851.5 809 c 128,-1,41
 830 864 830 864 783 895.5 c 128,-1,42
 736 927 736 927 661 927 c 0,43,44
 552 927 552 927 469 866.5 c 128,-1,45
 386 806 386 806 332 711 c 128,-1,46
 278 616 278 616 254 506 c 0,47,48
 236 429 236 429 236 362 c 0,49,50
 236 290 236 290 258 234.5 c 128,-1,51
 280 179 280 179 327.5 147.5 c 128,-1,52
 375 116 375 116 452 116 c 0,33,34
EndSplineSet
EndChar

StartChar: circumflex
Encoding: 710 710 374
Width: 758
GlyphClass: 1
Flags: W
LayerCount: 2
Fore
SplineSet
891 1098 m 1,0,-1
 735 1098 l 1,1,-1
 613 1284 l 1,2,-1
 400 1098 l 1,3,-1
 234 1098 l 1,4,-1
 644 1453 l 1,5,-1
 891 1098 l 1,0,-1
EndSplineSet
EndChar

StartChar: caron
Encoding: 711 711 375
Width: 761
GlyphClass: 1
Flags: W
LayerCount: 2
Fore
SplineSet
513 1081 m 1,0,-1
 260 1413 l 1,1,-1
 418 1413 l 1,2,-1
 540 1232 l 1,3,-1
 753 1413 l 1,4,-1
 917 1413 l 1,5,-1
 513 1081 l 1,0,-1
EndSplineSet
EndChar

StartChar: uni02D0
Encoding: 720 720 376
Width: 479
GlyphClass: 1
Flags: W
LayerCount: 2
Fore
SplineSet
259 637 m 1,0,-1
 29 999 l 1,1,-1
 431 1037 l 1,2,-1
 259 637 l 1,0,-1
48 -38 m 1,3,-1
 220 362 l 1,4,-1
 451 0 l 1,5,-1
 48 -38 l 1,3,-1
EndSplineSet
EndChar

StartChar: uni02D1
Encoding: 721 721 377
Width: 519
GlyphClass: 1
Flags: W
LayerCount: 2
Fore
SplineSet
279 265 m 1,0,-1
 48 628 l 1,1,-1
 451 666 l 1,2,-1
 279 265 l 1,0,-1
EndSplineSet
EndChar

StartChar: breve
Encoding: 728 728 378
Width: 836
GlyphClass: 1
Flags: W
LayerCount: 2
Fore
SplineSet
576 1143 m 0,0,1
 460 1143 460 1143 386.5 1195.5 c 128,-1,2
 313 1248 313 1248 313 1347 c 0,3,4
 313 1382 313 1382 321 1413 c 1,5,-1
 453 1413 l 1,6,7
 448 1390 448 1390 448 1373 c 0,8,9
 448 1315 448 1315 485.5 1286 c 128,-1,10
 523 1257 523 1257 579 1257 c 0,11,12
 655 1257 655 1257 717 1301.5 c 128,-1,13
 779 1346 779 1346 798 1413 c 1,14,-1
 930 1413 l 1,15,16
 897 1274 897 1274 800.5 1208.5 c 128,-1,17
 704 1143 704 1143 576 1143 c 0,0,1
EndSplineSet
EndChar

StartChar: dotaccent
Encoding: 729 729 379
Width: 526
GlyphClass: 1
Flags: W
LayerCount: 2
Fore
SplineSet
513 1221 m 1,0,-1
 340 1221 l 1,1,-1
 385 1413 l 1,2,-1
 557 1413 l 1,3,-1
 513 1221 l 1,0,-1
EndSplineSet
EndChar

StartChar: ring
Encoding: 730 730 380
Width: 639
GlyphClass: 1
Flags: W
LayerCount: 2
Fore
SplineSet
463 1079 m 0,0,1
 383 1079 383 1079 337.5 1127.5 c 128,-1,2
 292 1176 292 1176 292 1246 c 0,3,4
 292 1326 292 1326 346 1392 c 0,5,6
 381 1435 381 1435 429 1460.5 c 128,-1,7
 477 1486 477 1486 532 1486 c 0,8,9
 610 1486 610 1486 657 1437 c 128,-1,10
 704 1388 704 1388 704 1319 c 0,11,12
 704 1256 704 1256 668 1197.5 c 128,-1,13
 632 1139 632 1139 565 1104 c 0,14,15
 515 1079 515 1079 463 1079 c 0,0,1
473 1182 m 0,16,17
 520 1182 520 1182 559 1217.5 c 128,-1,18
 598 1253 598 1253 602 1310 c 0,19,20
 602 1339 602 1339 583 1359 c 0,21,22
 560 1382 560 1382 522 1382 c 0,23,24
 468 1382 468 1382 432.5 1346 c 128,-1,25
 397 1310 397 1310 397 1256 c 0,26,27
 397 1222 397 1222 418 1202 c 128,-1,28
 439 1182 439 1182 473 1182 c 0,16,17
EndSplineSet
EndChar

StartChar: ogonek
Encoding: 731 731 381
Width: 596
GlyphClass: 1
Flags: W
LayerCount: 2
Fore
SplineSet
164 -451 m 0,0,1
 87 -451 87 -451 39 -407 c 128,-1,2
 -9 -363 -9 -363 -9 -286 c 0,3,4
 -9 -189 -9 -189 60 -116 c 0,5,6
 148 -27 148 -27 259 2 c 1,7,-1
 384 -1 l 1,8,9
 351 -15 351 -15 297.5 -40.5 c 128,-1,10
 244 -66 244 -66 182 -120 c 128,-1,11
 120 -174 120 -174 104 -244 c 0,12,13
 100 -259 100 -259 100 -275 c 0,14,15
 100 -306 100 -306 116.5 -321.5 c 128,-1,16
 133 -337 133 -337 158 -337 c 0,17,18
 242 -337 242 -337 303 -268 c 1,19,-1
 386 -343 l 1,20,21
 336 -398 336 -398 283 -424.5 c 128,-1,22
 230 -451 230 -451 164 -451 c 0,0,1
EndSplineSet
EndChar

StartChar: tilde
Encoding: 732 732 382
Width: 1008
GlyphClass: 1
Flags: W
LayerCount: 2
Fore
SplineSet
804 1149 m 0,0,1
 750 1149 750 1149 718.5 1175 c 128,-1,2
 687 1201 687 1201 661 1245 c 0,3,4
 641 1277 641 1277 625.5 1291.5 c 128,-1,5
 610 1306 610 1306 589 1306 c 0,6,7
 549 1306 549 1306 519.5 1266 c 128,-1,8
 490 1226 490 1226 476 1169 c 1,9,-1
 375 1169 l 1,10,11
 400 1283 400 1283 453.5 1351 c 128,-1,12
 507 1419 507 1419 588 1419 c 0,13,14
 647 1419 647 1419 680 1392 c 128,-1,15
 713 1365 713 1365 738 1319 c 0,16,17
 757 1288 757 1288 771 1274 c 128,-1,18
 785 1260 785 1260 805 1260 c 0,19,20
 847 1260 847 1260 877.5 1303 c 128,-1,21
 908 1346 908 1346 925 1413 c 1,22,-1
 1031 1413 l 1,23,24
 970 1149 970 1149 804 1149 c 0,0,1
EndSplineSet
EndChar

StartChar: hungarumlaut
Encoding: 733 733 383
Width: 866
GlyphClass: 1
Flags: W
LayerCount: 2
Fore
SplineSet
347 1119 m 1,0,-1
 209 1119 l 1,1,-1
 493 1413 l 1,2,-1
 685 1413 l 1,3,-1
 347 1119 l 1,0,-1
677 1119 m 1,4,-1
 539 1119 l 1,5,-1
 823 1413 l 1,6,-1
 1020 1413 l 1,7,-1
 677 1119 l 1,4,-1
EndSplineSet
EndChar

StartChar: uni02F5
Encoding: 757 757 384
Width: 1235
GlyphClass: 1
Flags: W
LayerCount: 2
Fore
SplineSet
745 717 m 1,0,-1
 578 717 l 1,1,-1
 335 999 l 1,2,-1
 532 999 l 1,3,-1
 745 717 l 1,0,-1
1032 717 m 1,4,-1
 865 717 l 1,5,-1
 622 999 l 1,6,-1
 820 999 l 1,7,-1
 1032 717 l 1,4,-1
EndSplineSet
EndChar

StartChar: uni02F6
Encoding: 758 758 385
Width: 1234
GlyphClass: 1
Flags: W
LayerCount: 2
Fore
SplineSet
368 717 m 1,0,-1
 202 717 l 1,1,-1
 415 999 l 1,2,-1
 612 999 l 1,3,-1
 368 717 l 1,0,-1
639 717 m 1,4,-1
 473 717 l 1,5,-1
 686 999 l 1,6,-1
 883 999 l 1,7,-1
 639 717 l 1,4,-1
EndSplineSet
EndChar

StartChar: gravecomb
Encoding: 768 768 386
Width: 0
GlyphClass: 4
Flags: W
AnchorPoint: "Anchor-1" -30 1041 mark 0
LayerCount: 2
Fore
SplineSet
73 1164 m 1,0,-1
 -75 1164 l 1,1,-1
 -266 1455 l 1,2,-1
 -77 1455 l 1,3,-1
 73 1164 l 1,0,-1
EndSplineSet
EndChar

StartChar: acutecomb
Encoding: 769 769 387
Width: 0
GlyphClass: 4
Flags: W
AnchorPoint: "Anchor-1" -228 1039 mark 0
LayerCount: 2
Fore
SplineSet
-188 1164 m 1,0,-1
 -327 1164 l 1,1,-1
 -42 1453 l 1,2,-1
 155 1453 l 1,3,-1
 -188 1164 l 1,0,-1
EndSplineSet
EndChar

StartChar: uni0302
Encoding: 770 770 388
Width: 0
GlyphClass: 4
Flags: W
AnchorPoint: "Anchor-1" -211 1039 mark 0
LayerCount: 2
Fore
SplineSet
85 1138 m 1,0,-1
 -71 1138 l 1,1,-1
 -193 1324 l 1,2,-1
 -406 1138 l 1,3,-1
 -572 1138 l 1,4,-1
 -162 1493 l 1,5,-1
 85 1138 l 1,0,-1
EndSplineSet
EndChar

StartChar: tildecomb
Encoding: 771 771 389
Width: 0
GlyphClass: 4
Flags: W
AnchorPoint: "Anchor-1" -277 1060 mark 0
LayerCount: 2
Fore
SplineSet
-107 1189 m 0,0,1
 -161 1189 -161 1189 -192.5 1215 c 128,-1,2
 -224 1241 -224 1241 -250 1285 c 0,3,4
 -270 1317 -270 1317 -285.5 1331.5 c 128,-1,5
 -301 1346 -301 1346 -322 1346 c 0,6,7
 -362 1346 -362 1346 -391.5 1306 c 128,-1,8
 -421 1266 -421 1266 -435 1209 c 1,9,-1
 -536 1209 l 1,10,11
 -511 1323 -511 1323 -457.5 1391 c 128,-1,12
 -404 1459 -404 1459 -323 1459 c 0,13,14
 -264 1459 -264 1459 -231 1432 c 128,-1,15
 -198 1405 -198 1405 -173 1359 c 0,16,17
 -154 1328 -154 1328 -140 1314 c 128,-1,18
 -126 1300 -126 1300 -106 1300 c 0,19,20
 -64 1300 -64 1300 -33.5 1343 c 128,-1,21
 -3 1386 -3 1386 14 1453 c 1,22,-1
 120 1453 l 1,23,24
 59 1189 59 1189 -107 1189 c 0,0,1
EndSplineSet
EndChar

StartChar: uni0304
Encoding: 772 772 390
Width: 0
GlyphClass: 4
Flags: W
AnchorPoint: "Anchor-1" -303 1059 mark 0
LayerCount: 2
Fore
SplineSet
-6 1243 m 5,0,-1
 -547 1243 l 5,1,-1
 -518 1368 l 5,2,-1
 23 1368 l 5,3,-1
 -6 1243 l 5,0,-1
EndSplineSet
EndChar

StartChar: uni0306
Encoding: 774 774 391
Width: 0
GlyphClass: 4
Flags: W
AnchorPoint: "Anchor-1" -291 1039 mark 0
LayerCount: 2
Fore
SplineSet
-257 1183 m 0,0,1
 -373 1183 -373 1183 -446.5 1235.5 c 128,-1,2
 -520 1288 -520 1288 -520 1387 c 0,3,4
 -520 1422 -520 1422 -512 1453 c 1,5,-1
 -380 1453 l 1,6,7
 -385 1430 -385 1430 -385 1413 c 0,8,9
 -385 1355 -385 1355 -347.5 1326 c 128,-1,10
 -310 1297 -310 1297 -254 1297 c 0,11,12
 -178 1297 -178 1297 -116 1341.5 c 128,-1,13
 -54 1386 -54 1386 -35 1453 c 1,14,-1
 97 1453 l 1,15,16
 64 1314 64 1314 -32.5 1248.5 c 128,-1,17
 -129 1183 -129 1183 -257 1183 c 0,0,1
EndSplineSet
EndChar

StartChar: uni0307
Encoding: 775 775 392
Width: 0
GlyphClass: 4
Flags: W
AnchorPoint: "Anchor-1" -141 1039 mark 0
LayerCount: 2
Fore
SplineSet
-10 1261 m 1,0,-1
 -183 1261 l 1,1,-1
 -138 1453 l 1,2,-1
 34 1453 l 1,3,-1
 -10 1261 l 1,0,-1
EndSplineSet
EndChar

StartChar: uni0308
Encoding: 776 776 393
Width: 0
GlyphClass: 4
Flags: W
AnchorPoint: "Anchor-1" -305 1039 mark 0
LayerCount: 2
Fore
SplineSet
-335 1261 m 1,0,-1
 -503 1261 l 1,1,-1
 -459 1453 l 1,2,-1
 -290 1453 l 1,3,-1
 -335 1261 l 1,0,-1
2 1261 m 1,4,-1
 -167 1261 l 1,5,-1
 -123 1453 l 1,6,-1
 46 1453 l 1,7,-1
 2 1261 l 1,4,-1
EndSplineSet
EndChar

StartChar: hookabovecomb
Encoding: 777 777 394
Width: 0
GlyphClass: 4
Flags: W
AnchorPoint: "Anchor-1" -204 1026 mark 0
LayerCount: 2
Fore
SplineSet
-242 1083 m 1,0,-1
 -249 1154 l 1,1,2
 -208 1162 -208 1162 -175 1171.5 c 128,-1,3
 -142 1181 -142 1181 -119 1195.5 c 128,-1,4
 -96 1210 -96 1210 -83.5 1231 c 128,-1,5
 -71 1252 -71 1252 -71 1283 c 0,6,7
 -71 1328 -71 1328 -115.5 1350.5 c 128,-1,8
 -160 1373 -160 1373 -238 1373 c 2,9,-1
 -269 1373 l 1,10,-1
 -249 1476 l 1,11,-1
 -219 1476 l 2,12,13
 -158 1476 -158 1476 -108.5 1464.5 c 128,-1,14
 -59 1453 -59 1453 -24.5 1431.5 c 128,-1,15
 10 1410 10 1410 29 1379 c 128,-1,16
 48 1348 48 1348 48 1309 c 0,17,18
 46 1251 46 1251 26 1213.5 c 128,-1,19
 6 1176 6 1176 -31 1151 c 128,-1,20
 -68 1126 -68 1126 -121.5 1111 c 128,-1,21
 -175 1096 -175 1096 -242 1083 c 1,0,-1
EndSplineSet
EndChar

StartChar: uni030A
Encoding: 778 778 395
Width: 0
GlyphClass: 4
Flags: W
AnchorPoint: "Anchor-1" -201 1039 mark 0
LayerCount: 2
Fore
SplineSet
-175 1119 m 0,0,1
 -255 1119 -255 1119 -300.5 1167.5 c 128,-1,2
 -346 1216 -346 1216 -346 1286 c 0,3,4
 -346 1366 -346 1366 -292 1432 c 0,5,6
 -257 1475 -257 1475 -209 1500.5 c 128,-1,7
 -161 1526 -161 1526 -106 1526 c 0,8,9
 -28 1526 -28 1526 19 1477 c 128,-1,10
 66 1428 66 1428 66 1359 c 0,11,12
 66 1296 66 1296 30 1237.5 c 128,-1,13
 -6 1179 -6 1179 -73 1144 c 0,14,15
 -123 1119 -123 1119 -175 1119 c 0,0,1
-165 1222 m 0,16,17
 -118 1222 -118 1222 -79 1257.5 c 128,-1,18
 -40 1293 -40 1293 -36 1350 c 0,19,20
 -36 1379 -36 1379 -55 1399 c 0,21,22
 -78 1422 -78 1422 -116 1422 c 0,23,24
 -170 1422 -170 1422 -205.5 1386 c 128,-1,25
 -241 1350 -241 1350 -241 1296 c 0,26,27
 -241 1262 -241 1262 -220 1242 c 128,-1,28
 -199 1222 -199 1222 -165 1222 c 0,16,17
EndSplineSet
EndChar

StartChar: uni030B
Encoding: 779 779 396
Width: 0
GlyphClass: 4
Flags: W
AnchorPoint: "Anchor-1" -432 1039 mark 0
LayerCount: 2
Fore
SplineSet
-517 1159 m 1,0,-1
 -655 1159 l 1,1,-1
 -371 1453 l 1,2,-1
 -179 1453 l 1,3,-1
 -517 1159 l 1,0,-1
-187 1159 m 1,4,-1
 -325 1159 l 1,5,-1
 -41 1453 l 1,6,-1
 156 1453 l 1,7,-1
 -187 1159 l 1,4,-1
EndSplineSet
EndChar

StartChar: uni030C
Encoding: 780 780 397
Width: 0
GlyphClass: 4
Flags: W
AnchorPoint: "Anchor-1" -213 1039 mark 0
LayerCount: 2
Fore
SplineSet
-241 1121 m 1,0,-1
 -494 1453 l 1,1,-1
 -336 1453 l 1,2,-1
 -214 1272 l 1,3,-1
 -1 1453 l 1,4,-1
 163 1453 l 1,5,-1
 -241 1121 l 1,0,-1
EndSplineSet
EndChar

StartChar: uni030F
Encoding: 783 783 398
Width: 0
GlyphClass: 4
Flags: W
AnchorPoint: "Anchor-1" -227 1039 mark 0
LayerCount: 2
Fore
SplineSet
-261 1159 m 1,0,-1
 -427 1159 l 1,1,-1
 -617 1453 l 1,2,-1
 -410 1453 l 1,3,-1
 -261 1159 l 1,0,-1
72 1159 m 1,4,-1
 -96 1159 l 1,5,-1
 -285 1453 l 1,6,-1
 -78 1453 l 1,7,-1
 72 1159 l 1,4,-1
EndSplineSet
EndChar

StartChar: uni0312
Encoding: 786 786 399
Width: 0
GlyphClass: 4
Flags: W
AnchorPoint: "Anchor-1" -177 1039 mark 0
LayerCount: 2
Fore
SplineSet
-69 1163 m 1,0,-1
 -284 1163 l 1,1,-1
 21 1463 l 1,2,-1
 132 1463 l 1,3,-1
 -69 1163 l 1,0,-1
EndSplineSet
EndChar

StartChar: uni031B
Encoding: 795 795 400
Width: 0
GlyphClass: 1
Flags: W
LayerCount: 2
Fore
SplineSet
-302 992 m 1,0,-1
 -282 1100 l 1,1,2
 -191 1100 -191 1100 -141 1151.5 c 128,-1,3
 -91 1203 -91 1203 -70 1311 c 2,4,-1
 -53 1394 l 1,5,-1
 61 1394 l 1,6,-1
 42 1302 l 2,7,8
 14 1158 14 1158 -71.5 1075 c 128,-1,9
 -157 992 -157 992 -302 992 c 1,0,-1
EndSplineSet
EndChar

StartChar: dotbelowcomb
Encoding: 803 803 401
Width: 0
GlyphClass: 4
Flags: W
AnchorPoint: "Anchor-1" -471 -471 mark 0
LayerCount: 2
Fore
SplineSet
-270 -329 m 1,0,-1
 -443 -329 l 1,1,-1
 -398 -137 l 1,2,-1
 -226 -137 l 1,3,-1
 -270 -329 l 1,0,-1
EndSplineSet
EndChar

StartChar: uni0326
Encoding: 806 806 402
Width: 0
GlyphClass: 4
Flags: W
AnchorPoint: "Anchor-3" -465 -459 basemark 0
AnchorPoint: "Anchor-3" -291 0 mark 0
AnchorPoint: "Anchor-0" -291 0 mark 0
LayerCount: 2
Fore
SplineSet
-512 -446 m 1,0,-1
 -623 -446 l 1,1,-1
 -422 -111 l 1,2,-1
 -207 -111 l 1,3,-1
 -512 -446 l 1,0,-1
EndSplineSet
EndChar

StartChar: uni0327
Encoding: 807 807 403
Width: 0
GlyphClass: 4
Flags: W
AnchorPoint: "Anchor-3" -514 -500 basemark 0
AnchorPoint: "Anchor-3" -375 0 mark 0
AnchorPoint: "Anchor-0" -375 0 mark 0
LayerCount: 2
Fore
SplineSet
-518 -504 m 0,0,1
 -584 -504 -584 -504 -627 -465.5 c 128,-1,2
 -670 -427 -670 -427 -681 -373 c 1,3,-1
 -574 -336 l 1,4,-1
 -574 -341 l 2,5,6
 -574 -366 -574 -366 -557.5 -383.5 c 128,-1,7
 -541 -401 -541 -401 -510 -401 c 0,8,9
 -462 -401 -462 -401 -424 -369 c 128,-1,10
 -386 -337 -386 -337 -376 -291 c 0,11,12
 -374 -284 -374 -284 -374 -271 c 0,13,14
 -374 -232 -374 -232 -411.5 -206 c 128,-1,15
 -449 -180 -449 -180 -526 -180 c 2,16,-1
 -574 -180 l 1,17,-1
 -440 0 l 1,18,-1
 -317 0 l 1,19,-1
 -421 -117 l 1,20,21
 -345 -120 -345 -120 -306 -160 c 128,-1,22
 -267 -200 -267 -200 -267 -262 c 0,23,24
 -267 -338 -267 -338 -319 -405 c 0,25,26
 -354 -449 -354 -449 -405 -476.5 c 128,-1,27
 -456 -504 -456 -504 -518 -504 c 0,0,1
EndSplineSet
EndChar

StartChar: uni0328
Encoding: 808 808 404
Width: 0
GlyphClass: 4
Flags: W
AnchorPoint: "Anchor-2" -263 0 mark 0
LayerCount: 2
Fore
SplineSet
-488 -451 m 0,0,1
 -565 -451 -565 -451 -613 -407 c 128,-1,2
 -661 -363 -661 -363 -661 -286 c 0,3,4
 -661 -189 -661 -189 -592 -116 c 0,5,6
 -504 -27 -504 -27 -393 2 c 1,7,-1
 -268 -1 l 1,8,9
 -301 -15 -301 -15 -354.5 -40.5 c 128,-1,10
 -408 -66 -408 -66 -470 -120 c 128,-1,11
 -532 -174 -532 -174 -548 -244 c 0,12,13
 -552 -259 -552 -259 -552 -275 c 0,14,15
 -552 -306 -552 -306 -535.5 -321.5 c 128,-1,16
 -519 -337 -519 -337 -494 -337 c 0,17,18
 -410 -337 -410 -337 -349 -268 c 1,19,-1
 -266 -343 l 1,20,21
 -316 -398 -316 -398 -369 -424.5 c 128,-1,22
 -422 -451 -422 -451 -488 -451 c 0,0,1
EndSplineSet
EndChar

StartChar: pi
Encoding: 960 960 405
Width: 1023
GlyphClass: 1
Flags: W
LayerCount: 2
Fore
SplineSet
745 -20 m 0,0,1
 661 -20 661 -20 616.5 36 c 128,-1,2
 572 92 572 92 572 169 c 0,3,4
 572 198 572 198 578 228 c 2,5,-1
 724 889 l 1,6,-1
 438 889 l 1,7,-1
 234 0 l 1,8,-1
 78 0 l 1,9,-1
 281 889 l 1,10,-1
 196 889 l 1,11,-1
 231 1039 l 1,12,-1
 1002 1039 l 1,13,-1
 966 889 l 1,14,-1
 881 889 l 1,15,-1
 727 215 l 2,16,17
 720 185 720 185 720 162 c 0,18,19
 720 106 720 106 767 106 c 0,20,21
 794 106 794 106 832 129 c 1,22,-1
 857 7 l 1,23,24
 807 -20 807 -20 745 -20 c 0,0,1
EndSplineSet
EndChar

StartChar: uni0402
Encoding: 1026 1026 408
Width: 1631
GlyphClass: 1
Flags: W
LayerCount: 2
Fore
SplineSet
1031 -17 m 0,0,1
 927 -17 927 -17 851 17.5 c 128,-1,2
 775 52 775 52 733 114 c 1,3,-1
 851 211 l 1,4,5
 902 127 902 127 1037 127 c 0,6,7
 1110 127 1110 127 1175 172.5 c 128,-1,8
 1240 218 1240 218 1287.5 295 c 128,-1,9
 1335 372 1335 372 1358 470.5 c 128,-1,10
 1381 569 1381 569 1381 640 c 0,11,12
 1381 752 1381 752 1318 801.5 c 128,-1,13
 1255 851 1255 851 1123 851 c 0,14,15
 1011 851 1011 851 911.5 807.5 c 128,-1,16
 812 764 812 764 747 699 c 1,17,-1
 582 0 l 1,18,-1
 424 0 l 1,19,-1
 719 1284 l 1,20,-1
 240 1284 l 1,21,-1
 271 1413 l 1,22,-1
 1385 1413 l 1,23,-1
 1355 1284 l 1,24,-1
 878 1284 l 1,25,-1
 780 880 l 1,26,27
 952 1001 952 1001 1134 1001 c 0,28,29
 1538 1001 1538 1001 1538 646 c 0,30,31
 1538 557 1538 557 1512 444 c 0,32,33
 1483 320 1483 320 1413.5 214.5 c 128,-1,34
 1344 109 1344 109 1240 44 c 0,35,36
 1140 -17 1140 -17 1031 -17 c 0,0,1
EndSplineSet
Position2: "'cpsp' Capital Spacing lookup 0 per glyph data 0" dx=5 dy=0 dh=10 dv=0
EndChar

StartChar: uni0404
Encoding: 1028 1028 410
Width: 1424
GlyphClass: 1
Flags: W
LayerCount: 2
Fore
SplineSet
651 -20 m 0,0,1
 479 -20 479 -20 367.5 45 c 128,-1,2
 256 110 256 110 201.5 224.5 c 128,-1,3
 147 339 147 339 147 488 c 0,4,5
 147 629 147 629 193.5 788.5 c 128,-1,6
 240 948 240 948 328 1084 c 0,7,8
 394 1187 394 1187 487.5 1266.5 c 128,-1,9
 581 1346 581 1346 700 1391 c 128,-1,10
 819 1436 819 1436 962 1436 c 0,11,12
 1163 1436 1163 1436 1291 1338 c 128,-1,13
 1419 1240 1419 1240 1459 1053 c 1,14,-1
 1305 1007 l 1,15,16
 1297 1155 1297 1155 1200.5 1222 c 128,-1,17
 1104 1289 1104 1289 949 1289 c 0,18,19
 793 1289 793 1289 672 1218 c 128,-1,20
 551 1147 551 1147 469 1028.5 c 128,-1,21
 387 910 387 910 345 764 c 1,22,-1
 976 771 l 1,23,-1
 949 654 l 1,24,-1
 316 647 l 1,25,26
 303 573 303 573 303 500 c 0,27,28
 303 326 303 326 390.5 226 c 128,-1,29
 478 126 478 126 662 126 c 0,30,31
 983 126 983 126 1166 425 c 1,32,-1
 1302 351 l 1,33,34
 1174 159 1174 159 1005.5 69.5 c 128,-1,35
 837 -20 837 -20 651 -20 c 0,0,1
EndSplineSet
Position2: "'cpsp' Capital Spacing lookup 0 per glyph data 0" dx=5 dy=0 dh=10 dv=0
EndChar

StartChar: uni0409
Encoding: 1033 1033 415
Width: 2013
GlyphClass: 1
Flags: W
LayerCount: 2
Fore
SplineSet
111 -20 m 0,0,1
 19 -20 19 -20 -54 26 c 1,2,-1
 32 166 l 1,3,4
 85 144 85 144 127 144 c 0,5,6
 193 144 193 144 262 264 c 0,7,8
 335 394 335 394 390 562 c 128,-1,9
 445 730 445 730 480 888 c 2,10,-1
 602 1413 l 1,11,-1
 1447 1413 l 1,12,-1
 1300 776 l 1,13,-1
 1534 776 l 2,14,15
 1647 776 1647 776 1731.5 743.5 c 128,-1,16
 1816 711 1816 711 1863.5 645 c 128,-1,17
 1911 579 1911 579 1911 481 c 0,18,19
 1911 397 1911 397 1879.5 316 c 128,-1,20
 1848 235 1848 235 1797 174 c 0,21,22
 1720 87 1720 87 1609 43.5 c 128,-1,23
 1498 0 1498 0 1365 0 c 2,24,-1
 964 0 l 1,25,-1
 1259 1278 l 1,26,-1
 728 1278 l 1,27,-1
 634 875 l 2,28,29
 581 642 581 642 523 459 c 128,-1,30
 465 276 465 276 361 128 c 128,-1,31
 257 -20 257 -20 111 -20 c 0,0,1
1386 141 m 2,32,33
 1527 141 1527 141 1623.5 210 c 128,-1,34
 1720 279 1720 279 1750 406 c 0,35,36
 1758 443 1758 443 1758 469 c 0,37,38
 1758 553 1758 553 1694 594 c 128,-1,39
 1630 635 1630 635 1512 635 c 2,40,-1
 1268 635 l 1,41,-1
 1153 141 l 1,42,-1
 1386 141 l 2,32,33
EndSplineSet
Position2: "'cpsp' Capital Spacing lookup 0 per glyph data 0" dx=5 dy=0 dh=10 dv=0
EndChar

StartChar: uni040A
Encoding: 1034 1034 416
Width: 2020
GlyphClass: 1
Flags: W
LayerCount: 2
Fore
SplineSet
1372 0 m 2,0,-1
 970 0 l 1,1,-1
 1116 639 l 1,2,-1
 401 639 l 1,3,-1
 254 0 l 1,4,-1
 97 0 l 1,5,-1
 423 1413 l 1,6,-1
 580 1413 l 1,7,-1
 433 774 l 1,8,-1
 1148 774 l 1,9,-1
 1295 1413 l 1,10,-1
 1454 1413 l 1,11,-1
 1307 776 l 1,12,-1
 1541 776 l 2,13,14
 1654 776 1654 776 1738.5 743.5 c 128,-1,15
 1823 711 1823 711 1870.5 645 c 128,-1,16
 1918 579 1918 579 1918 481 c 0,17,18
 1918 397 1918 397 1886.5 316 c 128,-1,19
 1855 235 1855 235 1804 174 c 0,20,21
 1727 87 1727 87 1616 43.5 c 128,-1,22
 1505 0 1505 0 1372 0 c 2,0,-1
1393 141 m 2,23,24
 1533 141 1533 141 1629 210 c 128,-1,25
 1725 279 1725 279 1755 406 c 0,26,27
 1763 443 1763 443 1763 470 c 0,28,29
 1763 553 1763 553 1699.5 594 c 128,-1,30
 1636 635 1636 635 1519 635 c 2,31,-1
 1275 635 l 1,32,-1
 1160 141 l 1,33,-1
 1393 141 l 2,23,24
EndSplineSet
Position2: "'cpsp' Capital Spacing lookup 0 per glyph data 0" dx=5 dy=0 dh=10 dv=0
EndChar

StartChar: uni040B
Encoding: 1035 1035 417
Width: 1652
GlyphClass: 1
Flags: W
LayerCount: 2
Fore
SplineSet
1410 0 m 1,0,-1
 1251 0 l 1,1,-1
 1345 408 l 2,2,3
 1372 524 1372 524 1372 607 c 0,4,5
 1372 729 1372 729 1311.5 790 c 128,-1,6
 1251 851 1251 851 1123 851 c 0,7,8
 1011 851 1011 851 911.5 807.5 c 128,-1,9
 812 764 812 764 747 699 c 1,10,-1
 582 0 l 1,11,-1
 424 0 l 1,12,-1
 719 1284 l 1,13,-1
 240 1284 l 1,14,-1
 271 1413 l 1,15,-1
 1385 1413 l 1,16,-1
 1355 1284 l 1,17,-1
 878 1284 l 1,18,-1
 782 880 l 1,19,20
 927 1001 927 1001 1134 1001 c 0,21,22
 1335 1001 1335 1001 1431 896.5 c 128,-1,23
 1527 792 1527 792 1527 607 c 0,24,25
 1527 506 1527 506 1500 389 c 2,26,-1
 1410 0 l 1,0,-1
EndSplineSet
Position2: "'cpsp' Capital Spacing lookup 0 per glyph data 0" dx=5 dy=0 dh=10 dv=0
EndChar

StartChar: uni040F
Encoding: 1039 1039 421
Width: 1453
GlyphClass: 1
Flags: W
LayerCount: 2
Fore
SplineSet
619 -307 m 1,0,-1
 462 -307 l 1,1,-1
 533 0 l 1,2,-1
 97 0 l 1,3,-1
 423 1413 l 1,4,-1
 580 1413 l 1,5,-1
 285 137 l 1,6,-1
 1000 137 l 1,7,-1
 1295 1413 l 1,8,-1
 1452 1413 l 1,9,-1
 1127 0 l 1,10,-1
 691 0 l 1,11,-1
 619 -307 l 1,0,-1
EndSplineSet
Position2: "'cpsp' Capital Spacing lookup 0 per glyph data 0" dx=5 dy=0 dh=10 dv=0
EndChar

StartChar: uni0411
Encoding: 1041 1041 423
Width: 1251
GlyphClass: 1
Flags: W
LayerCount: 2
Fore
SplineSet
569 0 m 2,0,-1
 100 0 l 1,1,-1
 426 1413 l 1,2,-1
 1172 1413 l 1,3,-1
 1139 1270 l 1,4,-1
 550 1270 l 1,5,-1
 441 793 l 1,6,-1
 767 793 l 2,7,8
 871 793 871 793 949.5 761 c 128,-1,9
 1028 729 1028 729 1072 664 c 128,-1,10
 1116 599 1116 599 1116 499 c 0,11,12
 1116 417 1116 417 1087.5 330.5 c 128,-1,13
 1059 244 1059 244 998 174 c 0,14,15
 919 86 919 86 807.5 43 c 128,-1,16
 696 0 696 0 569 0 c 2,0,-1
596 147 m 2,17,18
 710 147 710 147 814.5 219.5 c 128,-1,19
 919 292 919 292 951 415 c 0,20,21
 957 444 957 444 957 470 c 0,22,23
 957 529 957 529 926.5 568.5 c 128,-1,24
 896 608 896 608 843.5 628 c 128,-1,25
 791 648 791 648 726 648 c 2,26,-1
 406 648 l 1,27,-1
 292 147 l 1,28,-1
 596 147 l 2,17,18
EndSplineSet
Position2: "'cpsp' Capital Spacing lookup 0 per glyph data 0" dx=5 dy=0 dh=10 dv=0
EndChar

StartChar: uni0413
Encoding: 1043 1043 425
Width: 1078
GlyphClass: 1
Flags: W
LayerCount: 2
Fore
SplineSet
258 0 m 1,0,-1
 100 0 l 1,1,-1
 426 1413 l 1,2,-1
 1223 1413 l 1,3,-1
 1192 1278 l 1,4,-1
 553 1278 l 1,5,-1
 258 0 l 1,0,-1
EndSplineSet
Position2: "'cpsp' Capital Spacing lookup 0 per glyph data 0" dx=5 dy=0 dh=10 dv=0
EndChar

StartChar: uni0414
Encoding: 1044 1044 426
Width: 1448
GlyphClass: 2
Flags: W
LayerCount: 2
Fore
SplineSet
1149 -307 m 1,0,-1
 994 -307 l 1,1,-1
 1065 0 l 1,2,-1
 104 0 l 1,3,-1
 32 -307 l 1,4,-1
 -125 -307 l 1,5,-1
 -23 137 l 1,6,-1
 111 144 l 1,7,8
 251 330 251 330 332.5 503.5 c 128,-1,9
 414 677 414 677 469 917 c 1,10,-1
 472 928 l 1,11,-1
 472 931 l 1,12,-1
 473 931 l 1,13,-1
 482 973 l 1,14,-1
 482 976 l 1,15,-1
 483 976 l 1,16,-1
 487 993 l 2,17,18
 487 996 487 996 492 1015 c 2,19,-1
 509 1090 l 2,20,21
 509 1092 509 1092 510 1092 c 1,22,-1
 510 1096 l 1,23,-1
 511 1096 l 1,24,-1
 514 1113 l 1,25,-1
 526 1165 l 2,26,27
 526 1167 526 1167 527 1167 c 1,28,-1
 527 1171 l 1,29,-1
 528 1171 l 1,30,-1
 531 1188 l 1,31,-1
 543 1240 l 2,32,33
 543 1242 543 1242 544 1242 c 1,34,-1
 544 1246 l 1,35,-1
 545 1246 l 1,36,-1
 550 1270 l 2,37,38
 555 1289 555 1289 555 1293 c 0,39,40
 561 1316 561 1316 562 1323 c 0,41,42
 567 1342 567 1342 567 1345 c 2,43,-1
 572 1362 l 1,44,-1
 572 1366 l 1,45,-1
 573 1366 l 1,46,-1
 581 1405 l 2,47,48
 581 1407 581 1407 582 1407 c 1,49,-1
 582 1411 l 1,50,-1
 583 1411 l 1,51,-1
 583 1413 l 1,52,-1
 1425 1413 l 1,53,-1
 1130 137 l 1,54,-1
 1251 137 l 1,55,-1
 1149 -307 l 1,0,-1
272 130 m 1,56,-1
 973 137 l 1,57,-1
 1237 1278 l 1,58,-1
 710 1278 l 1,59,-1
 624 911 l 2,60,61
 569 662 569 662 490 488.5 c 128,-1,62
 411 315 411 315 272 130 c 1,56,-1
472 928 m 1024,63,64
EndSplineSet
Substitution2: "'ss02' Style Set 2 lookup 16 subtable" uni0414.1
Substitution2: "'ss03' Style Set 3 lookup 15 subtable" uni0431.loclSRB
Substitution2: "'locl' Localized Forms in Cyrillic lookup 10 subtable" uni0414.1
Substitution2: "'locl' Localized Forms in Cyrillic lookup 9 subtable" uni0414.loclSRB
Substitution2: "'locl' Localized Forms in Cyrillic lookup 8 subtable" uni0414.loclSRB
AlternateSubs2: "'aalt' Access All Alternates lookup 1 subtable" uni0431.loclSRB uni0414.1
Position2: "'cpsp' Capital Spacing lookup 0 per glyph data 0" dx=5 dy=0 dh=10 dv=0
EndChar

StartChar: uni0416
Encoding: 1046 1046 428
Width: 1961
GlyphClass: 1
Flags: W
LayerCount: 2
Fore
SplineSet
1769 0 m 1,0,-1
 1583 0 l 1,1,-1
 1514 570 l 2,2,3
 1510 606 1510 606 1491.5 636.5 c 128,-1,4
 1473 667 1473 667 1440 686 c 128,-1,5
 1407 705 1407 705 1358 705 c 2,6,-1
 1107 705 l 1,7,-1
 945 0 l 1,8,-1
 788 0 l 1,9,-1
 949 705 l 1,10,-1
 711 705 l 2,11,12
 637 705 637 705 578 661.5 c 128,-1,13
 519 618 519 618 485 556 c 2,14,-1
 152 0 l 1,15,-1
 -40 0 l 1,16,-1
 353 650 l 2,17,18
 372 684 372 684 413.5 722 c 128,-1,19
 455 760 455 760 511.5 788 c 128,-1,20
 568 816 568 816 632 816 c 1,21,-1
 366 1413 l 1,22,-1
 561 1413 l 1,23,-1
 811 839 l 1,24,-1
 980 839 l 1,25,-1
 1114 1413 l 1,26,-1
 1271 1413 l 1,27,-1
 1137 839 l 1,28,-1
 1303 839 l 1,29,-1
 1818 1413 l 1,30,-1
 2023 1413 l 1,31,-1
 1466 816 l 1,32,33
 1527 816 1527 816 1571.5 784.5 c 128,-1,34
 1616 753 1616 753 1641.5 712 c 128,-1,35
 1667 671 1667 671 1671 637 c 2,36,-1
 1769 0 l 1,0,-1
EndSplineSet
Position2: "'cpsp' Capital Spacing lookup 0 per glyph data 0" dx=5 dy=0 dh=10 dv=0
EndChar

StartChar: uni0417
Encoding: 1047 1047 429
Width: 1108
GlyphClass: 1
Flags: W
LayerCount: 2
Fore
SplineSet
408 -20 m 0,0,1
 264 -20 264 -20 157 38.5 c 128,-1,2
 50 97 50 97 17 216 c 1,3,-1
 160 288 l 1,4,5
 177 196 177 196 247.5 154 c 128,-1,6
 318 112 318 112 415 112 c 0,7,8
 499 112 499 112 582 146 c 128,-1,9
 665 180 665 180 728 247.5 c 128,-1,10
 791 315 791 315 817 417 c 0,11,12
 825 449 825 449 825 483 c 0,13,14
 825 551 825 551 790.5 594.5 c 128,-1,15
 756 638 756 638 697 659 c 128,-1,16
 638 680 638 680 563 680 c 2,17,-1
 390 680 l 1,18,-1
 422 820 l 1,19,-1
 589 820 l 2,20,21
 694 820 694 820 784 883.5 c 128,-1,22
 874 947 874 947 904 1065 c 0,23,24
 912 1100 912 1100 912 1127 c 0,25,26
 912 1212 912 1212 855.5 1254.5 c 128,-1,27
 799 1297 799 1297 716 1297 c 0,28,29
 618 1297 618 1297 524 1236.5 c 128,-1,30
 430 1176 430 1176 399 1067 c 1,31,-1
 248 1081 l 1,32,33
 295 1254 295 1254 429.5 1344 c 128,-1,34
 564 1434 564 1434 722 1434 c 0,35,36
 818 1434 818 1434 894 1400.5 c 128,-1,37
 970 1367 970 1367 1014 1303 c 128,-1,38
 1058 1239 1058 1239 1058 1148 c 0,39,40
 1058 1004 1058 1004 962 882 c 0,41,42
 899 804 899 804 799 756 c 1,43,44
 880 721 880 721 928 651 c 128,-1,45
 976 581 976 581 976 480 c 0,46,47
 976 436 976 436 963 376 c 0,48,49
 930 242 930 242 847.5 154.5 c 128,-1,50
 765 67 765 67 650 23.5 c 128,-1,51
 535 -20 535 -20 408 -20 c 0,0,1
EndSplineSet
Position2: "'cpsp' Capital Spacing lookup 0 per glyph data 0" dx=5 dy=0 dh=10 dv=0
EndChar

StartChar: uni0418
Encoding: 1048 1048 430
Width: 1425
GlyphClass: 1
Flags: W
LayerCount: 2
Fore
SplineSet
1095 0 m 1,0,-1
 936 0 l 1,1,-1
 1221 1230 l 1,2,-1
 326 0 l 1,3,-1
 100 0 l 1,4,-1
 426 1413 l 1,5,-1
 583 1413 l 1,6,-1
 300 185 l 1,7,-1
 1198 1413 l 1,8,-1
 1420 1413 l 1,9,-1
 1095 0 l 1,0,-1
EndSplineSet
Position2: "'cpsp' Capital Spacing lookup 0 per glyph data 0" dx=5 dy=0 dh=10 dv=0
EndChar

StartChar: uni041A
Encoding: 1050 1050 432
Width: 1268
GlyphClass: 1
Flags: W
LayerCount: 2
Fore
SplineSet
1082 0 m 1,0,-1
 895 0 l 1,1,-1
 825 570 l 2,2,3
 822 598 822 598 804.5 629 c 128,-1,4
 787 660 787 660 754 682.5 c 128,-1,5
 721 705 721 705 671 705 c 2,6,-1
 419 705 l 1,7,-1
 258 0 l 1,8,-1
 100 0 l 1,9,-1
 426 1413 l 1,10,-1
 583 1413 l 1,11,-1
 450 839 l 1,12,-1
 615 839 l 1,13,-1
 1130 1413 l 1,14,-1
 1335 1413 l 1,15,-1
 778 816 l 1,16,17
 839 816 839 816 883.5 784.5 c 128,-1,18
 928 753 928 753 953.5 712 c 128,-1,19
 979 671 979 671 983 637 c 2,20,-1
 1082 0 l 1,0,-1
EndSplineSet
Position2: "'cpsp' Capital Spacing lookup 0 per glyph data 0" dx=5 dy=0 dh=10 dv=0
EndChar

StartChar: uni041B
Encoding: 1051 1051 433
Width: 1455
GlyphClass: 2
Flags: W
LayerCount: 2
Fore
SplineSet
117 -20 m 0,0,1
 74 -20 74 -20 29.5 -8 c 128,-1,2
 -15 4 -15 4 -48 26 c 1,3,-1
 39 167 l 1,4,5
 72 139 72 139 113 139 c 0,6,7
 202 139 202 139 279 282 c 128,-1,8
 356 425 356 425 414.5 627 c 128,-1,9
 473 829 473 829 539 1115 c 2,10,-1
 607 1413 l 1,11,-1
 1451 1413 l 1,12,-1
 1126 0 l 1,13,-1
 970 0 l 1,14,-1
 1265 1278 l 1,15,-1
 734 1278 l 1,16,-1
 683 1060 l 2,17,18
 603 716 603 716 537.5 500.5 c 128,-1,19
 472 285 472 285 368 132.5 c 128,-1,20
 264 -20 264 -20 117 -20 c 0,0,1
EndSplineSet
Substitution2: "'ss02' Style Set 2 lookup 16 subtable" uni041B.1
Substitution2: "'ss03' Style Set 3 lookup 15 subtable" uni0414.loclSRB
Substitution2: "'locl' Localized Forms in Cyrillic lookup 10 subtable" uni041B.1
Substitution2: "'locl' Localized Forms in Cyrillic lookup 9 subtable" uni041B.loclSRB
Substitution2: "'locl' Localized Forms in Cyrillic lookup 8 subtable" uni041B.loclSRB
AlternateSubs2: "'aalt' Access All Alternates lookup 1 subtable" uni0414.loclSRB uni041B.1
Position2: "'cpsp' Capital Spacing lookup 0 per glyph data 0" dx=5 dy=0 dh=10 dv=0
EndChar

StartChar: uni041F
Encoding: 1055 1055 437
Width: 1453
GlyphClass: 1
Flags: W
LayerCount: 2
Fore
SplineSet
1127 0 m 1,0,-1
 970 0 l 1,1,-1
 1264 1278 l 1,2,-1
 549 1278 l 1,3,-1
 254 0 l 1,4,-1
 97 0 l 1,5,-1
 423 1413 l 1,6,-1
 1452 1413 l 1,7,-1
 1127 0 l 1,0,-1
EndSplineSet
Position2: "'cpsp' Capital Spacing lookup 0 per glyph data 0" dx=5 dy=0 dh=10 dv=0
EndChar

StartChar: uni0423
Encoding: 1059 1059 441
Width: 1125
GlyphClass: 1
Flags: W
LayerCount: 2
Fore
SplineSet
324 0 m 1,0,-1
 150 0 l 1,1,-1
 454 457 l 1,2,-1
 281 1413 l 1,3,-1
 450 1413 l 1,4,-1
 572 624 l 1,5,-1
 1089 1413 l 1,6,-1
 1270 1413 l 1,7,-1
 324 0 l 1,0,-1
EndSplineSet
Position2: "'cpsp' Capital Spacing lookup 0 per glyph data 0" dx=5 dy=0 dh=10 dv=0
EndChar

StartChar: uni0424
Encoding: 1060 1060 442
Width: 1700
GlyphClass: 1
Flags: W
LayerCount: 2
Fore
SplineSet
815 0 m 1,0,-1
 655 0 l 1,1,-1
 688 116 l 1,2,3
 429 116 429 116 292 217.5 c 128,-1,4
 155 319 155 319 155 529 c 0,5,6
 155 615 155 615 179 720 c 0,7,8
 222 908 222 908 320 1040 c 128,-1,9
 418 1172 418 1172 575 1242 c 128,-1,10
 732 1312 732 1312 952 1312 c 1,11,-1
 981 1413 l 1,12,-1
 1140 1413 l 1,13,-1
 1111 1312 l 1,14,15
 1294 1312 1294 1312 1411.5 1261 c 128,-1,16
 1529 1210 1529 1210 1585 1114.5 c 128,-1,17
 1641 1019 1641 1019 1641 886 c 0,18,19
 1641 797 1641 797 1617 692 c 0,20,21
 1550 399 1550 399 1356.5 257.5 c 128,-1,22
 1163 116 1163 116 847 116 c 1,23,-1
 815 0 l 1,0,-1
709 261 m 1,24,-1
 930 1167 l 1,25,26
 758 1167 758 1167 635.5 1110 c 128,-1,27
 513 1053 513 1053 437 947 c 128,-1,28
 361 841 361 841 328 692 c 0,29,30
 309 608 309 608 309 547 c 0,31,32
 309 398 309 398 409.5 329.5 c 128,-1,33
 510 261 510 261 709 261 c 1,24,-1
868 261 m 1,34,35
 1111 261 1111 261 1262 373 c 128,-1,36
 1413 485 1413 485 1468 720 c 0,37,38
 1487 806 1487 806 1487 867 c 0,39,40
 1487 1167 1487 1167 1089 1167 c 1,41,-1
 868 261 l 1,34,35
EndSplineSet
Position2: "'cpsp' Capital Spacing lookup 0 per glyph data 0" dx=5 dy=0 dh=10 dv=0
EndChar

StartChar: uni0426
Encoding: 1062 1062 444
Width: 1480
GlyphClass: 1
Flags: W
LayerCount: 2
Fore
SplineSet
1215 -253 m 1,0,-1
 1059 -253 l 1,1,-1
 1118 0 l 1,2,-1
 100 0 l 1,3,-1
 426 1413 l 1,4,-1
 583 1413 l 1,5,-1
 288 137 l 1,6,-1
 1003 137 l 1,7,-1
 1298 1413 l 1,8,-1
 1456 1413 l 1,9,-1
 1160 137 l 1,10,-1
 1304 137 l 1,11,-1
 1215 -253 l 1,0,-1
EndSplineSet
Position2: "'cpsp' Capital Spacing lookup 0 per glyph data 0" dx=5 dy=0 dh=10 dv=0
EndChar

StartChar: uni0427
Encoding: 1063 1063 445
Width: 1328
GlyphClass: 1
Flags: W
LayerCount: 2
Fore
SplineSet
999 0 m 1,0,-1
 840 0 l 1,1,-1
 966 533 l 1,2,3
 820 411 820 411 612 411 c 0,4,5
 412 411 412 411 316 515 c 128,-1,6
 220 619 220 619 220 803 c 0,7,8
 220 901 220 901 248 1024 c 2,9,-1
 338 1413 l 1,10,-1
 497 1413 l 1,11,-1
 402 1004 l 2,12,13
 376 885 376 885 376 807 c 0,14,15
 376 562 376 562 617 562 c 0,16,17
 735 562 735 562 834 605.5 c 128,-1,18
 933 649 933 649 1001 714 c 1,19,-1
 1165 1413 l 1,20,-1
 1324 1413 l 1,21,-1
 999 0 l 1,0,-1
EndSplineSet
Position2: "'cpsp' Capital Spacing lookup 0 per glyph data 0" dx=5 dy=0 dh=10 dv=0
EndChar

StartChar: uni0428
Encoding: 1064 1064 446
Width: 1751
GlyphClass: 1
Flags: W
LayerCount: 2
Fore
SplineSet
1422 0 m 1,0,-1
 100 0 l 1,1,-1
 426 1413 l 1,2,-1
 583 1413 l 1,3,-1
 288 137 l 1,4,-1
 709 137 l 1,5,-1
 1005 1413 l 1,6,-1
 1164 1413 l 1,7,-1
 868 137 l 1,8,-1
 1295 137 l 1,9,-1
 1590 1413 l 1,10,-1
 1747 1413 l 1,11,-1
 1422 0 l 1,0,-1
EndSplineSet
Position2: "'cpsp' Capital Spacing lookup 0 per glyph data 0" dx=5 dy=0 dh=10 dv=0
EndChar

StartChar: uni0429
Encoding: 1065 1065 447
Width: 1769
GlyphClass: 1
Flags: W
LayerCount: 2
Fore
SplineSet
1503 -253 m 1,0,-1
 1348 -253 l 1,1,-1
 1406 0 l 1,2,-1
 97 0 l 1,3,-1
 423 1413 l 1,4,-1
 580 1413 l 1,5,-1
 285 137 l 1,6,-1
 706 137 l 1,7,-1
 1001 1413 l 1,8,-1
 1160 1413 l 1,9,-1
 865 137 l 1,10,-1
 1291 137 l 1,11,-1
 1587 1413 l 1,12,-1
 1744 1413 l 1,13,-1
 1449 137 l 1,14,-1
 1592 137 l 1,15,-1
 1503 -253 l 1,0,-1
EndSplineSet
Position2: "'cpsp' Capital Spacing lookup 0 per glyph data 0" dx=5 dy=0 dh=10 dv=0
EndChar

StartChar: uni042A
Encoding: 1066 1066 448
Width: 1367
GlyphClass: 1
Flags: W
LayerCount: 2
Fore
SplineSet
719 0 m 2,0,-1
 318 0 l 1,1,-1
 614 1285 l 1,2,-1
 240 1285 l 1,3,-1
 271 1413 l 1,4,-1
 801 1413 l 1,5,-1
 654 776 l 1,6,-1
 888 776 l 2,7,8
 1001 776 1001 776 1085.5 743.5 c 128,-1,9
 1170 711 1170 711 1217.5 645 c 128,-1,10
 1265 579 1265 579 1265 481 c 0,11,12
 1265 397 1265 397 1233.5 316 c 128,-1,13
 1202 235 1202 235 1151 174 c 0,14,15
 1074 87 1074 87 963 43.5 c 128,-1,16
 852 0 852 0 719 0 c 2,0,-1
741 141 m 2,17,18
 880 141 880 141 977 210 c 128,-1,19
 1074 279 1074 279 1104 406 c 0,20,21
 1112 443 1112 443 1112 469 c 0,22,23
 1112 553 1112 553 1048 594 c 128,-1,24
 984 635 984 635 866 635 c 2,25,-1
 622 635 l 1,26,-1
 507 141 l 1,27,-1
 741 141 l 2,17,18
EndSplineSet
Position2: "'cpsp' Capital Spacing lookup 0 per glyph data 0" dx=5 dy=0 dh=10 dv=0
EndChar

StartChar: uni042B
Encoding: 1067 1067 449
Width: 1627
GlyphClass: 1
Flags: W
LayerCount: 2
Fore
SplineSet
498 0 m 2,0,-1
 97 0 l 1,1,-1
 423 1413 l 1,2,-1
 581 1413 l 1,3,-1
 435 776 l 1,4,-1
 666 776 l 2,5,6
 779 776 779 776 864.5 743 c 128,-1,7
 950 710 950 710 997.5 644 c 128,-1,8
 1045 578 1045 578 1045 479 c 0,9,10
 1045 402 1045 402 1016 321 c 128,-1,11
 987 240 987 240 931 174 c 0,12,13
 854 87 854 87 743 43.5 c 128,-1,14
 632 0 632 0 498 0 c 2,0,-1
1300 0 m 1,15,-1
 1143 0 l 1,16,-1
 1469 1413 l 1,17,-1
 1626 1413 l 1,18,-1
 1300 0 l 1,15,-1
519 141 m 2,19,20
 660 141 660 141 756.5 210 c 128,-1,21
 853 279 853 279 883 406 c 0,22,23
 891 443 891 443 891 469 c 0,24,25
 891 553 891 553 827 594 c 128,-1,26
 763 635 763 635 645 635 c 2,27,-1
 402 635 l 1,28,-1
 288 141 l 1,29,-1
 519 141 l 2,19,20
EndSplineSet
Position2: "'cpsp' Capital Spacing lookup 0 per glyph data 0" dx=5 dy=0 dh=10 dv=0
EndChar

StartChar: uni042C
Encoding: 1068 1068 450
Width: 1148
GlyphClass: 1
Flags: W
LayerCount: 2
Fore
SplineSet
498 0 m 2,0,-1
 97 0 l 1,1,-1
 423 1413 l 1,2,-1
 581 1413 l 1,3,-1
 435 776 l 1,4,-1
 666 776 l 2,5,6
 779 776 779 776 864.5 743 c 128,-1,7
 950 710 950 710 997.5 644 c 128,-1,8
 1045 578 1045 578 1045 479 c 0,9,10
 1045 402 1045 402 1016 321 c 128,-1,11
 987 240 987 240 931 174 c 0,12,13
 854 87 854 87 743 43.5 c 128,-1,14
 632 0 632 0 498 0 c 2,0,-1
519 141 m 2,15,16
 660 141 660 141 756.5 210 c 128,-1,17
 853 279 853 279 883 406 c 0,18,19
 891 443 891 443 891 469 c 0,20,21
 891 553 891 553 827 594 c 128,-1,22
 763 635 763 635 645 635 c 2,23,-1
 402 635 l 1,24,-1
 288 141 l 1,25,-1
 519 141 l 2,15,16
EndSplineSet
Position2: "'cpsp' Capital Spacing lookup 0 per glyph data 0" dx=5 dy=0 dh=10 dv=0
EndChar

StartChar: uni042D
Encoding: 1069 1069 451
Width: 1422
GlyphClass: 1
Flags: W
LayerCount: 2
Fore
SplineSet
554 -20 m 0,0,1
 358 -20 358 -20 228 76.5 c 128,-1,2
 98 173 98 173 59 365 c 1,3,-1
 212 411 l 1,4,5
 248 126 248 126 565 126 c 0,6,7
 722 126 722 126 843.5 197 c 128,-1,8
 965 268 965 268 1048.5 388.5 c 128,-1,9
 1132 509 1132 509 1176 661 c 1,10,-1
 543 654 l 1,11,-1
 570 771 l 1,12,-1
 1202 778 l 1,13,14
 1215 856 1215 856 1215 918 c 0,15,16
 1215 1088 1215 1088 1128.5 1188.5 c 128,-1,17
 1042 1289 1042 1289 860 1289 c 0,18,19
 757 1289 757 1289 661.5 1258.5 c 128,-1,20
 566 1228 566 1228 487 1163 c 128,-1,21
 408 1098 408 1098 353 993 c 1,22,-1
 218 1067 l 1,23,24
 348 1257 348 1257 515.5 1346.5 c 128,-1,25
 683 1436 683 1436 869 1436 c 0,26,27
 1041 1436 1041 1436 1152 1371 c 128,-1,28
 1263 1306 1263 1306 1317 1191.5 c 128,-1,29
 1371 1077 1371 1077 1371 928 c 0,30,31
 1371 787 1371 787 1325.5 628.5 c 128,-1,32
 1280 470 1280 470 1190 331 c 0,33,34
 1122 227 1122 227 1028.5 148.5 c 128,-1,35
 935 70 935 70 816 25 c 128,-1,36
 697 -20 697 -20 554 -20 c 0,0,1
EndSplineSet
Position2: "'cpsp' Capital Spacing lookup 0 per glyph data 0" dx=5 dy=0 dh=10 dv=0
EndChar

StartChar: uni042E
Encoding: 1070 1070 452
Width: 1890
GlyphClass: 2
Flags: W
LayerCount: 2
Fore
SplineSet
1023 -20 m 0,0,1
 852 -20 852 -20 740.5 44.5 c 128,-1,2
 629 109 629 109 574.5 223.5 c 128,-1,3
 520 338 520 338 520 486 c 0,4,5
 520 560 520 560 534 646 c 1,6,-1
 401 639 l 1,7,-1
 254 0 l 1,8,-1
 97 0 l 1,9,-1
 423 1413 l 1,10,-1
 580 1413 l 1,11,-1
 433 774 l 1,12,-1
 564 781 l 1,13,14
 616 961 616 961 720.5 1109 c 128,-1,15
 825 1257 825 1257 987 1349 c 0,16,17
 1142 1434 1142 1434 1336 1434 c 0,18,19
 1509 1434 1509 1434 1620.5 1369 c 128,-1,20
 1732 1304 1732 1304 1786 1189.5 c 128,-1,21
 1840 1075 1840 1075 1840 926 c 0,22,23
 1840 768 1840 768 1791 611.5 c 128,-1,24
 1742 455 1742 455 1661 331 c 0,25,26
 1555 170 1555 170 1392.5 75 c 128,-1,27
 1230 -20 1230 -20 1023 -20 c 0,0,1
1033 126 m 0,28,29
 1199 126 1199 126 1328 208 c 0,30,31
 1462 295 1462 295 1544 429 c 128,-1,32
 1626 563 1626 563 1662 721 c 0,33,34
 1685 822 1685 822 1685 911 c 0,35,36
 1685 1081 1685 1081 1597 1184 c 128,-1,37
 1509 1287 1509 1287 1324 1287 c 0,38,39
 1159 1287 1159 1287 1031 1206 c 0,40,41
 897 1119 897 1119 815.5 984.5 c 128,-1,42
 734 850 734 850 698 692 c 0,43,44
 674 586 674 586 674 499 c 0,45,46
 674 330 674 330 761.5 228 c 128,-1,47
 849 126 849 126 1033 126 c 0,28,29
EndSplineSet
Substitution2: "'ss02' Style Set 2 lookup 16 subtable" uni042E.1
Substitution2: "'ss03' Style Set 3 lookup 15 subtable" uni041B.loclSRB
Substitution2: "'locl' Localized Forms in Cyrillic lookup 10 subtable" uni042E.1
AlternateSubs2: "'aalt' Access All Alternates lookup 1 subtable" uni041B.loclSRB uni042E.1
Position2: "'cpsp' Capital Spacing lookup 0 per glyph data 0" dx=5 dy=0 dh=10 dv=0
EndChar

StartChar: uni042F
Encoding: 1071 1071 453
Width: 1219
GlyphClass: 1
Flags: W
LayerCount: 2
Fore
SplineSet
887 -2 m 1,0,-1
 728 -2 l 1,1,-1
 872 632 l 1,2,-1
 637 632 l 1,3,-1
 144 -2 l 1,4,-1
 -41 -2 l 1,5,-1
 485 651 l 1,6,7
 379 694 379 694 329 776.5 c 128,-1,8
 279 859 279 859 279 960 c 0,9,10
 279 1007 279 1007 292 1067 c 0,11,12
 335 1246 335 1246 473.5 1328.5 c 128,-1,13
 612 1411 612 1411 813 1411 c 2,14,-1
 1211 1411 l 1,15,-1
 887 -2 l 1,0,-1
906 778 m 1,16,-1
 1018 1271 l 1,17,-1
 766 1271 l 2,18,19
 645 1271 645 1271 554 1212 c 128,-1,20
 463 1153 463 1153 431 1034 c 0,21,22
 423 997 423 997 423 969 c 0,23,24
 423 878 423 878 483.5 830.5 c 128,-1,25
 544 783 544 783 641 778 c 1,26,-1
 906 778 l 1,16,-1
EndSplineSet
Position2: "'cpsp' Capital Spacing lookup 0 per glyph data 0" dx=5 dy=0 dh=10 dv=0
EndChar

StartChar: uni0431
Encoding: 1073 1073 455
Width: 1210
GlyphClass: 1
Flags: W
LayerCount: 2
Fore
SplineSet
542 -20 m 0,0,1
 423 -20 423 -20 341 27 c 128,-1,2
 259 74 259 74 216 156.5 c 128,-1,3
 173 239 173 239 173 345 c 0,4,5
 173 414 173 414 189 482 c 2,6,-1
 267 817 l 2,7,8
 309 991 309 991 394 1093 c 128,-1,9
 479 1195 479 1195 585 1253 c 1,10,11
 826 1360 826 1360 1115 1436 c 1,12,-1
 1091 1287 l 1,13,14
 901 1227 901 1227 800 1190 c 128,-1,15
 699 1153 699 1153 643 1119 c 1,16,17
 541 1068 541 1068 484.5 991.5 c 128,-1,18
 428 915 428 915 400 795 c 2,19,-1
 399 790 l 1,20,21
 469 862 469 862 569.5 910.5 c 128,-1,22
 670 959 670 959 785 959 c 0,23,24
 902 959 902 959 980 913 c 128,-1,25
 1058 867 1058 867 1097 787.5 c 128,-1,26
 1136 708 1136 708 1136 605 c 0,27,28
 1136 507 1136 507 1102 406 c 128,-1,29
 1068 305 1068 305 1001 217 c 0,30,31
 919 110 919 110 800.5 45 c 128,-1,32
 682 -20 682 -20 542 -20 c 0,0,1
545 104 m 0,33,34
 657 104 657 104 741.5 156 c 128,-1,35
 826 208 826 208 880 294 c 128,-1,36
 934 380 934 380 959 485 c 0,37,38
 975 548 975 548 975 608 c 0,39,40
 975 711 975 711 920 772 c 128,-1,41
 865 833 865 833 745 833 c 0,42,43
 636 833 636 833 552.5 780.5 c 128,-1,44
 469 728 469 728 414 643 c 128,-1,45
 359 558 359 558 335 456 c 0,46,47
 319 390 319 390 319 330 c 0,48,49
 319 263 319 263 341.5 212 c 128,-1,50
 364 161 364 161 414 132.5 c 128,-1,51
 464 104 464 104 545 104 c 0,33,34
EndSplineSet
Substitution2: "'locl' Localized Forms in Cyrillic lookup 8 subtable" uni0431.loclSRB
EndChar

StartChar: uni0432
Encoding: 1074 1074 456
Width: 1090
GlyphClass: 2
Flags: W
LayerCount: 2
Fore
SplineSet
496 0 m 2,0,-1
 56 0 l 1,1,-1
 294 1039 l 1,2,-1
 724 1039 l 2,3,4
 857 1039 857 1039 928.5 996 c 128,-1,5
 1000 953 1000 953 1000 852 c 0,6,7
 1000 816 1000 816 988 767 c 0,8,9
 971 686 971 686 915.5 625.5 c 128,-1,10
 860 565 860 565 758 548 c 1,11,12
 854 539 854 539 899 480 c 128,-1,13
 944 421 944 421 944 339 c 0,14,15
 944 215 944 215 867 116 c 1,16,17
 816 57 816 57 725.5 28.5 c 128,-1,18
 635 0 635 0 496 0 c 2,0,-1
598 609 m 2,19,20
 680 609 680 609 751 657 c 0,21,22
 847 721 847 721 848 820 c 0,23,24
 848 872 848 872 808 894 c 128,-1,25
 768 916 768 916 677 916 c 2,26,-1
 409 916 l 1,27,-1
 340 609 l 1,28,-1
 598 609 l 2,19,20
488 132 m 2,29,30
 629 132 629 132 703 178.5 c 128,-1,31
 777 225 777 225 789 298 c 0,32,33
 794 328 794 328 795 348 c 0,34,35
 795 424 795 424 741.5 450.5 c 128,-1,36
 688 477 688 477 577 477 c 2,37,-1
 309 477 l 1,38,-1
 231 132 l 1,39,-1
 488 132 l 2,29,30
EndSplineSet
Substitution2: "'ss02' Style Set 2 lookup 16 subtable" uni0432.1
Substitution2: "'ss03' Style Set 3 lookup 15 subtable" uni0432.loclSRB
Substitution2: "'locl' Localized Forms in Cyrillic lookup 10 subtable" uni0432.1
Substitution2: "'locl' Localized Forms in Cyrillic lookup 9 subtable" uni0432.loclSRB
Substitution2: "'locl' Localized Forms in Cyrillic lookup 8 subtable" uni0432.loclSRB
AlternateSubs2: "'aalt' Access All Alternates lookup 1 subtable" uni0432.loclSRB uni0432.1
EndChar

StartChar: uni0433
Encoding: 1075 1075 457
Width: 799
GlyphClass: 2
Flags: W
LayerCount: 2
Fore
SplineSet
212 0 m 1,0,-1
 56 0 l 1,1,-1
 294 1039 l 1,2,-1
 888 1039 l 1,3,-1
 861 921 l 1,4,-1
 423 921 l 1,5,-1
 212 0 l 1,0,-1
EndSplineSet
Substitution2: "'ss02' Style Set 2 lookup 16 subtable" uni0433.1
Substitution2: "'ss03' Style Set 3 lookup 15 subtable" uni0433.loclSRB
Substitution2: "'locl' Localized Forms in Cyrillic lookup 10 subtable" uni0433.1
Substitution2: "'locl' Localized Forms in Cyrillic lookup 9 subtable" uni0433.loclSRB
Substitution2: "'locl' Localized Forms in Cyrillic lookup 8 subtable" uni0433.loclSRB
AlternateSubs2: "'aalt' Access All Alternates lookup 1 subtable" uni0433.loclSRB uni0433.1
EndChar

StartChar: uni0434
Encoding: 1076 1076 458
Width: 1137
GlyphClass: 2
Flags: W
LayerCount: 2
Fore
SplineSet
843 -307 m 1,0,-1
 688 -307 l 1,1,-1
 763 0 l 1,2,-1
 66 0 l 1,3,-1
 -8 -307 l 1,4,-1
 -164 -307 l 1,5,-1
 -62 120 l 1,6,-1
 45 125 l 1,7,8
 225 295 225 295 307 649 c 2,9,-1
 396 1039 l 1,10,-1
 1058 1039 l 1,11,-1
 847 120 l 1,12,-1
 945 120 l 1,13,-1
 843 -307 l 1,0,-1
222 115 m 1,14,-1
 692 120 l 1,15,-1
 876 921 l 1,16,-1
 525 921 l 1,17,-1
 460 637 l 2,18,19
 375 268 375 268 222 115 c 1,14,-1
EndSplineSet
Substitution2: "'ss02' Style Set 2 lookup 16 subtable" uni0434.1
Substitution2: "'ss03' Style Set 3 lookup 15 subtable" uni0434.loclSRB
Substitution2: "'locl' Localized Forms in Cyrillic lookup 10 subtable" uni0434.1
Substitution2: "'locl' Localized Forms in Cyrillic lookup 9 subtable" uni0434.loclSRB
Substitution2: "'locl' Localized Forms in Cyrillic lookup 8 subtable" uni0434.loclSRB
AlternateSubs2: "'aalt' Access All Alternates lookup 1 subtable" uni0434.loclSRB uni0434.1
EndChar

StartChar: uni0436
Encoding: 1078 1078 460
Width: 1488
GlyphClass: 2
Flags: W
LayerCount: 2
Fore
SplineSet
1317 0 m 1,0,-1
 1145 0 l 1,1,-1
 1108 383 l 2,2,3
 1099 462 1099 462 1068 493.5 c 128,-1,4
 1037 525 1037 525 974 525 c 2,5,-1
 827 525 l 1,6,-1
 707 0 l 1,7,-1
 551 0 l 1,8,-1
 670 525 l 1,9,-1
 535 525 l 2,10,11
 412 525 412 525 328 368 c 1,12,-1
 113 0 l 1,13,-1
 -71 0 l 1,14,-1
 205 459 l 2,15,16
 243 524 243 524 294.5 571.5 c 128,-1,17
 346 619 346 619 401 619 c 1,18,-1
 238 1039 l 1,19,-1
 423 1039 l 1,20,-1
 566 651 l 1,21,-1
 701 651 l 1,22,-1
 789 1039 l 1,23,-1
 945 1039 l 1,24,-1
 857 651 l 1,25,-1
 988 651 l 1,26,-1
 1301 1039 l 1,27,-1
 1495 1039 l 1,28,-1
 1133 619 l 1,29,30
 1183 619 1183 619 1213 565 c 128,-1,31
 1243 511 1243 511 1251 445 c 2,32,-1
 1317 0 l 1,0,-1
EndSplineSet
Substitution2: "'ss02' Style Set 2 lookup 16 subtable" uni0436.1
Substitution2: "'ss03' Style Set 3 lookup 15 subtable" uni0436.loclSRB
Substitution2: "'locl' Localized Forms in Cyrillic lookup 10 subtable" uni0436.1
Substitution2: "'locl' Localized Forms in Cyrillic lookup 9 subtable" uni0436.loclSRB
Substitution2: "'locl' Localized Forms in Cyrillic lookup 8 subtable" uni0436.loclSRB
AlternateSubs2: "'aalt' Access All Alternates lookup 1 subtable" uni0436.loclSRB uni0436.1
EndChar

StartChar: uni0437
Encoding: 1079 1079 461
Width: 967
GlyphClass: 2
Flags: W
LayerCount: 2
Fore
SplineSet
342 -20 m 0,0,1
 203 -20 203 -20 121.5 28.5 c 128,-1,2
 40 77 40 77 -26 176 c 1,3,-1
 104 260 l 1,4,5
 162 104 162 104 337 104 c 0,6,7
 489 104 489 104 571 157.5 c 128,-1,8
 653 211 653 211 674 307 c 0,9,10
 679 331 679 331 679 348 c 0,11,12
 679 407 679 407 627 431 c 128,-1,13
 575 455 575 455 462 455 c 2,14,-1
 324 455 l 1,15,-1
 356 585 l 1,16,-1
 508 586 l 1,17,18
 692 621 692 621 728 779 c 0,19,20
 733 806 733 806 733 824 c 0,21,22
 733 927 733 927 563 927 c 0,23,24
 467 927 467 927 382 879 c 128,-1,25
 297 831 297 831 244 759 c 1,26,-1
 134 843 l 1,27,28
 219 949 219 949 332 1000.5 c 128,-1,29
 445 1052 445 1052 562 1052 c 0,30,31
 725 1052 725 1052 803.5 995 c 128,-1,32
 882 938 882 938 882 833 c 0,33,34
 882 707 882 707 803 602 c 1,35,36
 752 543 752 543 647 524 c 1,37,38
 735 515 735 515 780.5 460.5 c 128,-1,39
 826 406 826 406 826 331 c 0,40,41
 826 305 826 305 820 277 c 0,42,43
 782 124 782 124 656 52 c 128,-1,44
 530 -20 530 -20 342 -20 c 0,0,1
EndSplineSet
Substitution2: "'ss02' Style Set 2 lookup 16 subtable" uni0437.1
Substitution2: "'ss03' Style Set 3 lookup 15 subtable" uni0437.loclSRB
Substitution2: "'locl' Localized Forms in Cyrillic lookup 10 subtable" uni0437.1
Substitution2: "'locl' Localized Forms in Cyrillic lookup 9 subtable" uni0437.loclSRB
Substitution2: "'locl' Localized Forms in Cyrillic lookup 8 subtable" uni0437.loclSRB
AlternateSubs2: "'aalt' Access All Alternates lookup 1 subtable" uni0437.loclSRB uni0437.1
EndChar

StartChar: uni0438
Encoding: 1080 1080 462
Width: 1203
GlyphClass: 2
Flags: W
LayerCount: 2
Fore
SplineSet
904 0 m 1,0,-1
 750 0 l 1,1,-1
 912 707 l 2,2,3
 931 779 931 779 951 828 c 1,4,5
 943 821 943 821 245 0 c 1,6,-1
 66 0 l 1,7,-1
 305 1039 l 1,8,-1
 460 1039 l 1,9,-1
 298 333 l 2,10,11
 278 262 278 262 259 211 c 1,12,-1
 268 218 l 1,13,-1
 965 1039 l 1,14,-1
 1143 1039 l 1,15,-1
 904 0 l 1,0,-1
EndSplineSet
Substitution2: "'ss02' Style Set 2 lookup 16 subtable" uni0438.1
Substitution2: "'ss03' Style Set 3 lookup 15 subtable" uni0438.loclSRB
Substitution2: "'locl' Localized Forms in Cyrillic lookup 10 subtable" uni0438.1
Substitution2: "'locl' Localized Forms in Cyrillic lookup 9 subtable" uni0438.loclSRB
Substitution2: "'locl' Localized Forms in Cyrillic lookup 8 subtable" uni0438.loclSRB
AlternateSubs2: "'aalt' Access All Alternates lookup 1 subtable" uni0438.loclSRB uni0438.1
EndChar

StartChar: uni0439
Encoding: 1081 1081 463
Width: 1193
GlyphClass: 2
Flags: W
LayerCount: 2
Fore
SplineSet
754 1143 m 0,0,1
 640 1143 640 1143 565 1196.5 c 128,-1,2
 490 1250 490 1250 490 1349 c 0,3,4
 490 1378 490 1378 498 1413 c 1,5,-1
 617 1413 l 1,6,7
 613 1394 613 1394 613 1373 c 0,8,9
 613 1312 613 1312 653.5 1280 c 128,-1,10
 694 1248 694 1248 754 1248 c 0,11,12
 838 1248 838 1248 907 1297 c 128,-1,13
 976 1346 976 1346 995 1413 c 1,14,-1
 1114 1413 l 1,15,16
 1081 1279 1081 1279 980.5 1211 c 128,-1,17
 880 1143 880 1143 754 1143 c 0,0,1
899 0 m 1,18,-1
 745 0 l 1,19,-1
 907 680 l 2,20,21
 926 749 926 749 946 796 c 1,22,23
 938 789 938 789 245 0 c 1,24,-1
 66 0 l 1,25,-1
 305 999 l 1,26,-1
 460 999 l 1,27,-1
 298 320 l 2,28,29
 278 252 278 252 259 203 c 1,30,-1
 268 210 l 1,31,-1
 960 999 l 1,32,-1
 1133 999 l 1,33,-1
 899 0 l 1,18,-1
EndSplineSet
Substitution2: "'ss02' Style Set 2 lookup 16 subtable" uni0439.1
Substitution2: "'locl' Localized Forms in Cyrillic lookup 10 subtable" uni0439.1
Substitution2: "'aalt' Access All Alternates lookup 0 subtable" uni0439.1
EndChar

StartChar: uni043A
Encoding: 1082 1082 464
Width: 1000
GlyphClass: 2
Flags: W
LayerCount: 2
Fore
SplineSet
832 0 m 1,0,-1
 660 0 l 1,1,-1
 622 383 l 2,2,3
 614 461 614 461 583 493 c 128,-1,4
 552 525 552 525 490 525 c 2,5,-1
 341 525 l 1,6,-1
 223 0 l 1,7,-1
 66 0 l 1,8,-1
 305 1039 l 1,9,-1
 461 1039 l 1,10,-1
 372 651 l 1,11,-1
 503 651 l 1,12,-1
 816 1039 l 1,13,-1
 1010 1039 l 1,14,-1
 648 619 l 1,15,16
 697 619 697 619 726.5 566 c 128,-1,17
 756 513 756 513 766 445 c 2,18,-1
 832 0 l 1,0,-1
EndSplineSet
Substitution2: "'ss02' Style Set 2 lookup 16 subtable" uni043A.1
Substitution2: "'ss03' Style Set 3 lookup 15 subtable" uni043A.loclSRB
Substitution2: "'locl' Localized Forms in Cyrillic lookup 10 subtable" uni043A.1
Substitution2: "'locl' Localized Forms in Cyrillic lookup 9 subtable" uni043A.loclSRB
Substitution2: "'locl' Localized Forms in Cyrillic lookup 8 subtable" uni043A.loclSRB
AlternateSubs2: "'aalt' Access All Alternates lookup 1 subtable" uni043A.loclSRB uni043A.1
EndChar

